SplineFontDB: 3.2
FontName: Love-Regular
FullName: Love Regular
FamilyName: Love
Weight: Regular
Copyright: Copyright \\(c\\) 2017 by J_r_my Schneider. All rights reserved.
Version: 001.001
ItalicAngle: 0
UnderlinePosition: -100
UnderlineWidth: 50
Ascent: 3200
Descent: 800
InvalidEm: 0
sfntRevision: 0x00010041
LayerCount: 2
Layer: 0 0 "Back" 1
Layer: 1 0 "Fore" 0
XUID: [1021 971 1911820471 11297834]
StyleMap: 0x0040
FSType: 8
OS2Version: 3
OS2_WeightWidthSlopeOnly: 0
OS2_UseTypoMetrics: 0
CreationTime: 1610544185
ModificationTime: 1620397485
PfmFamily: 81
TTFWeight: 400
TTFWidth: 5
LineGap: 0
VLineGap: 0
Panose: 0 0 0 0 0 0 0 0 0 0
OS2TypoAscent: 3450
OS2TypoAOffset: 0
OS2TypoDescent: -767
OS2TypoDOffset: 0
OS2TypoLinegap: 0
OS2WinAscent: 3450
OS2WinAOffset: 0
OS2WinDescent: 767
OS2WinDOffset: 0
HheadAscent: 3450
HheadAOffset: 0
HheadDescent: -767
HheadDOffset: 0
OS2SubXSize: 2600
OS2SubYSize: 2400
OS2SubXOff: 0
OS2SubYOff: 300
OS2SupXSize: 2600
OS2SupYSize: 2400
OS2SupXOff: 0
OS2SupYOff: 1400
OS2StrikeYSize: 50
OS2StrikeYPos: 1410
OS2CapHeight: 2800
OS2XHeight: 2350
OS2Vendor: 'ViJe'
OS2CodePages: 20000093.00000000
OS2UnicodeRanges: 00000007.00000000.00000000.00000000
Lookup: 1 0 0 "'aalt' Access All Alternates in Latin lookup 0" { "'aalt' Access All Alternates in Latin lookup 0 subtable"  } ['aalt' ('DFLT' <'dflt' > 'latn' <'AZE ' 'CRT ' 'MOL ' 'ROM ' 'TRK ' 'dflt' > ) ]
Lookup: 3 0 0 "'aalt' Access All Alternates in Latin lookup 1" { "'aalt' Access All Alternates in Latin lookup 1 subtable"  } ['aalt' ('DFLT' <'dflt' > 'latn' <'AZE ' 'CRT ' 'MOL ' 'ROM ' 'TRK ' 'dflt' > ) ]
Lookup: 1 0 0 "'locl' Localized Forms in Latin lookup 2" { "'locl' Localized Forms in Latin lookup 2 subtable"  } ['locl' ('latn' <'AZE ' > ) ]
Lookup: 1 0 0 "'locl' Localized Forms in Latin lookup 3" { "'locl' Localized Forms in Latin lookup 3 subtable"  } ['locl' ('latn' <'CRT ' > ) ]

StartChar: .notdef
Encoding: 65536 -1 0
Width: 1853
Flags: MW
HStem: 0 89<268 1585 268 1674> 2711 89<268 268 268 1585>
VStem: 179 89<89 2711 89 2800> 1585 89<89 2711 2711 2711>
LayerCount: 2
Fore
SplineSet
1674 0 m 1
 179 0 l 1
 179 2800 l 1
 1674 2800 l 1
 1674 0 l 1
268 2711 m 1
 268 89 l 1
 1585 89 l 1
 1585 2711 l 1
 268 2711 l 1
EndSplineSet
EndChar

StartChar: A
Encoding: 65 65 4
Width: 1411
GlyphClass: 2
Flags: MW
HStem: 0 21G<130 381 130 130 936 1281 936 936> 874 18<401 925 401 927 398 925> 2780 20G<551 878 878 878>
AnchorPoint: "Anchor-6" 712 2195 basechar 0
AnchorPoint: "Anchor-5" 1281 0 basechar 0
AnchorPoint: "Anchor-4" 712 0 basechar 0
LayerCount: 2
Fore
SplineSet
789 2670 m 2
 1174 125 l 2
 1190 22 1255 18 1281 18 c 1
 1281 0 l 1
 936 0 l 1
 936 18 l 1
 954 18 1054 18 1039 117 c 2
 927 874 l 1
 398 874 l 1
 278 99 l 2
 265 13 363 18 381 18 c 1
 381 0 l 1
 130 0 l 1
 130 18 l 1
 202 18 250 40 262 117 c 2
 654 2643 l 1
 650 2670 l 2
 632 2779 569 2782 551 2782 c 1
 551 2800 l 1
 878 2800 l 1
 878 2782 l 1
 824 2782 775 2761 789 2670 c 2
925 892 m 1
 664 2593 l 1
 401 892 l 1
 925 892 l 1
EndSplineSet
Substitution2: "'ss02' Style Set 2 in Latin lookup 12 subtable" A.ss02
Substitution2: "'ss01' Style Set 1 in Latin lookup 11 subtable" A.ss01
Substitution2: "'salt' Stylistic Alternatives in Latin lookup 10 subtable" A.ss01
AlternateSubs2: "'aalt' Access All Alternates in Latin lookup 1 subtable" A.ss01 A.ss02
Position2: "'cpsp' Capital Spacing in Latin lookup 0 subtable" dx=5 dy=0 dh=10 dv=0
EndChar

StartChar: Aacute
Encoding: 193 193 5
Width: 1411
GlyphClass: 2
Flags: MW
HStem: 0 21G<130 381 130 130 936 1281 936 936> 874 18<401 925 401 927 398 925> 2780 20G<551 878 878 878> 2975 21G<434 434> 3259 20G<1048 1048>
AnchorPoint: "Anchor-6" 712 2195 basechar 0
AnchorPoint: "Anchor-5" 1281 0 basechar 0
AnchorPoint: "Anchor-4" 712 0 basechar 0
LayerCount: 2
Fore
SplineSet
1048 3279 m 1
 1079 3190 l 1
 891 3163 434 2975 434 2975 c 1
 430 2988 l 1
 430 2988 882 3167 1048 3279 c 1
789 2670 m 2
 1174 125 l 2
 1190 22 1255 18 1281 18 c 1
 1281 0 l 1
 936 0 l 1
 936 18 l 1
 954 18 1054 18 1039 117 c 2
 927 874 l 1
 398 874 l 1
 278 99 l 2
 265 13 363 18 381 18 c 1
 381 0 l 1
 130 0 l 1
 130 18 l 1
 202 18 250 40 262 117 c 2
 654 2643 l 1
 650 2670 l 2
 632 2779 569 2782 551 2782 c 1
 551 2800 l 1
 878 2800 l 1
 878 2782 l 1
 824 2782 775 2761 789 2670 c 2
925 892 m 1
 664 2593 l 1
 401 892 l 1
 925 892 l 1
EndSplineSet
Position2: "'cpsp' Capital Spacing in Latin lookup 0 subtable" dx=5 dy=0 dh=10 dv=0
EndChar

StartChar: Abreve
Encoding: 258 258 6
Width: 1411
GlyphClass: 2
Flags: MW
HStem: 0 21G<130 381 130 130 936 1281 936 936> 874 18<401 925 401 927 398 925> 2780 20G<551 878 878 878> 3087 21G<631 828.5> 3376 20G<250 331 331 331 1146 1164 1164 1164>
AnchorPoint: "Anchor-6" 712 2195 basechar 0
AnchorPoint: "Anchor-5" 1281 0 basechar 0
AnchorPoint: "Anchor-4" 712 0 basechar 0
LayerCount: 2
Fore
SplineSet
730 3087 m 0
 532 3087 322 3208 250 3396 c 1
 331 3396 l 1
 416 3234 595 3131 752 3131 c 0
 931 3131 1092 3234 1146 3396 c 1
 1164 3396 l 1
 1092 3194 927 3087 730 3087 c 0
789 2670 m 2
 1174 125 l 2
 1190 22 1255 18 1281 18 c 1
 1281 0 l 1
 936 0 l 1
 936 18 l 1
 954 18 1054 18 1039 117 c 2
 927 874 l 1
 398 874 l 1
 278 99 l 2
 265 13 363 18 381 18 c 1
 381 0 l 1
 130 0 l 1
 130 18 l 1
 202 18 250 40 262 117 c 2
 654 2643 l 1
 650 2670 l 2
 632 2779 569 2782 551 2782 c 1
 551 2800 l 1
 878 2800 l 1
 878 2782 l 1
 824 2782 775 2761 789 2670 c 2
925 892 m 1
 664 2593 l 1
 401 892 l 1
 925 892 l 1
EndSplineSet
Position2: "'cpsp' Capital Spacing in Latin lookup 0 subtable" dx=5 dy=0 dh=10 dv=0
EndChar

StartChar: Acircumflex
Encoding: 194 194 7
Width: 1411
GlyphClass: 2
Flags: MW
HStem: 0 21G<130 381 130 130 936 1281 936 936> 874 18<401 925 401 927 398 925> 2780 20G<551 878 878 878> 2988 21G<282 282 1142 1142> 3349 20G
AnchorPoint: "Anchor-6" 712 2195 basechar 0
AnchorPoint: "Anchor-5" 1281 0 basechar 0
AnchorPoint: "Anchor-4" 712 0 basechar 0
LayerCount: 2
Fore
SplineSet
712 3369 m 1
 832 3261 1043 3087 1151 3001 c 1
 1142 2988 l 1
 1043 3064 859 3199 712 3266 c 1
 565 3199 381 3064 282 2988 c 1
 273 3001 l 1
 381 3087 592 3261 712 3369 c 1
789 2670 m 2
 1174 125 l 2
 1190 22 1255 18 1281 18 c 1
 1281 0 l 1
 936 0 l 1
 936 18 l 1
 954 18 1054 18 1039 117 c 2
 927 874 l 1
 398 874 l 1
 278 99 l 2
 265 13 363 18 381 18 c 1
 381 0 l 1
 130 0 l 1
 130 18 l 1
 202 18 250 40 262 117 c 2
 654 2643 l 1
 650 2670 l 2
 632 2779 569 2782 551 2782 c 1
 551 2800 l 1
 878 2800 l 1
 878 2782 l 1
 824 2782 775 2761 789 2670 c 2
925 892 m 1
 664 2593 l 1
 401 892 l 1
 925 892 l 1
EndSplineSet
Position2: "'cpsp' Capital Spacing in Latin lookup 0 subtable" dx=5 dy=0 dh=10 dv=0
EndChar

StartChar: Adieresis
Encoding: 196 196 8
Width: 1411
GlyphClass: 2
Flags: MW
HStem: 0 21G<130 381 130 130 936 1281 936 936> 874 18<401 925 401 927 398 925> 2780 20G<551 878 878 878> 3042 116<561 593 830 862>
AnchorPoint: "Anchor-6" 712 2200 basechar 0
AnchorPoint: "Anchor-5" 1281 0 basechar 0
AnchorPoint: "Anchor-4" 712 0 basechar 0
LayerCount: 2
Fore
SplineSet
519 3100 m 0
 519 3132 545 3158 577 3158 c 0
 609 3158 635 3132 635 3100 c 0
 635 3068 609 3042 577 3042 c 0
 545 3042 519 3068 519 3100 c 0
788 3100 m 0
 788 3132 814 3158 846 3158 c 0
 878 3158 904 3132 904 3100 c 0
 904 3068 878 3042 846 3042 c 0
 814 3042 788 3068 788 3100 c 0
789 2670 m 2
 1174 125 l 2
 1190 22 1255 18 1281 18 c 1
 1281 0 l 1
 936 0 l 1
 936 18 l 1
 954 18 1054 18 1039 117 c 2
 927 874 l 1
 398 874 l 1
 278 99 l 2
 265 13 363 18 381 18 c 1
 381 0 l 1
 130 0 l 1
 130 18 l 1
 202 18 250 40 262 117 c 2
 654 2643 l 1
 650 2670 l 2
 632 2779 569 2782 551 2782 c 1
 551 2800 l 1
 878 2800 l 1
 878 2782 l 1
 824 2782 775 2761 789 2670 c 2
925 892 m 1
 664 2593 l 1
 401 892 l 1
 925 892 l 1
EndSplineSet
Position2: "'cpsp' Capital Spacing in Latin lookup 0 subtable" dx=5 dy=0 dh=10 dv=0
EndChar

StartChar: Agrave
Encoding: 192 192 9
Width: 1411
GlyphClass: 2
Flags: MW
HStem: 0 21G<130 381 130 130 936 1281 936 936> 874 18<401 925 401 927 398 925> 2780 20G<551 878 878 878> 2975 21G<1071 1071> 3259 20G<457 457>
AnchorPoint: "Anchor-6" 712 2195 basechar 0
AnchorPoint: "Anchor-5" 1281 0 basechar 0
AnchorPoint: "Anchor-4" 712 0 basechar 0
LayerCount: 2
Fore
SplineSet
426 3190 m 1
 457 3279 l 1
 623 3167 1075 2988 1075 2988 c 1
 1071 2975 l 1
 1071 2975 614 3163 426 3190 c 1
789 2670 m 2
 1174 125 l 2
 1190 22 1255 18 1281 18 c 1
 1281 0 l 1
 936 0 l 1
 936 18 l 1
 954 18 1054 18 1039 117 c 2
 927 874 l 1
 398 874 l 1
 278 99 l 2
 265 13 363 18 381 18 c 1
 381 0 l 1
 130 0 l 1
 130 18 l 1
 202 18 250 40 262 117 c 2
 654 2643 l 1
 650 2670 l 2
 632 2779 569 2782 551 2782 c 1
 551 2800 l 1
 878 2800 l 1
 878 2782 l 1
 824 2782 775 2761 789 2670 c 2
925 892 m 1
 664 2593 l 1
 401 892 l 1
 925 892 l 1
EndSplineSet
Position2: "'cpsp' Capital Spacing in Latin lookup 0 subtable" dx=5 dy=0 dh=10 dv=0
EndChar

StartChar: Amacron
Encoding: 256 256 10
Width: 1411
GlyphClass: 2
Flags: MW
HStem: 0 21G<130 381 130 130 936 1281 936 936> 874 18<401 925 401 927 398 925> 2780 20G<551 878 878 878> 3087 21G<286 286 1137 1137> 3138 20G<286 286 1137 1137>
AnchorPoint: "Anchor-6" 712 2195 basechar 0
AnchorPoint: "Anchor-5" 1281 0 basechar 0
AnchorPoint: "Anchor-4" 712 0 basechar 0
LayerCount: 2
Fore
SplineSet
1137 3158 m 1
 1137 3087 l 1
 712 3100 l 1
 286 3087 l 1
 286 3158 l 1
 712 3145 l 1
 1137 3158 l 1
789 2670 m 2
 1174 125 l 2
 1190 22 1255 18 1281 18 c 1
 1281 0 l 1
 936 0 l 1
 936 18 l 1
 954 18 1054 18 1039 117 c 2
 927 874 l 1
 398 874 l 1
 278 99 l 2
 265 13 363 18 381 18 c 1
 381 0 l 1
 130 0 l 1
 130 18 l 1
 202 18 250 40 262 117 c 2
 654 2643 l 1
 650 2670 l 2
 632 2779 569 2782 551 2782 c 1
 551 2800 l 1
 878 2800 l 1
 878 2782 l 1
 824 2782 775 2761 789 2670 c 2
925 892 m 1
 664 2593 l 1
 401 892 l 1
 925 892 l 1
EndSplineSet
Position2: "'cpsp' Capital Spacing in Latin lookup 0 subtable" dx=5 dy=0 dh=10 dv=0
EndChar

StartChar: Aogonek
Encoding: 260 260 11
Width: 1411
GlyphClass: 2
Flags: MW
HStem: -717 21G<1234.5 1411.5> -710 20G<1241 1404.5> -432 20G<1635 1658 1658 1658> -7 20G 0 21G<130 381 130 130 936 1255 936 936 1281 1281> 874 18<401 925 401 927 398 925> 2780 20G<551 878 878 878>
AnchorPoint: "Anchor-6" 712 2195 basechar 0
AnchorPoint: "Anchor-5" 1281 0 basechar 0
AnchorPoint: "Anchor-4" 712 0 basechar 0
LayerCount: 2
Fore
SplineSet
1635 -412 m 1xb6
 1658 -412 l 1
 1658 -587 1497 -717 1326 -717 c 0
 1143 -717 995 -587 995 -412 c 0
 995 -249 1107 -110 1255 0 c 1
 936 0 l 1
 936 18 l 1
 954 18 1054 18 1039 117 c 2
 927 874 l 1
 398 874 l 1
 278 99 l 2
 265 13 363 18 381 18 c 1
 381 0 l 1
 130 0 l 1
 130 18 l 1
 202 18 250 40 262 117 c 2
 654 2643 l 1
 650 2670 l 2
 632 2779 569 2782 551 2782 c 1
 551 2800 l 1
 878 2800 l 1
 878 2782 l 1
 824 2782 775 2761 789 2670 c 2
 1174 125 l 2
 1190 22 1255 18 1281 18 c 1
 1281 0 l 1xae
 1134 -121 1017 -247 1017 -412 c 0
 1017 -574 1156 -690 1326 -690 c 0x76
 1483 -690 1635 -574 1635 -412 c 1xb6
664 2593 m 1
 401 892 l 1
 925 892 l 1
 664 2593 l 1
EndSplineSet
Position2: "'cpsp' Capital Spacing in Latin lookup 0 subtable" dx=5 dy=0 dh=10 dv=0
EndChar

StartChar: Aring
Encoding: 197 197 12
Width: 1411
GlyphClass: 2
Flags: MW
HStem: 0 21G<130 381 130 130 936 1281 936 936> 874 18<401 925 401 927 398 925> 2780 20G<551 878 878 878> 3024 381<655.5 761>
VStem: 519 381<3162.5 3268>
AnchorPoint: "Anchor-6" 712 2195 basechar 0
AnchorPoint: "Anchor-5" 1281 0 basechar 0
AnchorPoint: "Anchor-4" 712 0 basechar 0
LayerCount: 2
Fore
SplineSet
900 3216 m 0
 900 3109 815 3024 707 3024 c 0
 604 3024 519 3109 519 3216 c 0
 519 3320 604 3405 707 3405 c 0
 815 3405 900 3320 900 3216 c 0
877 3216 m 0
 877 3306 801 3382 707 3382 c 0
 618 3382 541 3306 541 3216 c 0
 541 3122 618 3046 707 3046 c 0
 801 3046 877 3122 877 3216 c 0
789 2670 m 2
 1174 125 l 2
 1190 22 1255 18 1281 18 c 1
 1281 0 l 1
 936 0 l 1
 936 18 l 1
 954 18 1054 18 1039 117 c 2
 927 874 l 1
 398 874 l 1
 278 99 l 2
 265 13 363 18 381 18 c 1
 381 0 l 1
 130 0 l 1
 130 18 l 1
 202 18 250 40 262 117 c 2
 654 2643 l 1
 650 2670 l 2
 632 2779 569 2782 551 2782 c 1
 551 2800 l 1
 878 2800 l 1
 878 2782 l 1
 824 2782 775 2761 789 2670 c 2
925 892 m 1
 664 2593 l 1
 401 892 l 1
 925 892 l 1
EndSplineSet
Position2: "'cpsp' Capital Spacing in Latin lookup 0 subtable" dx=5 dy=0 dh=10 dv=0
EndChar

StartChar: Atilde
Encoding: 195 195 13
Width: 1411
GlyphClass: 2
Flags: MW
HStem: 0 21G<130 381 130 130 936 1281 936 936> 874 18<401 925 401 927 398 925> 2780 20G<551 878 878 878> 2979 264<300 526 300 526>
AnchorPoint: "Anchor-6" 712 2195 basechar 0
AnchorPoint: "Anchor-5" 1281 0 basechar 0
AnchorPoint: "Anchor-4" 712 0 basechar 0
LayerCount: 2
Fore
SplineSet
318 2979 m 1
 300 2979 l 1
 292 3002 286 3026 286 3055 c 0
 286 3172 353 3243 479 3243 c 0
 573 3243 680 3190 766 3136 c 0
 864 3078 936 3019 1034 3019 c 0
 1106 3019 1178 3078 1178 3172 c 0
 1178 3199 1172 3223 1164 3243 c 1
 1182 3243 l 1
 1187 3230 1196 3199 1196 3167 c 0
 1196 3046 1125 2979 998 2979 c 0
 898 2979 797 3037 716 3091 c 0
 586 3172 528 3203 448 3203 c 0
 376 3203 304 3145 304 3051 c 0
 304 3023 311 2996 318 2979 c 1
789 2670 m 2
 1174 125 l 2
 1190 22 1255 18 1281 18 c 1
 1281 0 l 1
 936 0 l 1
 936 18 l 1
 954 18 1054 18 1039 117 c 2
 927 874 l 1
 398 874 l 1
 278 99 l 2
 265 13 363 18 381 18 c 1
 381 0 l 1
 130 0 l 1
 130 18 l 1
 202 18 250 40 262 117 c 2
 654 2643 l 1
 650 2670 l 2
 632 2779 569 2782 551 2782 c 1
 551 2800 l 1
 878 2800 l 1
 878 2782 l 1
 824 2782 775 2761 789 2670 c 2
925 892 m 1
 664 2593 l 1
 401 892 l 1
 925 892 l 1
EndSplineSet
Position2: "'cpsp' Capital Spacing in Latin lookup 0 subtable" dx=5 dy=0 dh=10 dv=0
EndChar

StartChar: AE
Encoding: 198 198 14
Width: 2288
GlyphClass: 2
Flags: MW
HStem: 0 18<134 174 376 385 134 174 1124 1166.5 1500 1921 1921 1996.5> 874 18<600 1249 600 1249 591 1249> 1389 18<1384 1505 1384 1505> 2782 18<1124 1166.5 1484.5 1500 1500 1921>
VStem: 1249 135<134 874 874 874 892 1389 1407 2563 2563 2563 2612 2666>
AnchorPoint: "Anchor-6" 1317 2800 basechar 0
AnchorPoint: "Anchor-4" 1137 0 basechar 0
LayerCount: 2
Fore
SplineSet
1921 2782 m 2
 1500 2782 l 2
 1469 2782 1384 2769 1384 2666 c 2
 1384 1407 l 1
 1505 1407 l 2
 1644 1407 1720 1514 1720 1667 c 1
 1738 1667 l 1
 1738 1133 l 1
 1720 1133 l 1
 1720 1286 1644 1389 1505 1389 c 2
 1384 1389 l 1
 1384 130 l 2
 1384 36 1469 18 1500 18 c 2
 1921 18 l 2
 2072 18 2124 139 2136 278 c 1
 2154 278 l 1
 2154 0 l 1
 1124 0 l 1
 1124 18 l 1
 1209 18 1249 40 1249 134 c 2
 1249 874 l 1
 591 874 l 1
 295 112 l 2
 259 18 367 18 385 18 c 1
 385 0 l 1
 134 0 l 1
 134 18 l 1
 214 18 246 40 277 117 c 2
 1249 2612 l 1
 1249 2666 l 2
 1249 2760 1209 2782 1124 2782 c 1
 1124 2800 l 1
 2154 2800 l 1
 2154 2522 l 1
 2136 2522 l 1
 2136 2678 2062 2782 1921 2782 c 2
1249 892 m 1
 1249 2563 l 1
 600 892 l 1
 1249 892 l 1
EndSplineSet
Position2: "'cpsp' Capital Spacing in Latin lookup 0 subtable" dx=5 dy=0 dh=10 dv=0
EndChar

StartChar: AEacute
Encoding: 508 508 15
Width: 2288
GlyphClass: 2
Flags: MW
HStem: 0 18<134 174 376 385 134 174 1124 1166.5 1500 1921 1921 1996.5> 874 18<600 1249 600 1249 591 1249> 1389 18<1384 1505 1384 1505> 2782 18<1124 1166.5 1484.5 1500 1500 1921> 3020 21G<1399 1399> 3304 20G<2013 2013>
VStem: 1249 135<134 874 874 874 892 1389 1407 2563 2563 2563 2612 2666>
AnchorPoint: "Anchor-6" 1312 2800 basechar 0
AnchorPoint: "Anchor-4" 1133 0 basechar 0
LayerCount: 2
Fore
SplineSet
2013 3324 m 1
 2044 3235 l 1
 1856 3208 1399 3020 1399 3020 c 1
 1395 3033 l 1
 1395 3033 1847 3212 2013 3324 c 1
1921 2782 m 2
 1500 2782 l 2
 1469 2782 1384 2769 1384 2666 c 2
 1384 1407 l 1
 1505 1407 l 2
 1644 1407 1720 1514 1720 1667 c 1
 1738 1667 l 1
 1738 1133 l 1
 1720 1133 l 1
 1720 1286 1644 1389 1505 1389 c 2
 1384 1389 l 1
 1384 130 l 2
 1384 36 1469 18 1500 18 c 2
 1921 18 l 2
 2072 18 2124 139 2136 278 c 1
 2154 278 l 1
 2154 0 l 1
 1124 0 l 1
 1124 18 l 1
 1209 18 1249 40 1249 134 c 2
 1249 874 l 1
 591 874 l 1
 295 112 l 2
 259 18 367 18 385 18 c 1
 385 0 l 1
 134 0 l 1
 134 18 l 1
 214 18 246 40 277 117 c 2
 1249 2612 l 1
 1249 2666 l 2
 1249 2760 1209 2782 1124 2782 c 1
 1124 2800 l 1
 2154 2800 l 1
 2154 2522 l 1
 2136 2522 l 1
 2136 2678 2062 2782 1921 2782 c 2
1249 892 m 1
 1249 2563 l 1
 600 892 l 1
 1249 892 l 1
EndSplineSet
Position2: "'cpsp' Capital Spacing in Latin lookup 0 subtable" dx=5 dy=0 dh=10 dv=0
EndChar

StartChar: B
Encoding: 66 66 16
Width: 2097
GlyphClass: 2
Flags: MW
HStem: 0 18<179 188 556 1071 1071 1080 179 188> 1622 18<435 905 905 1041.5 1048 1071 435 905> 2782 18<179 188 535.5 551 551 901>
VStem: 300 135<130 1622 1640 2666> 1393 112<2074 2370> 1761 156<600.5 1041.5>
AnchorPoint: "Anchor-6" 1048 2800 basechar 0
AnchorPoint: "Anchor-4" 1048 0 basechar 0
LayerCount: 2
Fore
SplineSet
1048 1640 m 1
 1080 1640 l 2
 1541 1640 1917 1277 1917 820 c 0
 1917 367 1541 0 1080 0 c 2
 179 0 l 1
 179 18 l 1
 197 18 300 18 300 130 c 2
 300 2666 l 2
 300 2778 197 2782 179 2782 c 1
 179 2800 l 1
 905 2800 l 2
 1237 2800 1505 2536 1505 2213 c 0
 1505 1935 1313 1702 1048 1640 c 1
1393 2213 m 0
 1393 2527 1174 2782 901 2782 c 2
 551 2782 l 2
 520 2782 435 2769 435 2666 c 2
 435 1640 l 1
 905 1640 l 2
 1178 1640 1393 1900 1393 2213 c 0
556 18 m 2
 1071 18 l 2
 1452 18 1761 381 1761 820 c 0
 1761 1263 1452 1622 1071 1622 c 2
 435 1622 l 1
 435 130 l 2
 435 27 529 18 556 18 c 2
EndSplineSet
Position2: "'cpsp' Capital Spacing in Latin lookup 0 subtable" dx=5 dy=0 dh=10 dv=0
EndChar

StartChar: C
Encoding: 67 67 17
Width: 3038
GlyphClass: 2
Flags: MW
HStem: -13 80<1303.5 1881.5> 2733 80<1180.5 1729.5>
VStem: 157 80<1132.5 1789.5>
AnchorPoint: "Anchor-6" 1532 2195 basechar 0
AnchorPoint: "Anchor-4" 1568 0 basechar 0
LayerCount: 2
Fore
SplineSet
2890 1917 m 1
 2751 1917 l 1
 2504 2392 2007 2733 1452 2733 c 0
 762 2733 237 2212 237 1518 c 0
 237 747 914 67 1693 67 c 0
 2253 67 2706 417 2854 918 c 1
 2903 918 l 1
 2706 376 2186 -13 1577 -13 c 0
 780 -13 157 632 157 1402 c 0
 157 2177 793 2813 1568 2813 c 0
 2177 2813 2684 2437 2890 1917 c 1
EndSplineSet
Position2: "'cpsp' Capital Spacing in Latin lookup 0 subtable" dx=5 dy=0 dh=10 dv=0
EndChar

StartChar: Cacute
Encoding: 262 262 18
Width: 3038
GlyphClass: 2
Flags: MW
HStem: -13 80<1303.5 1881.5> 2733 80<1180.5 1729.5> 2975 21G<1254 1254> 3259 20G<1868 1868>
VStem: 157 80<1132.5 1789.5>
AnchorPoint: "Anchor-6" 1532 2195 basechar 0
AnchorPoint: "Anchor-4" 1568 0 basechar 0
LayerCount: 2
Fore
SplineSet
1868 3279 m 1
 1899 3190 l 1
 1711 3163 1254 2975 1254 2975 c 1
 1250 2988 l 1
 1250 2988 1702 3167 1868 3279 c 1
2890 1917 m 1
 2751 1917 l 1
 2504 2392 2007 2733 1452 2733 c 0
 762 2733 237 2212 237 1518 c 0
 237 747 914 67 1693 67 c 0
 2253 67 2706 417 2854 918 c 1
 2903 918 l 1
 2706 376 2186 -13 1577 -13 c 0
 780 -13 157 632 157 1402 c 0
 157 2177 793 2813 1568 2813 c 0
 2177 2813 2684 2437 2890 1917 c 1
EndSplineSet
Position2: "'cpsp' Capital Spacing in Latin lookup 0 subtable" dx=5 dy=0 dh=10 dv=0
EndChar

StartChar: Ccaron
Encoding: 268 268 19
Width: 3038
GlyphClass: 2
Flags: MW
HStem: -13 80<1303.5 1881.5> 2733 80<1180.5 1729.5> 2916 21G 3277 20G<1102 1102 1962 1962>
VStem: 157 80<1132.5 1789.5>
AnchorPoint: "Anchor-6" 1532 2195 basechar 0
AnchorPoint: "Anchor-4" 1568 0 basechar 0
LayerCount: 2
Fore
SplineSet
1532 2916 m 1
 1412 3024 1201 3198 1093 3284 c 1
 1102 3297 l 1
 1201 3221 1385 3086 1532 3019 c 1
 1679 3086 1863 3221 1962 3297 c 1
 1971 3284 l 1
 1863 3198 1652 3024 1532 2916 c 1
2890 1917 m 1
 2751 1917 l 1
 2504 2392 2007 2733 1452 2733 c 0
 762 2733 237 2212 237 1518 c 0
 237 747 914 67 1693 67 c 0
 2253 67 2706 417 2854 918 c 1
 2903 918 l 1
 2706 376 2186 -13 1577 -13 c 0
 780 -13 157 632 157 1402 c 0
 157 2177 793 2813 1568 2813 c 0
 2177 2813 2684 2437 2890 1917 c 1
EndSplineSet
Position2: "'cpsp' Capital Spacing in Latin lookup 0 subtable" dx=5 dy=0 dh=10 dv=0
EndChar

StartChar: Ccedilla
Encoding: 199 199 20
Width: 3038
GlyphClass: 2
Flags: MW
HStem: -767 21G<1457.5 1654.5> -764 20G<1466.5 1650> -464 20G<1222 1245 1245 1245> -168 20G<1527 1576 1527 1527> -20 20G -13 80<1555 1555 1578 1578> 2733 80<1180.5 1729.5>
VStem: 157 80<1132.5 1789.5>
AnchorPoint: "Anchor-6" 1532 2195 basechar 0
AnchorPoint: "Anchor-4" 1464 -896 basechar 0
LayerCount: 2
Fore
SplineSet
2854 918 m 1xbb
 2903 918 l 1
 2706 376 2187 -12 1578 -13 c 1xb7
 1554 -126 l 1
 1576 -126 l 2
 1747 -126 1885 -265 1885 -440 c 0
 1885 -610 1760 -767 1549 -767 c 0xbb
 1366 -767 1227 -610 1222 -444 c 1
 1245 -444 l 1
 1249 -592 1384 -744 1549 -744 c 0x7b
 1751 -744 1863 -583 1863 -440 c 0
 1863 -278 1733 -148 1576 -148 c 2
 1527 -148 l 1
 1555 -13 l 1
 769 -1 157 639 157 1402 c 0
 157 2177 793 2813 1568 2813 c 0
 2177 2813 2684 2437 2890 1917 c 1
 2751 1917 l 1
 2504 2392 2007 2733 1452 2733 c 0
 762 2733 237 2212 237 1518 c 0
 237 747 914 67 1693 67 c 0xb7
 2253 67 2706 417 2854 918 c 1xbb
EndSplineSet
Position2: "'cpsp' Capital Spacing in Latin lookup 0 subtable" dx=5 dy=0 dh=10 dv=0
EndChar

StartChar: Cdotaccent
Encoding: 266 266 21
Width: 3038
GlyphClass: 2
Flags: MW
HStem: -13 80<1303.5 1881.5> 2733 80<1180.5 1729.5> 3051 21G<1505 1559> 3219 20G<1505 1559>
VStem: 157 80<1132.5 1789.5> 1438 188<3118 3172>
AnchorPoint: "Anchor-6" 1532 2195 basechar 0
AnchorPoint: "Anchor-4" 1568 0 basechar 0
LayerCount: 2
Fore
SplineSet
1532 3051 m 0
 1478 3051 1438 3091 1438 3145 c 0
 1438 3199 1478 3239 1532 3239 c 0
 1586 3239 1626 3199 1626 3145 c 0
 1626 3091 1586 3051 1532 3051 c 0
2890 1917 m 1
 2751 1917 l 1
 2504 2392 2007 2733 1452 2733 c 0
 762 2733 237 2212 237 1518 c 0
 237 747 914 67 1693 67 c 0
 2253 67 2706 417 2854 918 c 1
 2903 918 l 1
 2706 376 2186 -13 1577 -13 c 0
 780 -13 157 632 157 1402 c 0
 157 2177 793 2813 1568 2813 c 0
 2177 2813 2684 2437 2890 1917 c 1
EndSplineSet
Position2: "'cpsp' Capital Spacing in Latin lookup 0 subtable" dx=5 dy=0 dh=10 dv=0
EndChar

StartChar: D
Encoding: 68 68 22
Width: 2169
GlyphClass: 2
Flags: MW
HStem: 0 18<179 219.5 543 637 179 219.5> 2782 18<179 219.5 554.5 561 561 637 637 660>
VStem: 305 135<125 2666> 1892 143<1026 1767.5>
AnchorPoint: "Anchor-7" 445 1389 basechar 0
AnchorPoint: "Anchor-6" 830 2195 basechar 0
AnchorPoint: "Anchor-4" 1099 0 basechar 0
LayerCount: 2
Fore
SplineSet
637 0 m 2
 179 0 l 1
 179 18 l 1
 260 18 305 40 305 125 c 2
 305 2666 l 2
 305 2760 260 2782 179 2782 c 1
 179 2800 l 1
 637 2800 l 2
 1417 2800 2035 2177 2035 1398 c 0
 2035 623 1417 0 637 0 c 2
543 18 m 2
 660 18 l 2
 1327 18 1892 654 1892 1398 c 0
 1892 2137 1345 2782 660 2782 c 2
 561 2782 l 2
 548 2782 440 2769 440 2666 c 2
 440 125 l 2
 440 36 507 18 543 18 c 2
EndSplineSet
Position2: "'cpsp' Capital Spacing in Latin lookup 0 subtable" dx=5 dy=0 dh=10 dv=0
EndChar

StartChar: Eth
Encoding: 208 208 23
Width: 2316
Flags: MW
HStem: 0 18<326 366.5 690 784 326 366.5> 1389 18<66 452 66 452 587 972> 2782 18<326 366.5 701 708 708 784 784 806>
VStem: 452 135<125 1389 1407 2666> 2038 144<1026 1767.5>
LayerCount: 2
Fore
SplineSet
326 2782 m 1
 326 2800 l 1
 784 2800 l 2
 1564 2800 2182 2177 2182 1398 c 0
 2182 623 1564 0 784 0 c 2
 326 0 l 1
 326 18 l 1
 407 18 452 40 452 125 c 2
 452 1389 l 1
 66 1389 l 1
 66 1407 l 1
 452 1407 l 1
 452 2666 l 2
 452 2760 407 2782 326 2782 c 1
690 18 m 2
 806 18 l 2
 1474 18 2038 654 2038 1398 c 0
 2038 2137 1492 2782 806 2782 c 2
 708 2782 l 2
 694 2782 587 2769 587 2666 c 2
 587 1407 l 1
 972 1407 l 1
 972 1389 l 1
 587 1389 l 1
 587 125 l 2
 587 36 654 18 690 18 c 2
EndSplineSet
Position2: "'cpsp' Capital Spacing in Latin lookup 0 subtable" dx=5 dy=0 dh=10 dv=0
EndChar

StartChar: Dcaron
Encoding: 270 270 24
Width: 2169
GlyphClass: 2
Flags: MW
HStem: 0 18<179 219.5 543 637 179 219.5> 2782 18<179 219.5 554.5 561 561 637 637 660> 2916 21G 3277 20G<400 400 1260 1260>
VStem: 305 135<125 2666> 1892 143<1026 1767.5>
AnchorPoint: "Anchor-7" 445 1389 basechar 0
AnchorPoint: "Anchor-6" 830 2195 basechar 0
AnchorPoint: "Anchor-4" 1099 0 basechar 0
LayerCount: 2
Fore
SplineSet
830 2916 m 1
 710 3024 499 3198 391 3284 c 1
 400 3297 l 1
 499 3221 683 3086 830 3019 c 1
 977 3086 1161 3221 1260 3297 c 1
 1269 3284 l 1
 1161 3198 950 3024 830 2916 c 1
637 0 m 2
 179 0 l 1
 179 18 l 1
 260 18 305 40 305 125 c 2
 305 2666 l 2
 305 2760 260 2782 179 2782 c 1
 179 2800 l 1
 637 2800 l 2
 1417 2800 2035 2177 2035 1398 c 0
 2035 623 1417 0 637 0 c 2
543 18 m 2
 660 18 l 2
 1327 18 1892 654 1892 1398 c 0
 1892 2137 1345 2782 660 2782 c 2
 561 2782 l 2
 548 2782 440 2769 440 2666 c 2
 440 125 l 2
 440 36 507 18 543 18 c 2
EndSplineSet
Position2: "'cpsp' Capital Spacing in Latin lookup 0 subtable" dx=5 dy=0 dh=10 dv=0
EndChar

StartChar: Dcroat
Encoding: 272 272 25
Width: 2316
Flags: MW
HStem: 0 18<326 366.5 690 784 326 366.5> 1389 18<66 452 66 452 587 972> 2782 18<326 366.5 701 708 708 784 784 806>
VStem: 452 135<125 1389 1407 2666> 2038 144<1026 1767.5>
LayerCount: 2
Fore
SplineSet
326 2782 m 1
 326 2800 l 1
 784 2800 l 2
 1564 2800 2182 2177 2182 1398 c 0
 2182 623 1564 0 784 0 c 2
 326 0 l 1
 326 18 l 1
 407 18 452 40 452 125 c 2
 452 1389 l 1
 66 1389 l 1
 66 1407 l 1
 452 1407 l 1
 452 2666 l 2
 452 2760 407 2782 326 2782 c 1
690 18 m 2
 806 18 l 2
 1474 18 2038 654 2038 1398 c 0
 2038 2137 1492 2782 806 2782 c 2
 708 2782 l 2
 694 2782 587 2769 587 2666 c 2
 587 1407 l 1
 972 1407 l 1
 972 1389 l 1
 587 1389 l 1
 587 125 l 2
 587 36 654 18 690 18 c 2
EndSplineSet
Position2: "'cpsp' Capital Spacing in Latin lookup 0 subtable" dx=5 dy=0 dh=10 dv=0
EndChar

StartChar: E
Encoding: 69 69 26
Width: 1345
GlyphClass: 2
Flags: MW
HStem: 0 18<179 221.5 557 978 978 1053.5 179 221.5> 1389 18<440 561 440 561> 2782 18<179 221.5 541 557 557 978>
VStem: 305 135<134 1389 1407 2666>
AnchorPoint: "Anchor-6" 695 2195 basechar 0
AnchorPoint: "Anchor-5" 1211 0 basechar 0
AnchorPoint: "Anchor-4" 695 0 basechar 0
LayerCount: 2
Fore
SplineSet
1211 278 m 1
 1211 0 l 1
 179 0 l 1
 179 18 l 1
 264 18 305 40 305 134 c 2
 305 2666 l 2
 305 2760 264 2782 179 2782 c 1
 179 2800 l 1
 1211 2800 l 1
 1211 2522 l 1
 1193 2522 l 1
 1193 2678 1118 2782 978 2782 c 2
 557 2782 l 2
 525 2782 440 2769 440 2666 c 2
 440 1407 l 1
 561 1407 l 2
 700 1407 776 1514 776 1667 c 1
 794 1667 l 1
 794 1133 l 1
 776 1133 l 1
 776 1286 700 1389 561 1389 c 2
 440 1389 l 1
 440 130 l 2
 440 36 525 18 557 18 c 2
 978 18 l 2
 1129 18 1181 139 1193 278 c 1
 1211 278 l 1
EndSplineSet
Position2: "'cpsp' Capital Spacing in Latin lookup 0 subtable" dx=5 dy=0 dh=10 dv=0
EndChar

StartChar: Eacute
Encoding: 201 201 27
Width: 1345
GlyphClass: 2
Flags: MW
HStem: 0 18<179 221.5 557 978 978 1053.5 179 221.5> 1389 18<440 561 440 561> 2782 18<179 221.5 541 557 557 978> 2975 21G<417 417> 3259 20G<1031 1031>
VStem: 305 135<134 1389 1407 2666>
AnchorPoint: "Anchor-6" 695 2195 basechar 0
AnchorPoint: "Anchor-5" 1211 0 basechar 0
AnchorPoint: "Anchor-4" 695 0 basechar 0
LayerCount: 2
Fore
SplineSet
1031 3279 m 1
 1062 3190 l 1
 874 3163 417 2975 417 2975 c 1
 413 2988 l 1
 413 2988 865 3167 1031 3279 c 1
1211 278 m 1
 1211 0 l 1
 179 0 l 1
 179 18 l 1
 264 18 305 40 305 134 c 2
 305 2666 l 2
 305 2760 264 2782 179 2782 c 1
 179 2800 l 1
 1211 2800 l 1
 1211 2522 l 1
 1193 2522 l 1
 1193 2678 1118 2782 978 2782 c 2
 557 2782 l 2
 525 2782 440 2769 440 2666 c 2
 440 1407 l 1
 561 1407 l 2
 700 1407 776 1514 776 1667 c 1
 794 1667 l 1
 794 1133 l 1
 776 1133 l 1
 776 1286 700 1389 561 1389 c 2
 440 1389 l 1
 440 130 l 2
 440 36 525 18 557 18 c 2
 978 18 l 2
 1129 18 1181 139 1193 278 c 1
 1211 278 l 1
EndSplineSet
Position2: "'cpsp' Capital Spacing in Latin lookup 0 subtable" dx=5 dy=0 dh=10 dv=0
EndChar

StartChar: Ebreve
Encoding: 276 276 28
Width: 1345
GlyphClass: 2
Flags: MW
HStem: 0 18<179 221.5 557 978 978 1053.5 179 221.5> 1389 18<440 561 440 561> 2782 18<179 221.5 541 557 557 978> 3087 21G<618 815.5> 3376 20G<237 318 318 318 1133 1151 1151 1151>
VStem: 305 135<134 1389 1407 2666>
AnchorPoint: "Anchor-6" 699 2195 basechar 0
AnchorPoint: "Anchor-5" 1211 0 basechar 0
AnchorPoint: "Anchor-4" 695 0 basechar 0
LayerCount: 2
Fore
SplineSet
717 3087 m 0
 519 3087 309 3208 237 3396 c 1
 318 3396 l 1
 403 3234 582 3131 739 3131 c 0
 918 3131 1079 3234 1133 3396 c 1
 1151 3396 l 1
 1079 3194 914 3087 717 3087 c 0
1211 278 m 1
 1211 0 l 1
 179 0 l 1
 179 18 l 1
 264 18 305 40 305 134 c 2
 305 2666 l 2
 305 2760 264 2782 179 2782 c 1
 179 2800 l 1
 1211 2800 l 1
 1211 2522 l 1
 1193 2522 l 1
 1193 2678 1118 2782 978 2782 c 2
 557 2782 l 2
 525 2782 440 2769 440 2666 c 2
 440 1407 l 1
 561 1407 l 2
 700 1407 776 1514 776 1667 c 1
 794 1667 l 1
 794 1133 l 1
 776 1133 l 1
 776 1286 700 1389 561 1389 c 2
 440 1389 l 1
 440 130 l 2
 440 36 525 18 557 18 c 2
 978 18 l 2
 1129 18 1181 139 1193 278 c 1
 1211 278 l 1
EndSplineSet
Position2: "'cpsp' Capital Spacing in Latin lookup 0 subtable" dx=5 dy=0 dh=10 dv=0
EndChar

StartChar: Ecaron
Encoding: 282 282 29
Width: 1345
GlyphClass: 2
Flags: MW
HStem: 0 18<179 221.5 557 978 978 1053.5 179 221.5> 1389 18<440 561 440 561> 2782 18<179 221.5 541 557 557 978> 2916 21G 3277 20G<265 265 1125 1125>
VStem: 305 135<134 1389 1407 2666>
AnchorPoint: "Anchor-6" 695 2195 basechar 0
AnchorPoint: "Anchor-5" 1211 0 basechar 0
AnchorPoint: "Anchor-4" 695 0 basechar 0
LayerCount: 2
Fore
SplineSet
695 2916 m 1
 575 3024 364 3198 256 3284 c 1
 265 3297 l 1
 364 3221 548 3086 695 3019 c 1
 842 3086 1026 3221 1125 3297 c 1
 1134 3284 l 1
 1026 3198 815 3024 695 2916 c 1
1211 278 m 1
 1211 0 l 1
 179 0 l 1
 179 18 l 1
 264 18 305 40 305 134 c 2
 305 2666 l 2
 305 2760 264 2782 179 2782 c 1
 179 2800 l 1
 1211 2800 l 1
 1211 2522 l 1
 1193 2522 l 1
 1193 2678 1118 2782 978 2782 c 2
 557 2782 l 2
 525 2782 440 2769 440 2666 c 2
 440 1407 l 1
 561 1407 l 2
 700 1407 776 1514 776 1667 c 1
 794 1667 l 1
 794 1133 l 1
 776 1133 l 1
 776 1286 700 1389 561 1389 c 2
 440 1389 l 1
 440 130 l 2
 440 36 525 18 557 18 c 2
 978 18 l 2
 1129 18 1181 139 1193 278 c 1
 1211 278 l 1
EndSplineSet
Position2: "'cpsp' Capital Spacing in Latin lookup 0 subtable" dx=5 dy=0 dh=10 dv=0
EndChar

StartChar: Ecircumflex
Encoding: 202 202 30
Width: 1345
GlyphClass: 2
Flags: MW
HStem: 0 18<179 221.5 557 978 978 1053.5 179 221.5> 1389 18<440 561 440 561> 2782 18<179 221.5 541 557 557 978> 2988 21G<265 265 1125 1125> 3349 20G
VStem: 305 135<134 1389 1407 2666>
AnchorPoint: "Anchor-6" 695 2195 basechar 0
AnchorPoint: "Anchor-5" 1211 0 basechar 0
AnchorPoint: "Anchor-4" 695 0 basechar 0
LayerCount: 2
Fore
SplineSet
695 3369 m 1
 815 3261 1026 3087 1134 3001 c 1
 1125 2988 l 1
 1026 3064 842 3199 695 3266 c 1
 548 3199 364 3064 265 2988 c 1
 256 3001 l 1
 364 3087 575 3261 695 3369 c 1
1211 278 m 1
 1211 0 l 1
 179 0 l 1
 179 18 l 1
 264 18 305 40 305 134 c 2
 305 2666 l 2
 305 2760 264 2782 179 2782 c 1
 179 2800 l 1
 1211 2800 l 1
 1211 2522 l 1
 1193 2522 l 1
 1193 2678 1118 2782 978 2782 c 2
 557 2782 l 2
 525 2782 440 2769 440 2666 c 2
 440 1407 l 1
 561 1407 l 2
 700 1407 776 1514 776 1667 c 1
 794 1667 l 1
 794 1133 l 1
 776 1133 l 1
 776 1286 700 1389 561 1389 c 2
 440 1389 l 1
 440 130 l 2
 440 36 525 18 557 18 c 2
 978 18 l 2
 1129 18 1181 139 1193 278 c 1
 1211 278 l 1
EndSplineSet
Position2: "'cpsp' Capital Spacing in Latin lookup 0 subtable" dx=5 dy=0 dh=10 dv=0
EndChar

StartChar: Edieresis
Encoding: 203 203 31
Width: 1345
GlyphClass: 2
Flags: MW
HStem: 0 18<179 221.5 557 978 978 1053.5 179 221.5> 1389 18<440 561 440 561> 2782 18<179 221.5 541 557 557 978> 3042 116<544 576 813 845>
VStem: 305 135<134 1389 1407 2666>
AnchorPoint: "Anchor-6" 695 2200 basechar 0
AnchorPoint: "Anchor-5" 1211 0 basechar 0
AnchorPoint: "Anchor-4" 695 0 basechar 0
LayerCount: 2
Fore
SplineSet
502 3100 m 0
 502 3132 528 3158 560 3158 c 0
 592 3158 618 3132 618 3100 c 0
 618 3068 592 3042 560 3042 c 0
 528 3042 502 3068 502 3100 c 0
771 3100 m 0
 771 3132 797 3158 829 3158 c 0
 861 3158 887 3132 887 3100 c 0
 887 3068 861 3042 829 3042 c 0
 797 3042 771 3068 771 3100 c 0
1211 278 m 1
 1211 0 l 1
 179 0 l 1
 179 18 l 1
 264 18 305 40 305 134 c 2
 305 2666 l 2
 305 2760 264 2782 179 2782 c 1
 179 2800 l 1
 1211 2800 l 1
 1211 2522 l 1
 1193 2522 l 1
 1193 2678 1118 2782 978 2782 c 2
 557 2782 l 2
 525 2782 440 2769 440 2666 c 2
 440 1407 l 1
 561 1407 l 2
 700 1407 776 1514 776 1667 c 1
 794 1667 l 1
 794 1133 l 1
 776 1133 l 1
 776 1286 700 1389 561 1389 c 2
 440 1389 l 1
 440 130 l 2
 440 36 525 18 557 18 c 2
 978 18 l 2
 1129 18 1181 139 1193 278 c 1
 1211 278 l 1
EndSplineSet
Position2: "'cpsp' Capital Spacing in Latin lookup 0 subtable" dx=5 dy=0 dh=10 dv=0
EndChar

StartChar: Edotaccent
Encoding: 278 278 32
Width: 1345
GlyphClass: 2
Flags: MW
HStem: 0 18<179 221.5 557 978 978 1053.5 179 221.5> 1389 18<440 561 440 561> 2782 18<179 221.5 541 557 557 978> 3051 21G<668 722> 3219 20G<668 722>
VStem: 305 135<134 1389 1407 2666> 601 188<3118 3172>
AnchorPoint: "Anchor-6" 695 2195 basechar 0
AnchorPoint: "Anchor-5" 1211 0 basechar 0
AnchorPoint: "Anchor-4" 695 0 basechar 0
LayerCount: 2
Fore
SplineSet
695 3051 m 0
 641 3051 601 3091 601 3145 c 0
 601 3199 641 3239 695 3239 c 0
 749 3239 789 3199 789 3145 c 0
 789 3091 749 3051 695 3051 c 0
1211 278 m 1
 1211 0 l 1
 179 0 l 1
 179 18 l 1
 264 18 305 40 305 134 c 2
 305 2666 l 2
 305 2760 264 2782 179 2782 c 1
 179 2800 l 1
 1211 2800 l 1
 1211 2522 l 1
 1193 2522 l 1
 1193 2678 1118 2782 978 2782 c 2
 557 2782 l 2
 525 2782 440 2769 440 2666 c 2
 440 1407 l 1
 561 1407 l 2
 700 1407 776 1514 776 1667 c 1
 794 1667 l 1
 794 1133 l 1
 776 1133 l 1
 776 1286 700 1389 561 1389 c 2
 440 1389 l 1
 440 130 l 2
 440 36 525 18 557 18 c 2
 978 18 l 2
 1129 18 1181 139 1193 278 c 1
 1211 278 l 1
EndSplineSet
Position2: "'cpsp' Capital Spacing in Latin lookup 0 subtable" dx=5 dy=0 dh=10 dv=0
EndChar

StartChar: Egrave
Encoding: 200 200 33
Width: 1345
GlyphClass: 2
Flags: MW
HStem: 0 18<179 221.5 557 978 978 1053.5 179 221.5> 1389 18<440 561 440 561> 2782 18<179 221.5 541 557 557 978> 2975 21G<1054 1054> 3259 20G<440 440>
VStem: 305 135<134 1389 1407 2666>
AnchorPoint: "Anchor-6" 695 2195 basechar 0
AnchorPoint: "Anchor-5" 1211 0 basechar 0
AnchorPoint: "Anchor-4" 695 0 basechar 0
LayerCount: 2
Fore
SplineSet
409 3190 m 1
 440 3279 l 1
 606 3167 1058 2988 1058 2988 c 1
 1054 2975 l 1
 1054 2975 597 3163 409 3190 c 1
1211 278 m 1
 1211 0 l 1
 179 0 l 1
 179 18 l 1
 264 18 305 40 305 134 c 2
 305 2666 l 2
 305 2760 264 2782 179 2782 c 1
 179 2800 l 1
 1211 2800 l 1
 1211 2522 l 1
 1193 2522 l 1
 1193 2678 1118 2782 978 2782 c 2
 557 2782 l 2
 525 2782 440 2769 440 2666 c 2
 440 1407 l 1
 561 1407 l 2
 700 1407 776 1514 776 1667 c 1
 794 1667 l 1
 794 1133 l 1
 776 1133 l 1
 776 1286 700 1389 561 1389 c 2
 440 1389 l 1
 440 130 l 2
 440 36 525 18 557 18 c 2
 978 18 l 2
 1129 18 1181 139 1193 278 c 1
 1211 278 l 1
EndSplineSet
Position2: "'cpsp' Capital Spacing in Latin lookup 0 subtable" dx=5 dy=0 dh=10 dv=0
EndChar

StartChar: Emacron
Encoding: 274 274 34
Width: 1345
GlyphClass: 2
Flags: MW
HStem: 0 18<179 221.5 557 978 978 1053.5 179 221.5> 1389 18<440 561 440 561> 2782 18<179 221.5 541 557 557 978> 3087 21G<269 269 1120 1120> 3138 20G<269 269 1120 1120>
VStem: 305 135<134 1389 1407 2666>
AnchorPoint: "Anchor-6" 695 2195 basechar 0
AnchorPoint: "Anchor-5" 1211 0 basechar 0
AnchorPoint: "Anchor-4" 695 0 basechar 0
LayerCount: 2
Fore
SplineSet
1120 3158 m 1
 1120 3087 l 1
 695 3100 l 1
 269 3087 l 1
 269 3158 l 1
 695 3145 l 1
 1120 3158 l 1
1211 278 m 1
 1211 0 l 1
 179 0 l 1
 179 18 l 1
 264 18 305 40 305 134 c 2
 305 2666 l 2
 305 2760 264 2782 179 2782 c 1
 179 2800 l 1
 1211 2800 l 1
 1211 2522 l 1
 1193 2522 l 1
 1193 2678 1118 2782 978 2782 c 2
 557 2782 l 2
 525 2782 440 2769 440 2666 c 2
 440 1407 l 1
 561 1407 l 2
 700 1407 776 1514 776 1667 c 1
 794 1667 l 1
 794 1133 l 1
 776 1133 l 1
 776 1286 700 1389 561 1389 c 2
 440 1389 l 1
 440 130 l 2
 440 36 525 18 557 18 c 2
 978 18 l 2
 1129 18 1181 139 1193 278 c 1
 1211 278 l 1
EndSplineSet
Position2: "'cpsp' Capital Spacing in Latin lookup 0 subtable" dx=5 dy=0 dh=10 dv=0
EndChar

StartChar: Eogonek
Encoding: 280 280 35
Width: 1345
GlyphClass: 2
Flags: MW
HStem: -717 21G<1164.5 1341.5> -710 20G<1171 1334.5> -432 20G<1565 1588 1588 1588> -7 20G 0 18<179 221.5 557 978 978 1053.5 179 221.5> 1389 18<440 561 440 561> 2782 18<179 221.5 541 557 557 978>
VStem: 305 135<134 1389 1407 2666>
AnchorPoint: "Anchor-6" 695 2195 basechar 0
AnchorPoint: "Anchor-5" 1211 0 basechar 0
AnchorPoint: "Anchor-4" 695 0 basechar 0
LayerCount: 2
Fore
SplineSet
1565 -412 m 1xb7
 1588 -412 l 1
 1588 -587 1427 -717 1256 -717 c 0
 1073 -717 925 -587 925 -412 c 0
 925 -249 1037 -110 1185 0 c 1
 179 0 l 1
 179 18 l 1
 264 18 305 40 305 134 c 2
 305 2666 l 2
 305 2760 264 2782 179 2782 c 1
 179 2800 l 1
 1211 2800 l 1
 1211 2522 l 1
 1193 2522 l 1
 1193 2678 1118 2782 978 2782 c 2
 557 2782 l 2
 525 2782 440 2769 440 2666 c 2
 440 1407 l 1
 561 1407 l 2
 700 1407 776 1514 776 1667 c 1
 794 1667 l 1
 794 1133 l 1
 776 1133 l 1
 776 1286 700 1389 561 1389 c 2
 440 1389 l 1
 440 130 l 2
 440 36 525 18 557 18 c 2
 978 18 l 2
 1129 18 1181 139 1193 278 c 1
 1211 278 l 1
 1211 0 l 1xaf
 1064 -121 947 -247 947 -412 c 0
 947 -574 1086 -690 1256 -690 c 0x77
 1413 -690 1565 -574 1565 -412 c 1xb7
EndSplineSet
Position2: "'cpsp' Capital Spacing in Latin lookup 0 subtable" dx=5 dy=0 dh=10 dv=0
EndChar

StartChar: F
Encoding: 70 70 36
Width: 1345
GlyphClass: 2
Flags: MW
HStem: 0 21G<179 566 179 179> 1389 18<440 561 440 561> 2782 18<179 219.5 543.5 557 557 978>
VStem: 305 135<134 1389 1407 2666>
AnchorPoint: "Anchor-6" 673 2800 basechar 0
AnchorPoint: "Anchor-4" 673 0 basechar 0
LayerCount: 2
Fore
SplineSet
561 1389 m 2
 440 1389 l 1
 440 134 l 2
 440 40 489 18 566 18 c 1
 566 0 l 1
 179 0 l 1
 179 18 l 1
 260 18 305 40 305 134 c 2
 305 2666 l 2
 305 2760 260 2782 179 2782 c 1
 179 2800 l 1
 1211 2800 l 1
 1211 2522 l 1
 1193 2522 l 1
 1193 2636 1138 2782 978 2782 c 2
 557 2782 l 2
 530 2782 440 2769 440 2666 c 2
 440 1407 l 1
 561 1407 l 2
 716 1407 776 1551 776 1667 c 1
 794 1667 l 1
 794 1133 l 1
 776 1133 l 1
 776 1249 716 1389 561 1389 c 2
EndSplineSet
Position2: "'cpsp' Capital Spacing in Latin lookup 0 subtable" dx=5 dy=0 dh=10 dv=0
EndChar

StartChar: G
Encoding: 71 71 37
Width: 3598
GlyphClass: 2
Flags: MW
HStem: -13 80<1303.5 1890.5> 1281 18<2236 2908 2236 3485 2979 2979 2979 3485> 2733 80<1180.5 1729.5>
VStem: 157 80<1126.5 1789.5>
AnchorPoint: "Anchor-6" 1568 2195 basechar 0
AnchorPoint: "Anchor-4" 1608 0 basechar 0
LayerCount: 2
Fore
SplineSet
1577 -13 m 0
 780 -13 157 632 157 1402 c 0
 157 2177 793 2813 1568 2813 c 0
 2177 2813 2684 2437 2890 1917 c 1
 2751 1917 l 1
 2504 2392 2007 2733 1452 2733 c 0
 762 2733 237 2208 237 1514 c 0
 237 739 914 67 1693 67 c 0
 2377 67 2901 595 2908 1281 c 1
 2236 1281 l 1
 2236 1299 l 1
 3485 1299 l 1
 3485 1281 l 1
 2979 1281 l 1
 2979 67 l 1
 2961 67 l 1
 2921 977 l 1
 2782 421 2204 -13 1577 -13 c 0
EndSplineSet
Position2: "'cpsp' Capital Spacing in Latin lookup 0 subtable" dx=5 dy=0 dh=10 dv=0
EndChar

StartChar: Gbreve
Encoding: 286 286 38
Width: 3598
GlyphClass: 2
Flags: MW
HStem: -13 80<1303.5 1890.5> 1281 18<2236 2908 2236 3485 2979 2979 2979 3485> 2733 80<1180.5 1729.5> 3087 21G<1487 1684.5> 3376 20G<1106 1187 1187 1187 2002 2020 2020 2020>
VStem: 157 80<1126.5 1789.5>
AnchorPoint: "Anchor-6" 1568 2195 basechar 0
AnchorPoint: "Anchor-4" 1608 0 basechar 0
LayerCount: 2
Fore
SplineSet
1586 3087 m 0
 1388 3087 1178 3208 1106 3396 c 1
 1187 3396 l 1
 1272 3234 1451 3131 1608 3131 c 0
 1787 3131 1948 3234 2002 3396 c 1
 2020 3396 l 1
 1948 3194 1783 3087 1586 3087 c 0
1577 -13 m 0
 780 -13 157 632 157 1402 c 0
 157 2177 793 2813 1568 2813 c 0
 2177 2813 2684 2437 2890 1917 c 1
 2751 1917 l 1
 2504 2392 2007 2733 1452 2733 c 0
 762 2733 237 2208 237 1514 c 0
 237 739 914 67 1693 67 c 0
 2377 67 2901 595 2908 1281 c 1
 2236 1281 l 1
 2236 1299 l 1
 3485 1299 l 1
 3485 1281 l 1
 2979 1281 l 1
 2979 67 l 1
 2961 67 l 1
 2921 977 l 1
 2782 421 2204 -13 1577 -13 c 0
EndSplineSet
Position2: "'cpsp' Capital Spacing in Latin lookup 0 subtable" dx=5 dy=0 dh=10 dv=0
EndChar

StartChar: Gcircumflex
Encoding: 284 284 39
Width: 3598
GlyphClass: 2
Flags: MW
HStem: -13 80<1303.5 1890.5> 1281 18<2236 2908 2236 3485 2979 2979 2979 3485> 2733 80<1180.5 1729.5> 2988 21G<1138 1138 1998 1998> 3349 20G
VStem: 157 80<1126.5 1789.5>
AnchorPoint: "Anchor-6" 1568 2195 basechar 0
AnchorPoint: "Anchor-4" 1608 0 basechar 0
LayerCount: 2
Fore
SplineSet
1568 3369 m 1
 1688 3261 1899 3087 2007 3001 c 1
 1998 2988 l 1
 1899 3064 1715 3199 1568 3266 c 1
 1421 3199 1237 3064 1138 2988 c 1
 1129 3001 l 1
 1237 3087 1448 3261 1568 3369 c 1
1577 -13 m 0
 780 -13 157 632 157 1402 c 0
 157 2177 793 2813 1568 2813 c 0
 2177 2813 2684 2437 2890 1917 c 1
 2751 1917 l 1
 2504 2392 2007 2733 1452 2733 c 0
 762 2733 237 2208 237 1514 c 0
 237 739 914 67 1693 67 c 0
 2377 67 2901 595 2908 1281 c 1
 2236 1281 l 1
 2236 1299 l 1
 3485 1299 l 1
 3485 1281 l 1
 2979 1281 l 1
 2979 67 l 1
 2961 67 l 1
 2921 977 l 1
 2782 421 2204 -13 1577 -13 c 0
EndSplineSet
Position2: "'cpsp' Capital Spacing in Latin lookup 0 subtable" dx=5 dy=0 dh=10 dv=0
EndChar

StartChar: Gdotaccent
Encoding: 288 288 40
Width: 3598
GlyphClass: 2
Flags: MW
HStem: -13 80<1303.5 1890.5> 1281 18<2236 2908 2236 3485 2979 2979 2979 3485> 2733 80<1180.5 1729.5> 3051 21G<1541 1595> 3219 20G<1541 1595>
VStem: 157 80<1126.5 1789.5> 1474 188<3118 3172>
AnchorPoint: "Anchor-6" 1568 2195 basechar 0
AnchorPoint: "Anchor-4" 1608 0 basechar 0
LayerCount: 2
Fore
SplineSet
1568 3051 m 0
 1514 3051 1474 3091 1474 3145 c 0
 1474 3199 1514 3239 1568 3239 c 0
 1622 3239 1662 3199 1662 3145 c 0
 1662 3091 1622 3051 1568 3051 c 0
1577 -13 m 0
 780 -13 157 632 157 1402 c 0
 157 2177 793 2813 1568 2813 c 0
 2177 2813 2684 2437 2890 1917 c 1
 2751 1917 l 1
 2504 2392 2007 2733 1452 2733 c 0
 762 2733 237 2208 237 1514 c 0
 237 739 914 67 1693 67 c 0
 2377 67 2901 595 2908 1281 c 1
 2236 1281 l 1
 2236 1299 l 1
 3485 1299 l 1
 3485 1281 l 1
 2979 1281 l 1
 2979 67 l 1
 2961 67 l 1
 2921 977 l 1
 2782 421 2204 -13 1577 -13 c 0
EndSplineSet
Position2: "'cpsp' Capital Spacing in Latin lookup 0 subtable" dx=5 dy=0 dh=10 dv=0
EndChar

StartChar: H
Encoding: 72 72 41
Width: 1480
GlyphClass: 2
Flags: MW
HStem: 0 21G<179 564 179 179 914 1299 914 914> 1389 18<439 1039 439 1039> 2780 20G<179 564 564 564 914 1299 1299 1299>
VStem: 305 135 1040 136
AnchorPoint: "Anchor-7" 695 1402 basechar 0
AnchorPoint: "Anchor-6" 695 2195 basechar 0
AnchorPoint: "Anchor-4" 695 0 basechar 0
LayerCount: 2
Fore
SplineSet
1299 18 m 1
 1299 0 l 1
 914 0 l 1
 914 18 l 1
 994 18 1039 40 1039 134 c 2
 1039 1389 l 1
 439 1389 l 1
 439 134 l 2
 439 40 484 18 564 18 c 1
 564 0 l 1
 179 0 l 1
 179 18 l 1
 259 18 304 40 304 134 c 2
 304 2666 l 2
 304 2760 259 2782 179 2782 c 1
 179 2800 l 1
 564 2800 l 1
 564 2782 l 1
 484 2782 439 2760 439 2666 c 2
 439 1407 l 1
 1039 1407 l 1
 1039 2666 l 2
 1039 2760 994 2782 914 2782 c 1
 914 2800 l 1
 1299 2800 l 1
 1299 2782 l 1
 1219 2782 1174 2760 1174 2666 c 2
 1174 134 l 2
 1174 40 1219 18 1299 18 c 1
EndSplineSet
Position2: "'cpsp' Capital Spacing in Latin lookup 0 subtable" dx=5 dy=0 dh=10 dv=0
EndChar

StartChar: Hbar
Encoding: 294 294 42
Width: 1478
Flags: MW
HStem: 0 21G<179 564 179 179 914 1299 914 914> 2780 20G<179 564 564 564 914 1299 1299 1299>
VStem: 304 135<134 1389 1407 1962 1980 2666> 1039 135<134 1389 1389 1389 1407 1962 1980 2666>
LayerCount: 2
Fore
SplineSet
1299 18 m 1
 1299 0 l 1
 914 0 l 1
 914 18 l 1
 994 18 1039 40 1039 134 c 2
 1039 1389 l 1
 439 1389 l 1
 439 134 l 2
 439 40 484 18 564 18 c 1
 564 0 l 1
 179 0 l 1
 179 18 l 1
 259 18 304 40 304 134 c 2
 304 1962 l 1
 179 1962 l 1
 179 1980 l 1
 304 1980 l 1
 304 2666 l 2
 304 2760 259 2782 179 2782 c 1
 179 2800 l 1
 564 2800 l 1
 564 2782 l 1
 484 2782 439 2760 439 2666 c 2
 439 1980 l 1
 1039 1980 l 1
 1039 2666 l 2
 1039 2760 994 2782 914 2782 c 1
 914 2800 l 1
 1299 2800 l 1
 1299 2782 l 1
 1219 2782 1174 2760 1174 2666 c 2
 1174 1980 l 1
 1299 1980 l 1
 1299 1962 l 1
 1174 1962 l 1
 1174 134 l 2
 1174 40 1219 18 1299 18 c 1
439 1962 m 1
 439 1407 l 1
 1039 1407 l 1
 1039 1962 l 1
 439 1962 l 1
EndSplineSet
Position2: "'cpsp' Capital Spacing in Latin lookup 0 subtable" dx=5 dy=0 dh=10 dv=0
EndChar

StartChar: Hcircumflex
Encoding: 292 292 43
Width: 1480
GlyphClass: 2
Flags: MW
HStem: 0 21G<179 564 179 179 914 1299 914 914> 1389 18<439 1039 439 1039> 2780 20G<179 564 564 564 914 1299 1299 1299> 2988 21G<310 310 1170 1170> 3349 20G
VStem: 305 135 1040 136
AnchorPoint: "Anchor-7" 695 1402 basechar 0
AnchorPoint: "Anchor-6" 695 2195 basechar 0
AnchorPoint: "Anchor-4" 695 0 basechar 0
LayerCount: 2
Fore
SplineSet
740 3369 m 1
 860 3261 1071 3087 1179 3001 c 1
 1170 2988 l 1
 1071 3064 887 3199 740 3266 c 1
 593 3199 409 3064 310 2988 c 1
 301 3001 l 1
 409 3087 620 3261 740 3369 c 1
1299 18 m 1
 1299 0 l 1
 914 0 l 1
 914 18 l 1
 994 18 1039 40 1039 134 c 2
 1039 1389 l 1
 439 1389 l 1
 439 134 l 2
 439 40 484 18 564 18 c 1
 564 0 l 1
 179 0 l 1
 179 18 l 1
 259 18 304 40 304 134 c 2
 304 2666 l 2
 304 2760 259 2782 179 2782 c 1
 179 2800 l 1
 564 2800 l 1
 564 2782 l 1
 484 2782 439 2760 439 2666 c 2
 439 1407 l 1
 1039 1407 l 1
 1039 2666 l 2
 1039 2760 994 2782 914 2782 c 1
 914 2800 l 1
 1299 2800 l 1
 1299 2782 l 1
 1219 2782 1174 2760 1174 2666 c 2
 1174 134 l 2
 1174 40 1219 18 1299 18 c 1
EndSplineSet
Position2: "'cpsp' Capital Spacing in Latin lookup 0 subtable" dx=5 dy=0 dh=10 dv=0
EndChar

StartChar: I
Encoding: 73 73 44
Width: 743
GlyphClass: 2
Flags: MW
HStem: 0 21G<179 564 179 179> 2780 20G<179 564 564 564>
VStem: 304 135<134 2666>
AnchorPoint: "Anchor-6" 371 2195 basechar 0
AnchorPoint: "Anchor-5" 564 0 basechar 0
AnchorPoint: "Anchor-4" 371 0 basechar 0
LayerCount: 2
Fore
SplineSet
564 18 m 1
 564 0 l 1
 179 0 l 1
 179 18 l 1
 259 18 304 40 304 134 c 2
 304 2666 l 2
 304 2760 259 2782 179 2782 c 1
 179 2800 l 1
 564 2800 l 1
 564 2782 l 1
 484 2782 439 2760 439 2666 c 2
 439 134 l 2
 439 40 484 18 564 18 c 1
EndSplineSet
Position2: "'cpsp' Capital Spacing in Latin lookup 0 subtable" dx=5 dy=0 dh=10 dv=0
EndChar

StartChar: Iacute
Encoding: 205 205 45
Width: 743
GlyphClass: 2
Flags: MW
HStem: 0 21G<168 553 168 168> 2780 20G<168 553 553 553> 2975 21G<51 51> 3259 20G<665 665>
VStem: 293 135<134 2666>
AnchorPoint: "Anchor-6" 329 2195 basechar 0
AnchorPoint: "Anchor-5" 553 0 basechar 0
AnchorPoint: "Anchor-4" 360 0 basechar 0
LayerCount: 2
Fore
SplineSet
665 3279 m 1
 696 3190 l 1
 508 3163 51 2975 51 2975 c 1
 47 2988 l 1
 47 2988 499 3167 665 3279 c 1
553 18 m 1
 553 0 l 1
 168 0 l 1
 168 18 l 1
 248 18 293 40 293 134 c 2
 293 2666 l 2
 293 2760 248 2782 168 2782 c 1
 168 2800 l 1
 553 2800 l 1
 553 2782 l 1
 473 2782 428 2760 428 2666 c 2
 428 134 l 2
 428 40 473 18 553 18 c 1
EndSplineSet
Position2: "'cpsp' Capital Spacing in Latin lookup 0 subtable" dx=5 dy=0 dh=10 dv=0
EndChar

StartChar: Icircumflex
Encoding: 206 206 46
Width: 743
GlyphClass: 2
Flags: MW
HStem: 0 21G<181 566 181 181> 2780 20G<181 566 566 566> 2988 21G<-58 -58 802 802> 3349 20G
VStem: 306 135<134 2666>
AnchorPoint: "Anchor-6" 372 2195 basechar 0
AnchorPoint: "Anchor-5" 566 0 basechar 0
AnchorPoint: "Anchor-4" 373 0 basechar 0
LayerCount: 2
Fore
SplineSet
372 3369 m 1
 492 3261 703 3087 811 3001 c 1
 802 2988 l 1
 703 3064 519 3199 372 3266 c 1
 225 3199 41 3064 -58 2988 c 1
 -67 3001 l 1
 41 3087 252 3261 372 3369 c 1
566 18 m 1
 566 0 l 1
 181 0 l 1
 181 18 l 1
 261 18 306 40 306 134 c 2
 306 2666 l 2
 306 2760 261 2782 181 2782 c 1
 181 2800 l 1
 566 2800 l 1
 566 2782 l 1
 486 2782 441 2760 441 2666 c 2
 441 134 l 2
 441 40 486 18 566 18 c 1
EndSplineSet
Position2: "'cpsp' Capital Spacing in Latin lookup 0 subtable" dx=5 dy=0 dh=10 dv=0
EndChar

StartChar: Idieresis
Encoding: 207 207 47
Width: 743
GlyphClass: 2
Flags: MW
HStem: 0 21G<179 564 179 179> 2780 20G<179 564 564 564> 3042 116<221 253 490 522>
VStem: 304 135<134 2666>
AnchorPoint: "Anchor-6" 372 2200 basechar 0
AnchorPoint: "Anchor-5" 564 0 basechar 0
AnchorPoint: "Anchor-4" 371 0 basechar 0
LayerCount: 2
Fore
SplineSet
179 3100 m 0
 179 3132 205 3158 237 3158 c 0
 269 3158 295 3132 295 3100 c 0
 295 3068 269 3042 237 3042 c 0
 205 3042 179 3068 179 3100 c 0
448 3100 m 0
 448 3132 474 3158 506 3158 c 0
 538 3158 564 3132 564 3100 c 0
 564 3068 538 3042 506 3042 c 0
 474 3042 448 3068 448 3100 c 0
564 18 m 1
 564 0 l 1
 179 0 l 1
 179 18 l 1
 259 18 304 40 304 134 c 2
 304 2666 l 2
 304 2760 259 2782 179 2782 c 1
 179 2800 l 1
 564 2800 l 1
 564 2782 l 1
 484 2782 439 2760 439 2666 c 2
 439 134 l 2
 439 40 484 18 564 18 c 1
EndSplineSet
Position2: "'cpsp' Capital Spacing in Latin lookup 0 subtable" dx=5 dy=0 dh=10 dv=0
EndChar

StartChar: Idotaccent
Encoding: 304 304 48
Width: 743
GlyphClass: 2
Flags: MW
HStem: 0 21G<179 564 179 179> 2780 20G<179 564 564 564> 3051 21G<344 398> 3219 20G<344 398>
VStem: 277 188<3118 3172> 304 135<134 2666>
AnchorPoint: "Anchor-6" 371 2195 basechar 0
AnchorPoint: "Anchor-5" 564 0 basechar 0
AnchorPoint: "Anchor-4" 371 0 basechar 0
LayerCount: 2
Fore
SplineSet
371 3051 m 0xf8
 317 3051 277 3091 277 3145 c 0
 277 3199 317 3239 371 3239 c 0
 425 3239 465 3199 465 3145 c 0
 465 3091 425 3051 371 3051 c 0xf8
564 18 m 1
 564 0 l 1
 179 0 l 1
 179 18 l 1
 259 18 304 40 304 134 c 2
 304 2666 l 2
 304 2760 259 2782 179 2782 c 1
 179 2800 l 1
 564 2800 l 1
 564 2782 l 1
 484 2782 439 2760 439 2666 c 2
 439 134 l 2xf4
 439 40 484 18 564 18 c 1
EndSplineSet
Position2: "'cpsp' Capital Spacing in Latin lookup 0 subtable" dx=5 dy=0 dh=10 dv=0
EndChar

StartChar: Igrave
Encoding: 204 204 49
Width: 743
GlyphClass: 2
Flags: MW
HStem: 0 21G<141 526 141 141> 2780 20G<141 526 526 526> 2975 21G<692 692> 3259 20G<78 78>
VStem: 266 135<134 2666>
AnchorPoint: "Anchor-6" 333 2195 basechar 0
AnchorPoint: "Anchor-5" 526 0 basechar 0
AnchorPoint: "Anchor-4" 333 0 basechar 0
LayerCount: 2
Fore
SplineSet
47 3190 m 1
 78 3279 l 1
 244 3167 696 2988 696 2988 c 1
 692 2975 l 1
 692 2975 235 3163 47 3190 c 1
526 18 m 1
 526 0 l 1
 141 0 l 1
 141 18 l 1
 221 18 266 40 266 134 c 2
 266 2666 l 2
 266 2760 221 2782 141 2782 c 1
 141 2800 l 1
 526 2800 l 1
 526 2782 l 1
 446 2782 401 2760 401 2666 c 2
 401 134 l 2
 401 40 446 18 526 18 c 1
EndSplineSet
Position2: "'cpsp' Capital Spacing in Latin lookup 0 subtable" dx=5 dy=0 dh=10 dv=0
EndChar

StartChar: Imacron
Encoding: 298 298 50
Width: 743
GlyphClass: 2
Flags: MW
HStem: 0 21G<180 565 180 180> 2780 20G<180 565 565 565> 3087 21G<-54 -54 797 797> 3138 20G<-54 -54 797 797>
VStem: 305 135<134 2666>
AnchorPoint: "Anchor-6" 372 2195 basechar 0
AnchorPoint: "Anchor-5" 565 0 basechar 0
AnchorPoint: "Anchor-4" 372 0 basechar 0
LayerCount: 2
Fore
SplineSet
797 3158 m 1
 797 3087 l 1
 372 3100 l 1
 -54 3087 l 1
 -54 3158 l 1
 372 3145 l 1
 797 3158 l 1
565 18 m 1
 565 0 l 1
 180 0 l 1
 180 18 l 1
 260 18 305 40 305 134 c 2
 305 2666 l 2
 305 2760 260 2782 180 2782 c 1
 180 2800 l 1
 565 2800 l 1
 565 2782 l 1
 485 2782 440 2760 440 2666 c 2
 440 134 l 2
 440 40 485 18 565 18 c 1
EndSplineSet
Position2: "'cpsp' Capital Spacing in Latin lookup 0 subtable" dx=5 dy=0 dh=10 dv=0
EndChar

StartChar: Iogonek
Encoding: 302 302 51
Width: 743
GlyphClass: 2
Flags: MW
HStem: -717 21G<517.5 694.5> -710 20G<524 687.5> -432 20G<918 941 941 941> -7 20G 0 21G<179 538 179 179 564 564> 2780 20G<179 564 564 564>
VStem: 304 135<134 2666>
AnchorPoint: "Anchor-6" 371 2195 basechar 0
AnchorPoint: "Anchor-5" 564 0 basechar 0
AnchorPoint: "Anchor-4" 371 0 basechar 0
LayerCount: 2
Fore
SplineSet
918 -412 m 1xb6
 941 -412 l 1
 941 -587 780 -717 609 -717 c 0
 426 -717 278 -587 278 -412 c 0
 278 -249 390 -110 538 0 c 1
 179 0 l 1
 179 18 l 1
 259 18 304 40 304 134 c 2
 304 2666 l 2
 304 2760 259 2782 179 2782 c 1
 179 2800 l 1
 564 2800 l 1
 564 2782 l 1
 484 2782 439 2760 439 2666 c 2
 439 134 l 2
 439 40 484 18 564 18 c 1
 564 0 l 1xae
 417 -121 300 -247 300 -412 c 0
 300 -574 439 -690 609 -690 c 0x76
 766 -690 918 -574 918 -412 c 1xb6
EndSplineSet
Position2: "'cpsp' Capital Spacing in Latin lookup 0 subtable" dx=5 dy=0 dh=10 dv=0
EndChar

StartChar: Itilde
Encoding: 296 296 52
Width: 743
GlyphClass: 2
Flags: MW
HStem: 0 21G<151 536 151 151> 2780 20G<151 536 536 536> 2979 264<-69 157 -69 157>
VStem: 276 135<134 2666>
AnchorPoint: "Anchor-6" 343 2195 basechar 0
AnchorPoint: "Anchor-5" 536 0 basechar 0
AnchorPoint: "Anchor-4" 343 0 basechar 0
LayerCount: 2
Fore
SplineSet
-51 2979 m 1
 -69 2979 l 1
 -77 3002 -83 3026 -83 3055 c 0
 -83 3172 -16 3243 110 3243 c 0
 204 3243 311 3190 397 3136 c 0
 495 3078 567 3019 665 3019 c 0
 737 3019 809 3078 809 3172 c 0
 809 3199 803 3223 795 3243 c 1
 813 3243 l 1
 818 3230 827 3199 827 3167 c 0
 827 3046 756 2979 629 2979 c 0
 529 2979 428 3037 347 3091 c 0
 217 3172 159 3203 79 3203 c 0
 7 3203 -65 3145 -65 3051 c 0
 -65 3023 -58 2996 -51 2979 c 1
536 18 m 1
 536 0 l 1
 151 0 l 1
 151 18 l 1
 231 18 276 40 276 134 c 2
 276 2666 l 2
 276 2760 231 2782 151 2782 c 1
 151 2800 l 1
 536 2800 l 1
 536 2782 l 1
 456 2782 411 2760 411 2666 c 2
 411 134 l 2
 411 40 456 18 536 18 c 1
EndSplineSet
Position2: "'cpsp' Capital Spacing in Latin lookup 0 subtable" dx=5 dy=0 dh=10 dv=0
EndChar

StartChar: J
Encoding: 74 74 53
Width: 1769
GlyphClass: 2
Flags: MW
HStem: -13 18<580 869 579.5 884> 2780 20G<1183 1568 1568 1568>
VStem: 1308 135<826 827 827 2666>
AnchorPoint: "Anchor-6" 1389 2195 basechar 0
AnchorPoint: "Anchor-4" 887 0 basechar 0
LayerCount: 2
Fore
SplineSet
640 5 m 0
 1098 5 1308 343 1308 826 c 2
 1308 2666 l 2
 1308 2760 1263 2782 1183 2782 c 1
 1183 2800 l 1
 1568 2800 l 1
 1568 2782 l 1
 1487 2782 1443 2760 1443 2666 c 2
 1443 827 l 2
 1443 219 1115 -13 653 -13 c 0
 507 -13 374 9 134 143 c 1
 134 384 l 1
 152 384 l 1
 163 191 242 121 287 94 c 0
 390 31 519 5 640 5 c 0
EndSplineSet
Position2: "'cpsp' Capital Spacing in Latin lookup 0 subtable" dx=5 dy=0 dh=10 dv=0
EndChar

StartChar: Jcircumflex
Encoding: 308 308 54
Width: 1769
GlyphClass: 2
Flags: MW
HStem: -13 18<580 869 579.5 884> 2780 20G<1183 1568 1568 1568> 2988 21G<946 946 1806 1806> 3349 20G
VStem: 1308 135<826 827 827 2666>
AnchorPoint: "Anchor-6" 1376 2195 basechar 0
AnchorPoint: "Anchor-4" 887 0 basechar 0
LayerCount: 2
Fore
SplineSet
1376 3369 m 1
 1496 3261 1707 3087 1815 3001 c 1
 1806 2988 l 1
 1707 3064 1523 3199 1376 3266 c 1
 1229 3199 1045 3064 946 2988 c 1
 937 3001 l 1
 1045 3087 1256 3261 1376 3369 c 1
640 5 m 0
 1098 5 1308 343 1308 826 c 2
 1308 2666 l 2
 1308 2760 1263 2782 1183 2782 c 1
 1183 2800 l 1
 1568 2800 l 1
 1568 2782 l 1
 1487 2782 1443 2760 1443 2666 c 2
 1443 827 l 2
 1443 219 1115 -13 653 -13 c 0
 507 -13 374 9 134 143 c 1
 134 384 l 1
 152 384 l 1
 163 191 242 121 287 94 c 0
 390 31 519 5 640 5 c 0
EndSplineSet
Position2: "'cpsp' Capital Spacing in Latin lookup 0 subtable" dx=5 dy=0 dh=10 dv=0
EndChar

StartChar: K
Encoding: 75 75 55
Width: 2232
GlyphClass: 2
Flags: MW
HStem: 0 21G<179 564 179 179 1694 1694 1694 2098> 2780 20G<179 564 564 564 1645 1887 1887 1887>
VStem: 304 135<134 1307 1334 2666>
AnchorPoint: "Anchor-6" 1108 2195 basechar 0
AnchorPoint: "Anchor-4" 1108 0 basechar 0
LayerCount: 2
Fore
SplineSet
564 18 m 1
 564 0 l 1
 179 0 l 1
 179 18 l 1
 259 18 304 40 304 134 c 2
 304 2666 l 2
 304 2760 259 2782 179 2782 c 1
 179 2800 l 1
 564 2800 l 1
 564 2782 l 1
 484 2782 439 2760 439 2666 c 2
 439 1334 l 1
 1730 2715 l 2
 1756 2743 1757 2782 1645 2782 c 1
 1645 2800 l 1
 1887 2800 l 1
 1887 2782 l 1
 1865 2782 l 2
 1820 2782 1793 2755 1744 2701 c 2
 691 1577 l 1
 1941 117 l 2
 1990 58 2022 18 2098 18 c 1
 2098 0 l 1
 1694 0 l 1
 1694 18 l 1
 1708 18 1824 40 1762 121 c 2
 664 1550 l 1
 439 1307 l 1
 439 134 l 2
 439 40 484 18 564 18 c 1
EndSplineSet
Position2: "'cpsp' Capital Spacing in Latin lookup 0 subtable" dx=5 dy=0 dh=10 dv=0
EndChar

StartChar: L
Encoding: 76 76 56
Width: 1582
GlyphClass: 2
Flags: MW
HStem: 0 18<184 224 570 1193 1193 1302.5 184 224> 2780 20G<179 566 566 566>
VStem: 305 135<134 2666>
AnchorPoint: "Anchor-7" 780 1402 basechar 0
AnchorPoint: "Anchor-6" 376 2195 basechar 0
AnchorPoint: "Anchor-4" 780 0 basechar 0
LayerCount: 2
Fore
SplineSet
570 18 m 2
 1193 18 l 2
 1412 18 1408 278 1408 278 c 1
 1426 278 l 1
 1426 0 l 1
 184 0 l 1
 184 18 l 1
 264 18 305 40 305 134 c 2
 305 2666 l 2
 305 2760 260 2782 179 2782 c 1
 179 2800 l 1
 566 2800 l 1
 566 2782 l 1
 485 2782 440 2760 440 2666 c 2
 440 134 l 2
 440 40 489 18 570 18 c 2
EndSplineSet
Position2: "'cpsp' Capital Spacing in Latin lookup 0 subtable" dx=5 dy=0 dh=10 dv=0
EndChar

StartChar: Lacute
Encoding: 313 313 57
Width: 1582
GlyphClass: 2
Flags: MW
HStem: 0 18<184 224 570 1193 1193 1302.5 184 224> 2780 20G<179 566 566 566> 2975 21G<98 98> 3259 20G<712 712>
VStem: 305 135<134 2666>
AnchorPoint: "Anchor-7" 780 1402 basechar 0
AnchorPoint: "Anchor-6" 376 2195 basechar 0
AnchorPoint: "Anchor-4" 780 0 basechar 0
LayerCount: 2
Fore
SplineSet
712 3279 m 1
 743 3190 l 1
 555 3163 98 2975 98 2975 c 1
 94 2988 l 1
 94 2988 546 3167 712 3279 c 1
570 18 m 2
 1193 18 l 2
 1412 18 1408 278 1408 278 c 1
 1426 278 l 1
 1426 0 l 1
 184 0 l 1
 184 18 l 1
 264 18 305 40 305 134 c 2
 305 2666 l 2
 305 2760 260 2782 179 2782 c 1
 179 2800 l 1
 566 2800 l 1
 566 2782 l 1
 485 2782 440 2760 440 2666 c 2
 440 134 l 2
 440 40 489 18 570 18 c 2
EndSplineSet
Position2: "'cpsp' Capital Spacing in Latin lookup 0 subtable" dx=5 dy=0 dh=10 dv=0
EndChar

StartChar: Lcaron
Encoding: 317 317 58
Width: 1582
GlyphClass: 2
Flags: MW
HStem: 0 18<184 224 570 1193 1193 1302.5 184 224> 2450 21G<964 964> 2607 21G 2780 20G<179 566 566 566> 2789 20G<939 995>
VStem: 305 135<134 2666>
AnchorPoint: "Anchor-7" 780 1402 basechar 0
AnchorPoint: "Anchor-6" 376 2195 basechar 0
AnchorPoint: "Anchor-4" 780 0 basechar 0
LayerCount: 2
Fore
SplineSet
964 2450 m 1xec
 941 2464 l 1
 959 2508 977 2562 982 2607 c 1
 913 2605 865 2643 865 2701 c 0
 865 2764 910 2809 968 2809 c 0
 1022 2809 1071 2764 1071 2701 c 0
 1071 2661 1062 2625 964 2450 c 1xec
570 18 m 2
 1193 18 l 2
 1412 18 1408 278 1408 278 c 1
 1426 278 l 1
 1426 0 l 1
 184 0 l 1
 184 18 l 1
 264 18 305 40 305 134 c 2
 305 2666 l 2
 305 2760 260 2782 179 2782 c 1
 179 2800 l 1
 566 2800 l 1xf4
 566 2782 l 1
 485 2782 440 2760 440 2666 c 2
 440 134 l 2
 440 40 489 18 570 18 c 2
EndSplineSet
Position2: "'cpsp' Capital Spacing in Latin lookup 0 subtable" dx=5 dy=0 dh=10 dv=0
EndChar

StartChar: Lslash
Encoding: 321 321 59
Width: 1581
Flags: MW
HStem: 0 21G<184 1425 184 184> 2780 20G<179 565 565 565>
VStem: 307 134
LayerCount: 2
Fore
SplineSet
1407 278 m 1
 1425 278 l 1
 1425 0 l 1
 184 0 l 1
 184 18 l 1
 265 18 309 40 309 134 c 2
 305 1469 l 1
 14 1156 l 1
 0 1169 l 1
 305 1496 l 1
 305 2666 l 2
 305 2760 260 2782 179 2782 c 1
 179 2800 l 1
 565 2800 l 1
 565 2782 l 1
 484 2782 439 2760 439 2666 c 2
 439 1635 l 1
 1017 2249 l 1
 1031 2236 l 1
 439 1608 l 1
 444 134 l 2
 444 40 489 18 569 18 c 2
 1192 18 l 2
 1411 18 1407 278 1407 278 c 1
EndSplineSet
Position2: "'cpsp' Capital Spacing in Latin lookup 0 subtable" dx=5 dy=0 dh=10 dv=0
EndChar

StartChar: M
Encoding: 77 77 60
Width: 1826
GlyphClass: 2
Flags: MW
HStem: 0 21G<134 363 134 134 799 935 799 799 1311 1692 1311 1311> 2780 20G<326 711 711 711 962 1347 1347 1347>
AnchorPoint: "Anchor-6" 999 2195 basechar 0
AnchorPoint: "Anchor-4" 999 0 basechar 0
LayerCount: 2
Fore
SplineSet
1240 2684 m 2
 1553 118 l 2
 1565 22 1674 18 1692 18 c 1
 1692 0 l 1
 1311 0 l 1
 1311 18 l 1
 1325 18 1431 22 1419 120 c 2
 1102 2689 l 1
 890 354 l 1
 935 0 l 1
 799 0 l 1
 485 2564 l 1
 259 97 l 2
 251 12 345 18 363 18 c 1
 363 0 l 1
 134 0 l 1
 134 18 l 1
 206 18 235 40 242 117 c 2
 474 2634 l 1
 469 2675 l 2
 458 2773 339 2782 326 2782 c 1
 326 2800 l 1
 711 2800 l 1
 711 2782 l 1
 662 2782 595 2778 606 2675 c 2
 879 449 l 1
 1087 2724 l 1
 1052 2778 975 2782 962 2782 c 1
 962 2800 l 1
 1347 2800 l 1
 1347 2782 l 1
 1329 2782 1228 2782 1240 2684 c 2
EndSplineSet
Substitution2: "'ss02' Style Set 2 in Latin lookup 12 subtable" M.ss02
Substitution2: "'ss01' Style Set 1 in Latin lookup 11 subtable" M.ss01
Substitution2: "'salt' Stylistic Alternatives in Latin lookup 10 subtable" M.ss01
AlternateSubs2: "'aalt' Access All Alternates in Latin lookup 1 subtable" M.ss01 M.ss02
Position2: "'cpsp' Capital Spacing in Latin lookup 0 subtable" dx=5 dy=0 dh=10 dv=0
EndChar

StartChar: N
Encoding: 78 78 61
Width: 1457
GlyphClass: 2
Flags: MW
HStem: 0 21G<215 385 215 215 893 893 893 1278> 2780 20G<179 564 564 564 1061 1233 1233 1233>
VStem: 291 18<112 2701> 1138 18<142 2688 121 2735>
AnchorPoint: "Anchor-6" 730 2195 basechar 0
AnchorPoint: "Anchor-4" 730 45 basechar 0
LayerCount: 2
Fore
SplineSet
385 18 m 1
 385 0 l 1
 215 0 l 1
 215 18 l 1
 255 18 291 18 291 112 c 2
 291 2728 l 1
 265 2787 195 2782 179 2782 c 1
 179 2800 l 1
 564 2800 l 1
 564 2782 l 1
 502 2782 433 2759 457 2670 c 2
 1138 142 l 1
 1138 2688 l 2
 1138 2782 1102 2782 1061 2782 c 1
 1061 2800 l 1
 1233 2800 l 1
 1233 2782 l 1
 1192 2782 1156 2782 1156 2688 c 2
 1156 121 l 1
 1197 27 1273 18 1278 18 c 1
 1278 0 l 1
 893 0 l 1
 893 18 l 1
 955 18 1029 13 1002 117 c 2
 309 2701 l 1
 309 112 l 2
 309 18 345 18 385 18 c 1
EndSplineSet
Substitution2: "'ss01' Style Set 1 in Latin lookup 11 subtable" N.ss01
Substitution2: "'salt' Stylistic Alternatives in Latin lookup 10 subtable" N.ss01
Substitution2: "'aalt' Access All Alternates in Latin lookup 0 subtable" N.ss01
Position2: "'cpsp' Capital Spacing in Latin lookup 0 subtable" dx=5 dy=0 dh=10 dv=0
EndChar

StartChar: Nacute
Encoding: 323 323 62
Width: 1457
GlyphClass: 2
Flags: MW
HStem: 0 21G<215 385 215 215 893 893 893 1278> 2780 20G<179 564 564 564 1061 1233 1233 1233> 2975 21G<452 452> 3259 20G<1066 1066>
VStem: 291 18<112 2701> 1138 18<142 2688 121 2735>
AnchorPoint: "Anchor-6" 730 2195 basechar 0
AnchorPoint: "Anchor-4" 730 45 basechar 0
LayerCount: 2
Fore
SplineSet
1066 3279 m 1
 1097 3190 l 1
 909 3163 452 2975 452 2975 c 1
 448 2988 l 1
 448 2988 900 3167 1066 3279 c 1
385 18 m 1
 385 0 l 1
 215 0 l 1
 215 18 l 1
 255 18 291 18 291 112 c 2
 291 2728 l 1
 265 2787 195 2782 179 2782 c 1
 179 2800 l 1
 564 2800 l 1
 564 2782 l 1
 502 2782 433 2759 457 2670 c 2
 1138 142 l 1
 1138 2688 l 2
 1138 2782 1102 2782 1061 2782 c 1
 1061 2800 l 1
 1233 2800 l 1
 1233 2782 l 1
 1192 2782 1156 2782 1156 2688 c 2
 1156 121 l 1
 1197 27 1273 18 1278 18 c 1
 1278 0 l 1
 893 0 l 1
 893 18 l 1
 955 18 1029 13 1002 117 c 2
 309 2701 l 1
 309 112 l 2
 309 18 345 18 385 18 c 1
EndSplineSet
Position2: "'cpsp' Capital Spacing in Latin lookup 0 subtable" dx=5 dy=0 dh=10 dv=0
EndChar

StartChar: Ncaron
Encoding: 327 327 63
Width: 1457
GlyphClass: 2
Flags: MW
HStem: 0 21G<215 385 215 215 893 893 893 1278> 2780 20G<179 564 564 564 1061 1233 1233 1233> 2916 21G 3277 20G<300 300 1160 1160>
VStem: 291 18<112 2701> 1138 18<142 2688 121 2735>
AnchorPoint: "Anchor-6" 730 2195 basechar 0
AnchorPoint: "Anchor-4" 730 45 basechar 0
LayerCount: 2
Fore
SplineSet
730 2916 m 1
 610 3024 399 3198 291 3284 c 1
 300 3297 l 1
 399 3221 583 3086 730 3019 c 1
 877 3086 1061 3221 1160 3297 c 1
 1169 3284 l 1
 1061 3198 850 3024 730 2916 c 1
385 18 m 1
 385 0 l 1
 215 0 l 1
 215 18 l 1
 255 18 291 18 291 112 c 2
 291 2728 l 1
 265 2787 195 2782 179 2782 c 1
 179 2800 l 1
 564 2800 l 1
 564 2782 l 1
 502 2782 433 2759 457 2670 c 2
 1138 142 l 1
 1138 2688 l 2
 1138 2782 1102 2782 1061 2782 c 1
 1061 2800 l 1
 1233 2800 l 1
 1233 2782 l 1
 1192 2782 1156 2782 1156 2688 c 2
 1156 121 l 1
 1197 27 1273 18 1278 18 c 1
 1278 0 l 1
 893 0 l 1
 893 18 l 1
 955 18 1029 13 1002 117 c 2
 309 2701 l 1
 309 112 l 2
 309 18 345 18 385 18 c 1
EndSplineSet
Position2: "'cpsp' Capital Spacing in Latin lookup 0 subtable" dx=5 dy=0 dh=10 dv=0
EndChar

StartChar: Eng
Encoding: 330 330 64
Width: 1411
Flags: MW
HStem: -506 18<810.5 954 810.5 967> 0 21G<215 385 215 215 893 1138 893 893> 2780 20G<179 564 564 564 1061 1232 1232 1232>
VStem: 291 18<112 2701> 1138 17<-229 0 0 0 142 2688>
LayerCount: 2
Fore
SplineSet
457 2670 m 2
 1138 142 l 1
 1138 2688 l 2
 1138 2782 1102 2782 1061 2782 c 1
 1061 2800 l 1
 1232 2800 l 1
 1232 2782 l 1
 1191 2782 1155 2782 1155 2688 c 2
 1155 -246 l 2
 1155 -372 1052 -506 882 -506 c 0
 716 -506 609 -376 609 -220 c 1
 627 -220 l 1
 627 -381 739 -488 882 -488 c 0
 1026 -488 1138 -385 1138 -229 c 2
 1138 0 l 1
 893 0 l 1
 893 18 l 1
 955 18 1030 13 1002 117 c 2
 309 2701 l 1
 309 112 l 2
 309 18 345 18 385 18 c 1
 385 0 l 1
 215 0 l 1
 215 18 l 1
 255 18 291 18 291 112 c 2
 291 2728 l 1
 265 2787 195 2782 179 2782 c 1
 179 2800 l 1
 564 2800 l 1
 564 2782 l 1
 502 2782 432 2759 457 2670 c 2
EndSplineSet
Position2: "'cpsp' Capital Spacing in Latin lookup 0 subtable" dx=5 dy=0 dh=10 dv=0
EndChar

StartChar: Ntilde
Encoding: 209 209 65
Width: 1457
GlyphClass: 2
Flags: MW
HStem: 0 21G<215 385 215 215 893 893 893 1278> 2780 20G<179 564 564 564 1061 1233 1233 1233> 2979 264<318 544 318 544>
VStem: 291 18<112 2701> 1138 18<142 2688 121 2735>
AnchorPoint: "Anchor-6" 730 2195 basechar 0
AnchorPoint: "Anchor-4" 730 45 basechar 0
LayerCount: 2
Fore
SplineSet
336 2979 m 1
 318 2979 l 1
 310 3002 304 3026 304 3055 c 0
 304 3172 371 3243 497 3243 c 0
 591 3243 698 3190 784 3136 c 0
 882 3078 954 3019 1052 3019 c 0
 1124 3019 1196 3078 1196 3172 c 0
 1196 3199 1190 3223 1182 3243 c 1
 1200 3243 l 1
 1205 3230 1214 3199 1214 3167 c 0
 1214 3046 1143 2979 1016 2979 c 0
 916 2979 815 3037 734 3091 c 0
 604 3172 546 3203 466 3203 c 0
 394 3203 322 3145 322 3051 c 0
 322 3023 329 2996 336 2979 c 1
385 18 m 1
 385 0 l 1
 215 0 l 1
 215 18 l 1
 255 18 291 18 291 112 c 2
 291 2728 l 1
 265 2787 195 2782 179 2782 c 1
 179 2800 l 1
 564 2800 l 1
 564 2782 l 1
 502 2782 433 2759 457 2670 c 2
 1138 142 l 1
 1138 2688 l 2
 1138 2782 1102 2782 1061 2782 c 1
 1061 2800 l 1
 1233 2800 l 1
 1233 2782 l 1
 1192 2782 1156 2782 1156 2688 c 2
 1156 121 l 1
 1197 27 1273 18 1278 18 c 1
 1278 0 l 1
 893 0 l 1
 893 18 l 1
 955 18 1029 13 1002 117 c 2
 309 2701 l 1
 309 112 l 2
 309 18 345 18 385 18 c 1
EndSplineSet
Position2: "'cpsp' Capital Spacing in Latin lookup 0 subtable" dx=5 dy=0 dh=10 dv=0
EndChar

StartChar: O
Encoding: 79 79 66
Width: 3100
GlyphClass: 2
Flags: MW
HStem: -13 80<1281.5 1944.5> 2733 80<1158.5 1819>
VStem: 134 81 2885 81<1012.5 1671>
AnchorPoint: "Anchor-7" 1550 1402 basechar 0
AnchorPoint: "Anchor-6" 1550 2195 basechar 0
AnchorPoint: "Anchor-5" 2863 45 basechar 0
AnchorPoint: "Anchor-4" 1550 0 basechar 0
LayerCount: 2
Fore
SplineSet
1555 -13 m 0
 757 -13 134 632 134 1402 c 0
 134 2177 771 2813 1546 2813 c 0
 2343 2813 2966 2168 2966 1402 c 0
 2966 623 2334 -13 1555 -13 c 0
1671 67 m 0
 2357 67 2885 596 2885 1281 c 0
 2885 2061 2209 2733 1429 2733 c 0
 739 2733 206 2204 215 1510 c 0
 224 735 892 67 1671 67 c 0
EndSplineSet
Position2: "'cpsp' Capital Spacing in Latin lookup 0 subtable" dx=5 dy=0 dh=10 dv=0
EndChar

StartChar: Oacute
Encoding: 211 211 67
Width: 3100
GlyphClass: 2
Flags: HMW
HStem: -13 80<1281.5 1944.5> 2733 80<1158.5 1819> 2975 21G<1272 1272> 3259 20G<1886 1886>
VStem: 134 81 2885 81<1012.5 1671>
AnchorPoint: "Anchor-7" 1550 1402 basechar 0
AnchorPoint: "Anchor-6" 1550 2195 basechar 0
AnchorPoint: "Anchor-5" 2863 45 basechar 0
AnchorPoint: "Anchor-4" 1550 0 basechar 0
LayerCount: 2
Fore
SplineSet
1886 3279 m 1
 1917 3190 l 1
 1729 3163 1272 2975 1272 2975 c 1
 1268 2988 l 1
 1268 2988 1720 3167 1886 3279 c 1
1555 -13 m 0
 757 -13 134 632 134 1402 c 0
 134 2177 771 2813 1546 2813 c 0
 2343 2813 2966 2168 2966 1402 c 0
 2966 623 2334 -13 1555 -13 c 0
1671 67 m 0
 2357 67 2885 596 2885 1281 c 0
 2885 2061 2209 2733 1429 2733 c 0
 739 2733 206 2204 215 1510 c 0
 224 735 892 67 1671 67 c 0
EndSplineSet
Position2: "'cpsp' Capital Spacing in Latin lookup 0 subtable" dx=5 dy=0 dh=10 dv=0
EndChar

StartChar: Ocircumflex
Encoding: 212 212 68
Width: 3100
GlyphClass: 2
Flags: MW
HStem: -13 80<1281.5 1944.5> 2733 80<1158.5 1819> 2988 21G<1120 1120 1980 1980> 3349 20G
VStem: 134 81 2885 81<1012.5 1671>
AnchorPoint: "Anchor-7" 1550 1402 basechar 0
AnchorPoint: "Anchor-6" 1550 2195 basechar 0
AnchorPoint: "Anchor-5" 2863 45 basechar 0
AnchorPoint: "Anchor-4" 1550 0 basechar 0
LayerCount: 2
Fore
SplineSet
1550 3369 m 1
 1670 3261 1881 3087 1989 3001 c 1
 1980 2988 l 1
 1881 3064 1697 3199 1550 3266 c 1
 1403 3199 1219 3064 1120 2988 c 1
 1111 3001 l 1
 1219 3087 1430 3261 1550 3369 c 1
1555 -13 m 0
 757 -13 134 632 134 1402 c 0
 134 2177 771 2813 1546 2813 c 0
 2343 2813 2966 2168 2966 1402 c 0
 2966 623 2334 -13 1555 -13 c 0
1671 67 m 0
 2357 67 2885 596 2885 1281 c 0
 2885 2061 2209 2733 1429 2733 c 0
 739 2733 206 2204 215 1510 c 0
 224 735 892 67 1671 67 c 0
EndSplineSet
Position2: "'cpsp' Capital Spacing in Latin lookup 0 subtable" dx=5 dy=0 dh=10 dv=0
EndChar

StartChar: Odieresis
Encoding: 214 214 69
Width: 3100
GlyphClass: 2
Flags: MW
HStem: -13 80<1281.5 1944.5> 2733 80<1158.5 1819> 3042 116<1399 1431 1668 1700>
VStem: 134 81 2885 81<1012.5 1671>
AnchorPoint: "Anchor-7" 1550 1402 basechar 0
AnchorPoint: "Anchor-6" 1550 2200 basechar 0
AnchorPoint: "Anchor-5" 2863 45 basechar 0
AnchorPoint: "Anchor-4" 1550 0 basechar 0
LayerCount: 2
Fore
SplineSet
1357 3100 m 0
 1357 3132 1383 3158 1415 3158 c 0
 1447 3158 1473 3132 1473 3100 c 0
 1473 3068 1447 3042 1415 3042 c 0
 1383 3042 1357 3068 1357 3100 c 0
1626 3100 m 0
 1626 3132 1652 3158 1684 3158 c 0
 1716 3158 1742 3132 1742 3100 c 0
 1742 3068 1716 3042 1684 3042 c 0
 1652 3042 1626 3068 1626 3100 c 0
1555 -13 m 0
 757 -13 134 632 134 1402 c 0
 134 2177 771 2813 1546 2813 c 0
 2343 2813 2966 2168 2966 1402 c 0
 2966 623 2334 -13 1555 -13 c 0
1671 67 m 0
 2357 67 2885 596 2885 1281 c 0
 2885 2061 2209 2733 1429 2733 c 0
 739 2733 206 2204 215 1510 c 0
 224 735 892 67 1671 67 c 0
EndSplineSet
Position2: "'cpsp' Capital Spacing in Latin lookup 0 subtable" dx=5 dy=0 dh=10 dv=0
EndChar

StartChar: Ograve
Encoding: 210 210 70
Width: 3100
GlyphClass: 2
Flags: MW
HStem: -13 80<1281.5 1944.5> 2733 80<1158.5 1819> 2975 21G<1893 1893> 3259 20G<1279 1279>
VStem: 134 81 2885 81<1012.5 1671>
AnchorPoint: "Anchor-7" 1550 1402 basechar 0
AnchorPoint: "Anchor-6" 1534 2195 basechar 0
AnchorPoint: "Anchor-5" 2863 45 basechar 0
AnchorPoint: "Anchor-4" 1550 0 basechar 0
LayerCount: 2
Fore
SplineSet
1248 3190 m 1
 1279 3279 l 1
 1445 3167 1897 2988 1897 2988 c 1
 1893 2975 l 1
 1893 2975 1436 3163 1248 3190 c 1
1555 -13 m 0
 757 -13 134 632 134 1402 c 0
 134 2177 771 2813 1546 2813 c 0
 2343 2813 2966 2168 2966 1402 c 0
 2966 623 2334 -13 1555 -13 c 0
1671 67 m 0
 2357 67 2885 596 2885 1281 c 0
 2885 2061 2209 2733 1429 2733 c 0
 739 2733 206 2204 215 1510 c 0
 224 735 892 67 1671 67 c 0
EndSplineSet
Position2: "'cpsp' Capital Spacing in Latin lookup 0 subtable" dx=5 dy=0 dh=10 dv=0
EndChar

StartChar: Ohungarumlaut
Encoding: 336 336 71
Width: 3100
GlyphClass: 2
Flags: MW
HStem: -13 80<1281.5 1944.5> 2733 80<1158.5 1819> 2975 21G<1050 1050 1453 1453> 3260 20G<1664 1664 2067 2067>
VStem: 134 81 2885 81<1012.5 1671>
AnchorPoint: "Anchor-7" 1550 1402 basechar 0
AnchorPoint: "Anchor-6" 1731 2196 basechar 0
AnchorPoint: "Anchor-5" 2863 45 basechar 0
AnchorPoint: "Anchor-4" 1550 0 basechar 0
LayerCount: 2
Fore
SplineSet
1664 3280 m 1
 1695 3190 l 1
 1507 3163 1050 2975 1050 2975 c 1
 1046 2989 l 1
 1046 2989 1498 3168 1664 3280 c 1
2067 3280 m 1
 2099 3190 l 1
 1910 3163 1453 2975 1453 2975 c 1
 1449 2989 l 1
 1449 2989 1901 3168 2067 3280 c 1
1555 -13 m 0
 757 -13 134 632 134 1402 c 0
 134 2177 771 2813 1546 2813 c 0
 2343 2813 2966 2168 2966 1402 c 0
 2966 623 2334 -13 1555 -13 c 0
1671 67 m 0
 2357 67 2885 596 2885 1281 c 0
 2885 2061 2209 2733 1429 2733 c 0
 739 2733 206 2204 215 1510 c 0
 224 735 892 67 1671 67 c 0
EndSplineSet
Position2: "'cpsp' Capital Spacing in Latin lookup 0 subtable" dx=5 dy=0 dh=10 dv=0
EndChar

StartChar: Omacron
Encoding: 332 332 72
Width: 3100
GlyphClass: 2
Flags: MW
HStem: -13 80<1281.5 1944.5> 2733 80<1158.5 1819> 3087 21G<1147 1147 1998 1998> 3138 20G<1147 1147 1998 1998>
VStem: 134 81 2885 81<1012.5 1671>
AnchorPoint: "Anchor-7" 1550 1402 basechar 0
AnchorPoint: "Anchor-6" 1573 2195 basechar 0
AnchorPoint: "Anchor-5" 2863 45 basechar 0
AnchorPoint: "Anchor-4" 1550 0 basechar 0
LayerCount: 2
Fore
SplineSet
1998 3158 m 1
 1998 3087 l 1
 1573 3100 l 1
 1147 3087 l 1
 1147 3158 l 1
 1573 3145 l 1
 1998 3158 l 1
1555 -13 m 0
 757 -13 134 632 134 1402 c 0
 134 2177 771 2813 1546 2813 c 0
 2343 2813 2966 2168 2966 1402 c 0
 2966 623 2334 -13 1555 -13 c 0
1671 67 m 0
 2357 67 2885 596 2885 1281 c 0
 2885 2061 2209 2733 1429 2733 c 0
 739 2733 206 2204 215 1510 c 0
 224 735 892 67 1671 67 c 0
EndSplineSet
Position2: "'cpsp' Capital Spacing in Latin lookup 0 subtable" dx=5 dy=0 dh=10 dv=0
EndChar

StartChar: Oslash
Encoding: 216 216 73
Width: 3100
Flags: MW
HStem: -13 80<1480.5 1944.5> 2733 80<1158.5 1615>
VStem: 134 81 2885 81<1012.5 1483>
LayerCount: 2
Fore
SplineSet
2854 2813 m 1
 2867 2805 l 1
 2518 2433 l 1
 2796 2173 2966 1805 2966 1402 c 0
 2966 623 2334 -13 1555 -13 c 0
 1174 -13 833 134 578 372 c 1
 246 18 l 1
 233 27 l 1
 569 385 l 1
 300 641 134 1004 134 1402 c 0
 134 2177 771 2813 1546 2813 c 0
 1917 2813 2253 2670 2504 2442 c 1
 2854 2813 l 1
215 1510 m 0
 220 1116 394 753 668 488 c 1
 2406 2339 l 1
 2146 2581 1801 2733 1429 2733 c 0
 739 2733 206 2204 215 1510 c 0
1671 67 m 0
 2357 67 2885 596 2885 1281 c 0
 2885 1685 2701 2061 2419 2330 c 1
 677 475 l 1
 941 224 1290 67 1671 67 c 0
EndSplineSet
Position2: "'cpsp' Capital Spacing in Latin lookup 0 subtable" dx=5 dy=0 dh=10 dv=0
EndChar

StartChar: Otilde
Encoding: 213 213 74
Width: 3100
GlyphClass: 2
Flags: MW
HStem: -13 80<1281.5 1944.5> 2733 80<1158.5 1819> 2979 264<1132 1358 1132 1358>
VStem: 134 81 2885 81<1012.5 1671>
AnchorPoint: "Anchor-7" 1550 1402 basechar 0
AnchorPoint: "Anchor-6" 1544 2195 basechar 0
AnchorPoint: "Anchor-5" 2863 45 basechar 0
AnchorPoint: "Anchor-4" 1550 0 basechar 0
LayerCount: 2
Fore
SplineSet
1150 2979 m 1
 1132 2979 l 1
 1124 3002 1118 3026 1118 3055 c 0
 1118 3172 1185 3243 1311 3243 c 0
 1405 3243 1512 3190 1598 3136 c 0
 1696 3078 1768 3019 1866 3019 c 0
 1938 3019 2010 3078 2010 3172 c 0
 2010 3199 2004 3223 1996 3243 c 1
 2014 3243 l 1
 2019 3230 2028 3199 2028 3167 c 0
 2028 3046 1957 2979 1830 2979 c 0
 1730 2979 1629 3037 1548 3091 c 0
 1418 3172 1360 3203 1280 3203 c 0
 1208 3203 1136 3145 1136 3051 c 0
 1136 3023 1143 2996 1150 2979 c 1
1555 -13 m 0
 757 -13 134 632 134 1402 c 0
 134 2177 771 2813 1546 2813 c 0
 2343 2813 2966 2168 2966 1402 c 0
 2966 623 2334 -13 1555 -13 c 0
1671 67 m 0
 2357 67 2885 596 2885 1281 c 0
 2885 2061 2209 2733 1429 2733 c 0
 739 2733 206 2204 215 1510 c 0
 224 735 892 67 1671 67 c 0
EndSplineSet
Position2: "'cpsp' Capital Spacing in Latin lookup 0 subtable" dx=5 dy=0 dh=10 dv=0
EndChar

StartChar: OE
Encoding: 338 338 75
Width: 3924
Flags: MW
HStem: -13 80<1281.5 1861.5> 1389 18<3020 3141 3020 3141> 2733 80<1158.5 1819>
VStem: 134 81 2885 135<134 932 932 932 938.5 1389 1407 1671 1873 2666>
LayerCount: 2
Fore
SplineSet
2760 2800 m 1
 3790 2800 l 1
 3790 2522 l 1
 3772 2522 l 1
 3772 2650 3706 2782 3557 2782 c 2
 3136 2782 l 2
 3109 2782 3020 2769 3020 2666 c 2
 3020 1407 l 1
 3141 1407 l 2
 3286 1407 3352 1532 3356 1667 c 1
 3373 1667 l 1
 3373 1133 l 1
 3356 1133 l 1
 3356 1257 3285 1389 3141 1389 c 2
 3020 1389 l 1
 3020 134 l 2
 3020 31 3109 18 3136 18 c 2
 3557 18 l 2
 3701 18 3769 140 3772 278 c 1
 3790 278 l 1
 3790 0 l 1
 2760 0 l 1
 2760 18 l 1
 2840 18 2885 40 2885 134 c 2
 2885 932 l 1
 2693 381 2168 -13 1555 -13 c 0
 757 -13 134 632 134 1402 c 0
 134 2177 771 2813 1546 2813 c 0
 2173 2813 2693 2415 2885 1873 c 1
 2885 2666 l 2
 2885 2760 2840 2782 2760 2782 c 1
 2760 2800 l 1
1671 67 m 0
 2357 67 2885 596 2885 1281 c 0
 2885 2061 2209 2733 1429 2733 c 0
 739 2733 206 2204 215 1510 c 0
 224 735 892 67 1671 67 c 0
EndSplineSet
Position2: "'cpsp' Capital Spacing in Latin lookup 0 subtable" dx=5 dy=0 dh=10 dv=0
EndChar

StartChar: P
Encoding: 80 80 76
Width: 1368
GlyphClass: 2
Flags: MW
HStem: 0 21G<179 566 179 179> 1353 18<441 553 553 557 441 553> 2782 18<181 557 478.5 494 494 553>
VStem: 306 135<133 134 134 1353 1371 2664 2664 2711> 1139 139<1886 2271.5>
AnchorPoint: "Anchor-6" 663 2195 basechar 0
AnchorPoint: "Anchor-4" 349 0 basechar 0
LayerCount: 2
Fore
SplineSet
566 18 m 1
 566 0 l 1
 179 0 l 1
 179 18 l 1
 260 18 306 39 306 133 c 2
 306 2664 l 2
 306 2758 266 2781 181 2782 c 1
 181 2800 l 1
 557 2800 l 2
 965 2800 1278 2477 1278 2079 c 0
 1278 1680 965 1353 557 1353 c 2
 441 1353 l 1
 441 134 l 2
 441 40 485 18 566 18 c 1
441 2728 m 2
 441 1371 l 1
 553 1371 l 2
 884 1371 1139 1693 1139 2079 c 0
 1139 2464 884 2782 553 2782 c 2
 494 2782 l 2
 463 2782 441 2760 441 2728 c 2
EndSplineSet
Position2: "'cpsp' Capital Spacing in Latin lookup 0 subtable" dx=5 dy=0 dh=10 dv=0
EndChar

StartChar: Thorn
Encoding: 222 222 77
Width: 2183
Flags: MW
HStem: 0 21G<179 566 179 179> 582 19<440 1206 1206 1211 440 1206> 2200 18<440 1206 440 1211> 2780 20G<179 566 566 566>
VStem: 305 135<134 582 601 2200 2218 2666> 1896 152<1182.5 1621.5>
LayerCount: 2
Fore
SplineSet
566 18 m 1
 566 0 l 1
 179 0 l 1
 179 18 l 1
 260 18 305 40 305 134 c 2
 305 2666 l 2
 305 2760 260 2782 179 2782 c 1
 179 2800 l 1
 566 2800 l 1
 566 2782 l 1
 485 2782 440 2760 440 2666 c 2
 440 2218 l 1
 1211 2218 l 2
 1677 2218 2048 1855 2048 1402 c 0
 2048 950 1677 582 1211 582 c 2
 440 582 l 1
 440 134 l 2
 440 40 485 18 566 18 c 1
1206 2200 m 2
 440 2200 l 1
 440 601 l 1
 1206 601 l 2
 1587 601 1896 963 1896 1402 c 0
 1896 1841 1587 2200 1206 2200 c 2
EndSplineSet
Position2: "'cpsp' Capital Spacing in Latin lookup 0 subtable" dx=5 dy=0 dh=10 dv=0
EndChar

StartChar: Q
Encoding: 81 81 78
Width: 3100
GlyphClass: 2
Flags: MW
HStem: -13 80<1281.5 1749.5> 2733 80<1158.5 1819>
VStem: 134 81<1128.5 1789.5> 2885 81<1211.5 1671>
AnchorPoint: "Anchor-6" 1550 2800 basechar 0
AnchorPoint: "Anchor-4" 1550 0 basechar 0
LayerCount: 2
Fore
SplineSet
2966 1402 m 0
 2966 1021 2813 672 2567 417 c 1
 2917 13 l 1
 2903 0 l 1
 2554 403 l 1
 2298 143 1944 -13 1555 -13 c 0
 757 -13 134 632 134 1402 c 0
 134 2177 771 2813 1546 2813 c 0
 2343 2813 2966 2168 2966 1402 c 0
1671 67 m 0
 2016 67 2321 202 2536 421 c 1
 2150 865 l 1
 2164 878 l 1
 2549 435 l 1
 2760 650 2885 945 2885 1281 c 0
 2885 2061 2209 2733 1429 2733 c 0
 739 2733 215 2210 215 1516 c 0
 215 741 892 67 1671 67 c 0
EndSplineSet
Position2: "'cpsp' Capital Spacing in Latin lookup 0 subtable" dx=5 dy=0 dh=10 dv=0
EndChar

StartChar: R
Encoding: 82 82 79
Width: 2357
GlyphClass: 2
Flags: MW
HStem: 0 21G<179 566 179 179 1801 1801 1801 2178> 2782 18<179 219.5 501 504 504 1318>
VStem: 305 135<134 2666 2666 2713> 1990 144<1803.5 2215.5>
AnchorPoint: "Anchor-6" 933 2195 basechar 0
AnchorPoint: "Anchor-4" 1300 -45 basechar 0
LayerCount: 2
Fore
SplineSet
566 18 m 1
 566 0 l 1
 179 0 l 1
 179 18 l 1
 260 18 305 40 305 134 c 2
 305 2666 l 2
 305 2760 260 2782 179 2782 c 1
 179 2800 l 1
 1318 2800 l 2
 1771 2800 2134 2442 2134 2003 c 0
 2134 1590 1815 1254 1408 1210 c 1
 2039 117 l 2
 2098 18 2144 18 2178 18 c 1
 2178 0 l 1
 1801 0 l 1
 1801 18 l 1
 1814 18 1931 31 1886 117 c 2
 482 2733 l 2
 477 2743 467 2746 460 2746 c 0
 449 2746 440 2737 440 2726 c 2
 440 134 l 2
 440 40 485 18 566 18 c 1
495 2764 m 2
 1394 1237 l 1
 1730 1277 1990 1604 1990 2003 c 0
 1990 2428 1690 2782 1318 2782 c 2
 504 2782 l 2
 498 2782 489 2776 495 2764 c 2
EndSplineSet
Substitution2: "'ss03' Style Set 3 in Latin lookup 13 subtable" R.ss03
Substitution2: "'ss02' Style Set 2 in Latin lookup 12 subtable" R.ss02
Substitution2: "'ss01' Style Set 1 in Latin lookup 11 subtable" R.ss01
Substitution2: "'salt' Stylistic Alternatives in Latin lookup 10 subtable" R.ss01
AlternateSubs2: "'aalt' Access All Alternates in Latin lookup 1 subtable" R.ss01 R.ss02 R.ss03
Position2: "'cpsp' Capital Spacing in Latin lookup 0 subtable" dx=5 dy=0 dh=10 dv=0
EndChar

StartChar: Racute
Encoding: 340 340 80
Width: 2357
GlyphClass: 2
Flags: MW
HStem: 0 21G<179 566 179 179 1801 1801 1801 2178> 2782 18<179 219.5 501 504 504 1318> 2975 21G<699 699> 3259 20G<1313 1313>
VStem: 305 135<134 2666 2666 2713> 1990 144<1803.5 2215.5>
AnchorPoint: "Anchor-6" 977 2195 basechar 0
AnchorPoint: "Anchor-4" 1300 -45 basechar 0
LayerCount: 2
Fore
SplineSet
1313 3279 m 1
 1344 3190 l 1
 1156 3163 699 2975 699 2975 c 1
 695 2988 l 1
 695 2988 1147 3167 1313 3279 c 1
566 18 m 1
 566 0 l 1
 179 0 l 1
 179 18 l 1
 260 18 305 40 305 134 c 2
 305 2666 l 2
 305 2760 260 2782 179 2782 c 1
 179 2800 l 1
 1318 2800 l 2
 1771 2800 2134 2442 2134 2003 c 0
 2134 1590 1815 1254 1408 1210 c 1
 2039 117 l 2
 2098 18 2144 18 2178 18 c 1
 2178 0 l 1
 1801 0 l 1
 1801 18 l 1
 1814 18 1931 31 1886 117 c 2
 482 2733 l 2
 477 2743 467 2746 460 2746 c 0
 449 2746 440 2737 440 2726 c 2
 440 134 l 2
 440 40 485 18 566 18 c 1
495 2764 m 2
 1394 1237 l 1
 1730 1277 1990 1604 1990 2003 c 0
 1990 2428 1690 2782 1318 2782 c 2
 504 2782 l 2
 498 2782 489 2776 495 2764 c 2
EndSplineSet
Position2: "'cpsp' Capital Spacing in Latin lookup 0 subtable" dx=5 dy=0 dh=10 dv=0
EndChar

StartChar: Rcaron
Encoding: 344 344 81
Width: 2357
GlyphClass: 2
Flags: MW
HStem: 0 21G<179 566 179 179 1801 1801 1801 2178> 2782 18<179 219.5 501 504 504 1318> 2916 21G 3277 20G<658 658 1518 1518>
VStem: 305 135<134 2666 2666 2713> 1990 144<1803.5 2215.5>
AnchorPoint: "Anchor-6" 1088 2195 basechar 0
AnchorPoint: "Anchor-4" 1300 -45 basechar 0
LayerCount: 2
Fore
SplineSet
1088 2916 m 1
 968 3024 757 3198 649 3284 c 1
 658 3297 l 1
 757 3221 941 3086 1088 3019 c 1
 1235 3086 1419 3221 1518 3297 c 1
 1527 3284 l 1
 1419 3198 1208 3024 1088 2916 c 1
566 18 m 1
 566 0 l 1
 179 0 l 1
 179 18 l 1
 260 18 305 40 305 134 c 2
 305 2666 l 2
 305 2760 260 2782 179 2782 c 1
 179 2800 l 1
 1318 2800 l 2
 1771 2800 2134 2442 2134 2003 c 0
 2134 1590 1815 1254 1408 1210 c 1
 2039 117 l 2
 2098 18 2144 18 2178 18 c 1
 2178 0 l 1
 1801 0 l 1
 1801 18 l 1
 1814 18 1931 31 1886 117 c 2
 482 2733 l 2
 477 2743 467 2746 460 2746 c 0
 449 2746 440 2737 440 2726 c 2
 440 134 l 2
 440 40 485 18 566 18 c 1
495 2764 m 2
 1394 1237 l 1
 1730 1277 1990 1604 1990 2003 c 0
 1990 2428 1690 2782 1318 2782 c 2
 504 2782 l 2
 498 2782 489 2776 495 2764 c 2
EndSplineSet
Position2: "'cpsp' Capital Spacing in Latin lookup 0 subtable" dx=5 dy=0 dh=10 dv=0
EndChar

StartChar: S
Encoding: 83 83 82
Width: 2226
GlyphClass: 2
Flags: MW
HStem: -13 22<1021.5 1370.5 963 1400> 2778 35<777.5 939 721.5 1028>
VStem: 332 129<2199 2468> 1904 121<500 842.5>
AnchorPoint: "Anchor-6" 1116 2195 basechar 0
AnchorPoint: "Anchor-4" 1184 9 basechar 0
LayerCount: 2
Fore
SplineSet
1169 -13 m 0
 874 -13 680 60 399 233 c 0
 360 257 342 260 321 260 c 0
 245 260 234 173 220 94 c 1
 202 94 l 1
 202 533 l 1
 220 533 l 1
 435 229 775 9 1151 9 c 0
 1590 9 1904 274 1904 650 c 0
 1904 1035 1513 1331 1098 1550 c 0
 663 1780 332 1971 332 2325 c 0
 332 2611 551 2813 892 2813 c 0
 986 2813 1086 2807 1281 2742 c 0
 1313 2731 1638 2625 1698 2612 c 1
 1698 2348 l 1
 1680 2348 l 1
 1685 2468 1629 2550 1528 2603 c 0
 1331 2706 1133 2778 923 2778 c 0
 632 2778 461 2620 461 2369 c 0
 461 2029 848 1869 1214 1658 c 0
 1649 1407 2025 1161 2025 708 c 0
 2025 292 1631 -13 1169 -13 c 0
EndSplineSet
Position2: "'cpsp' Capital Spacing in Latin lookup 0 subtable" dx=5 dy=0 dh=10 dv=0
EndChar

StartChar: Sacute
Encoding: 346 346 83
Width: 2226
GlyphClass: 2
Flags: MW
HStem: -13 22<1021.5 1370.5 963 1400> 2778 35<777.5 939 721.5 1028> 2975 21G<793 793> 3259 20G<1407 1407>
VStem: 332 129<2199 2468> 1904 121<500 842.5>
AnchorPoint: "Anchor-6" 1071 2195 basechar 0
AnchorPoint: "Anchor-4" 1184 9 basechar 0
LayerCount: 2
Fore
SplineSet
1407 3279 m 1
 1438 3190 l 1
 1250 3163 793 2975 793 2975 c 1
 789 2988 l 1
 789 2988 1241 3167 1407 3279 c 1
1169 -13 m 0
 874 -13 680 60 399 233 c 0
 360 257 342 260 321 260 c 0
 245 260 234 173 220 94 c 1
 202 94 l 1
 202 533 l 1
 220 533 l 1
 435 229 775 9 1151 9 c 0
 1590 9 1904 274 1904 650 c 0
 1904 1035 1513 1331 1098 1550 c 0
 663 1780 332 1971 332 2325 c 0
 332 2611 551 2813 892 2813 c 0
 986 2813 1086 2807 1281 2742 c 0
 1313 2731 1638 2625 1698 2612 c 1
 1698 2348 l 1
 1680 2348 l 1
 1685 2468 1629 2550 1528 2603 c 0
 1331 2706 1133 2778 923 2778 c 0
 632 2778 461 2620 461 2369 c 0
 461 2029 848 1869 1214 1658 c 0
 1649 1407 2025 1161 2025 708 c 0
 2025 292 1631 -13 1169 -13 c 0
EndSplineSet
Position2: "'cpsp' Capital Spacing in Latin lookup 0 subtable" dx=5 dy=0 dh=10 dv=0
EndChar

StartChar: Scaron
Encoding: 352 352 84
Width: 2226
GlyphClass: 2
Flags: MW
HStem: -13 22<1021.5 1370.5 963 1400> 2778 35<777.5 939 721.5 1028> 2916 21G 3277 20G<595 595 1455 1455>
VStem: 332 129<2199 2468> 1904 121<500 842.5>
AnchorPoint: "Anchor-6" 1025 2195 basechar 0
AnchorPoint: "Anchor-4" 1184 9 basechar 0
LayerCount: 2
Fore
SplineSet
1025 2916 m 1
 905 3024 694 3198 586 3284 c 1
 595 3297 l 1
 694 3221 878 3086 1025 3019 c 1
 1172 3086 1356 3221 1455 3297 c 1
 1464 3284 l 1
 1356 3198 1145 3024 1025 2916 c 1
1169 -13 m 0
 874 -13 680 60 399 233 c 0
 360 257 342 260 321 260 c 0
 245 260 234 173 220 94 c 1
 202 94 l 1
 202 533 l 1
 220 533 l 1
 435 229 775 9 1151 9 c 0
 1590 9 1904 274 1904 650 c 0
 1904 1035 1513 1331 1098 1550 c 0
 663 1780 332 1971 332 2325 c 0
 332 2611 551 2813 892 2813 c 0
 986 2813 1086 2807 1281 2742 c 0
 1313 2731 1638 2625 1698 2612 c 1
 1698 2348 l 1
 1680 2348 l 1
 1685 2468 1629 2550 1528 2603 c 0
 1331 2706 1133 2778 923 2778 c 0
 632 2778 461 2620 461 2369 c 0
 461 2029 848 1869 1214 1658 c 0
 1649 1407 2025 1161 2025 708 c 0
 2025 292 1631 -13 1169 -13 c 0
EndSplineSet
Position2: "'cpsp' Capital Spacing in Latin lookup 0 subtable" dx=5 dy=0 dh=10 dv=0
EndChar

StartChar: Scedilla
Encoding: 350 350 85
Width: 2226
GlyphClass: 2
Flags: MW
HStem: -767 21G<1016.5 1213.5> -764 20G<1025.5 1209> -464 20G<781 804 804 804> -168 20G<1086 1135 1086 1086> -13 22<1137 1169 1137 1137> 2778 35<777.5 939 721.5 1028>
VStem: 332 129<2199 2468> 1904 121<500 842.5>
AnchorPoint: "Anchor-6" 1116 2195 basechar 0
AnchorPoint: "Anchor-4" 1023 -896 basechar 0
LayerCount: 2
Fore
SplineSet
1169 -13 m 2xbf
 1137 -13 l 1
 1113 -126 l 1
 1135 -126 l 2
 1306 -126 1444 -265 1444 -440 c 0
 1444 -610 1319 -767 1108 -767 c 0xbf
 925 -767 786 -610 781 -444 c 1
 804 -444 l 1
 808 -592 943 -744 1108 -744 c 0x7f
 1310 -744 1422 -583 1422 -440 c 0
 1422 -278 1292 -148 1135 -148 c 2
 1086 -148 l 1
 1114 -12 l 1
 849 -3 662 71 399 233 c 0
 360 257 342 260 321 260 c 0
 245 260 234 173 220 94 c 1
 202 94 l 1
 202 533 l 1
 220 533 l 1
 435 229 775 9 1151 9 c 0
 1590 9 1904 274 1904 650 c 0
 1904 1035 1513 1331 1098 1550 c 0
 663 1780 332 1971 332 2325 c 0
 332 2611 551 2813 892 2813 c 0
 986 2813 1086 2807 1281 2742 c 0
 1313 2731 1638 2625 1698 2612 c 1
 1698 2348 l 1
 1680 2348 l 1
 1685 2468 1629 2550 1528 2603 c 0
 1331 2706 1133 2778 923 2778 c 0
 632 2778 461 2620 461 2369 c 0
 461 2029 848 1869 1214 1658 c 0
 1649 1407 2025 1161 2025 708 c 0
 2025 292 1631 -13 1169 -13 c 2xbf
EndSplineSet
Substitution2: "'locl' Localized Forms in Latin lookup 5 subtable" uni0218
Substitution2: "'locl' Localized Forms in Latin lookup 4 subtable" uni0218
Substitution2: "'aalt' Access All Alternates in Latin lookup 0 subtable" uni0218
Position2: "'cpsp' Capital Spacing in Latin lookup 0 subtable" dx=5 dy=0 dh=10 dv=0
EndChar

StartChar: T
Encoding: 84 84 86
Width: 1425
GlyphClass: 2
Flags: MW
HStem: 0 21G<520 905 520 520> 2780 20G<157 1268 1268 1268>
VStem: 645 135<134 2666>
AnchorPoint: "Anchor-7" 712 1434 basechar 0
AnchorPoint: "Anchor-6" 712 2195 basechar 0
AnchorPoint: "Anchor-4" 708 0 basechar 0
LayerCount: 2
Fore
SplineSet
905 18 m 1
 905 0 l 1
 520 0 l 1
 520 18 l 1
 600 18 645 40 645 134 c 2
 645 2666 l 2
 645 2773 551 2782 524 2782 c 2
 390 2782 l 2
 244 2782 180 2660 175 2522 c 1
 157 2522 l 1
 157 2800 l 1
 1268 2800 l 1
 1268 2522 l 1
 1250 2522 l 1
 1245 2660 1181 2782 1035 2782 c 2
 901 2782 l 2
 874 2782 780 2773 780 2666 c 2
 780 134 l 2
 780 40 825 18 905 18 c 1
EndSplineSet
Position2: "'cpsp' Capital Spacing in Latin lookup 0 subtable" dx=5 dy=0 dh=10 dv=0
EndChar

StartChar: Tbar
Encoding: 358 358 87
Width: 1425
Flags: MW
HStem: 0 21G<520 905 520 520> 1559 18<157 645 157 645 780 1268> 2782 18<316.5 390 390 524 887.5 901 901 1035>
VStem: 645 135<134 1559 1577 2666>
LayerCount: 2
Fore
SplineSet
175 2522 m 1
 157 2522 l 1
 157 2800 l 1
 1268 2800 l 1
 1268 2522 l 1
 1250 2522 l 1
 1250 2648 1180 2782 1035 2782 c 2
 901 2782 l 2
 874 2782 780 2773 780 2666 c 2
 780 1577 l 1
 1268 1577 l 1
 1268 1559 l 1
 780 1559 l 1
 780 134 l 2
 780 40 824 18 905 18 c 1
 905 0 l 1
 520 0 l 1
 520 18 l 1
 600 18 645 40 645 134 c 2
 645 1559 l 1
 157 1559 l 1
 157 1577 l 1
 645 1577 l 1
 645 2666 l 2
 645 2773 551 2782 524 2782 c 2
 390 2782 l 2
 243 2782 181 2658 175 2522 c 1
EndSplineSet
Position2: "'cpsp' Capital Spacing in Latin lookup 0 subtable" dx=5 dy=0 dh=10 dv=0
EndChar

StartChar: Tcaron
Encoding: 356 356 88
Width: 1425
GlyphClass: 2
Flags: MW
HStem: 0 21G<520 905 520 520> 2780 20G<157 1268 1268 1268> 2916 21G 3277 20G<282 282 1142 1142>
VStem: 645 135<134 2666>
AnchorPoint: "Anchor-7" 712 1434 basechar 0
AnchorPoint: "Anchor-6" 712 2195 basechar 0
AnchorPoint: "Anchor-4" 708 0 basechar 0
LayerCount: 2
Fore
SplineSet
712 2916 m 1
 592 3024 381 3198 273 3284 c 1
 282 3297 l 1
 381 3221 565 3086 712 3019 c 1
 859 3086 1043 3221 1142 3297 c 1
 1151 3284 l 1
 1043 3198 832 3024 712 2916 c 1
905 18 m 1
 905 0 l 1
 520 0 l 1
 520 18 l 1
 600 18 645 40 645 134 c 2
 645 2666 l 2
 645 2773 551 2782 524 2782 c 2
 390 2782 l 2
 244 2782 180 2660 175 2522 c 1
 157 2522 l 1
 157 2800 l 1
 1268 2800 l 1
 1268 2522 l 1
 1250 2522 l 1
 1245 2660 1181 2782 1035 2782 c 2
 901 2782 l 2
 874 2782 780 2773 780 2666 c 2
 780 134 l 2
 780 40 825 18 905 18 c 1
EndSplineSet
Position2: "'cpsp' Capital Spacing in Latin lookup 0 subtable" dx=5 dy=0 dh=10 dv=0
EndChar

StartChar: U
Encoding: 85 85 89
Width: 1578
GlyphClass: 2
Flags: MW
HStem: -13 18<680 957.5 680 960> 2780 20G<179 566 566 566 1143 1399 1399 1399>
VStem: 305 135<502 2666> 1260 18<475 2693>
AnchorPoint: "Anchor-6" 825 2195 basechar 0
AnchorPoint: "Anchor-5" 1085 58 basechar 0
AnchorPoint: "Anchor-4" 825 0 basechar 0
LayerCount: 2
Fore
SplineSet
440 2666 m 2
 440 502 l 2
 440 251 548 5 812 5 c 0
 1103 5 1260 193 1260 475 c 2
 1260 2693 l 2
 1260 2782 1170 2782 1143 2782 c 1
 1143 2800 l 1
 1399 2800 l 1
 1399 2782 l 1
 1367 2782 1278 2782 1278 2693 c 2
 1278 475 l 2
 1278 170 1108 -13 812 -13 c 0
 485 -13 305 224 305 502 c 2
 305 2666 l 2
 305 2760 260 2782 179 2782 c 1
 179 2800 l 1
 566 2800 l 1
 566 2782 l 1
 485 2782 440 2760 440 2666 c 2
EndSplineSet
Substitution2: "'ss02' Style Set 2 in Latin lookup 12 subtable" U.ss02
Substitution2: "'ss01' Style Set 1 in Latin lookup 11 subtable" U.ss01
Substitution2: "'salt' Stylistic Alternatives in Latin lookup 10 subtable" U.ss01
AlternateSubs2: "'aalt' Access All Alternates in Latin lookup 1 subtable" U.ss01 U.ss02
Position2: "'cpsp' Capital Spacing in Latin lookup 0 subtable" dx=5 dy=0 dh=10 dv=0
EndChar

StartChar: Uacute
Encoding: 218 218 90
Width: 1578
GlyphClass: 2
Flags: MW
HStem: -13 18<680 957.5 680 960> 2780 20G<179 566 566 566 1143 1399 1399 1399> 2975 21G<466 466> 3259 20G<1080 1080>
VStem: 305 135<502 2666> 1260 18<475 2693>
AnchorPoint: "Anchor-6" 744 2195 basechar 0
AnchorPoint: "Anchor-5" 1085 58 basechar 0
AnchorPoint: "Anchor-4" 825 0 basechar 0
LayerCount: 2
Fore
SplineSet
1080 3279 m 1
 1111 3190 l 1
 923 3163 466 2975 466 2975 c 1
 462 2988 l 1
 462 2988 914 3167 1080 3279 c 1
440 2666 m 2
 440 502 l 2
 440 251 548 5 812 5 c 0
 1103 5 1260 193 1260 475 c 2
 1260 2693 l 2
 1260 2782 1170 2782 1143 2782 c 1
 1143 2800 l 1
 1399 2800 l 1
 1399 2782 l 1
 1367 2782 1278 2782 1278 2693 c 2
 1278 475 l 2
 1278 170 1108 -13 812 -13 c 0
 485 -13 305 224 305 502 c 2
 305 2666 l 2
 305 2760 260 2782 179 2782 c 1
 179 2800 l 1
 566 2800 l 1
 566 2782 l 1
 485 2782 440 2760 440 2666 c 2
EndSplineSet
Position2: "'cpsp' Capital Spacing in Latin lookup 0 subtable" dx=5 dy=0 dh=10 dv=0
EndChar

StartChar: Ubreve
Encoding: 364 364 91
Width: 1578
GlyphClass: 2
Flags: MW
HStem: -13 18<680 957.5 680 960> 2780 20G<179 566 566 566 1143 1399 1399 1399> 3087 21G<713 910.5> 3376 20G<332 413 413 413 1228 1246 1246 1246>
VStem: 305 135<502 2666> 1260 18<475 2693>
AnchorPoint: "Anchor-6" 794 2195 basechar 0
AnchorPoint: "Anchor-5" 1085 58 basechar 0
AnchorPoint: "Anchor-4" 825 0 basechar 0
LayerCount: 2
Fore
SplineSet
812 3087 m 0
 614 3087 404 3208 332 3396 c 1
 413 3396 l 1
 498 3234 677 3131 834 3131 c 0
 1013 3131 1174 3234 1228 3396 c 1
 1246 3396 l 1
 1174 3194 1009 3087 812 3087 c 0
440 2666 m 2
 440 502 l 2
 440 251 548 5 812 5 c 0
 1103 5 1260 193 1260 475 c 2
 1260 2693 l 2
 1260 2782 1170 2782 1143 2782 c 1
 1143 2800 l 1
 1399 2800 l 1
 1399 2782 l 1
 1367 2782 1278 2782 1278 2693 c 2
 1278 475 l 2
 1278 170 1108 -13 812 -13 c 0
 485 -13 305 224 305 502 c 2
 305 2666 l 2
 305 2760 260 2782 179 2782 c 1
 179 2800 l 1
 566 2800 l 1
 566 2782 l 1
 485 2782 440 2760 440 2666 c 2
EndSplineSet
Position2: "'cpsp' Capital Spacing in Latin lookup 0 subtable" dx=5 dy=0 dh=10 dv=0
EndChar

StartChar: Ucircumflex
Encoding: 219 219 92
Width: 1578
GlyphClass: 2
Flags: MW
HStem: -13 18<680 957.5 680 960> 2780 20G<179 566 566 566 1143 1399 1399 1399> 2988 21G<395 395 1255 1255> 3349 20G
VStem: 305 135<502 2666> 1260 18<475 2693>
AnchorPoint: "Anchor-6" 825 2195 basechar 0
AnchorPoint: "Anchor-5" 1085 58 basechar 0
AnchorPoint: "Anchor-4" 825 0 basechar 0
LayerCount: 2
Fore
SplineSet
825 3369 m 1
 945 3261 1156 3087 1264 3001 c 1
 1255 2988 l 1
 1156 3064 972 3199 825 3266 c 1
 678 3199 494 3064 395 2988 c 1
 386 3001 l 1
 494 3087 705 3261 825 3369 c 1
440 2666 m 2
 440 502 l 2
 440 251 548 5 812 5 c 0
 1103 5 1260 193 1260 475 c 2
 1260 2693 l 2
 1260 2782 1170 2782 1143 2782 c 1
 1143 2800 l 1
 1399 2800 l 1
 1399 2782 l 1
 1367 2782 1278 2782 1278 2693 c 2
 1278 475 l 2
 1278 170 1108 -13 812 -13 c 0
 485 -13 305 224 305 502 c 2
 305 2666 l 2
 305 2760 260 2782 179 2782 c 1
 179 2800 l 1
 566 2800 l 1
 566 2782 l 1
 485 2782 440 2760 440 2666 c 2
EndSplineSet
Position2: "'cpsp' Capital Spacing in Latin lookup 0 subtable" dx=5 dy=0 dh=10 dv=0
EndChar

StartChar: Udieresis
Encoding: 220 220 93
Width: 1578
GlyphClass: 2
Flags: MW
HStem: -13 18<680 957.5 680 960> 2780 20G<179 566 566 566 1143 1399 1399 1399> 3042 116<679 711 948 980>
VStem: 305 135<502 2666> 1260 18<475 2693>
AnchorPoint: "Anchor-6" 830 2200 basechar 0
AnchorPoint: "Anchor-5" 1085 58 basechar 0
AnchorPoint: "Anchor-4" 825 0 basechar 0
LayerCount: 2
Fore
SplineSet
637 3100 m 0
 637 3132 663 3158 695 3158 c 0
 727 3158 753 3132 753 3100 c 0
 753 3068 727 3042 695 3042 c 0
 663 3042 637 3068 637 3100 c 0
906 3100 m 0
 906 3132 932 3158 964 3158 c 0
 996 3158 1022 3132 1022 3100 c 0
 1022 3068 996 3042 964 3042 c 0
 932 3042 906 3068 906 3100 c 0
440 2666 m 2
 440 502 l 2
 440 251 548 5 812 5 c 0
 1103 5 1260 193 1260 475 c 2
 1260 2693 l 2
 1260 2782 1170 2782 1143 2782 c 1
 1143 2800 l 1
 1399 2800 l 1
 1399 2782 l 1
 1367 2782 1278 2782 1278 2693 c 2
 1278 475 l 2
 1278 170 1108 -13 812 -13 c 0
 485 -13 305 224 305 502 c 2
 305 2666 l 2
 305 2760 260 2782 179 2782 c 1
 179 2800 l 1
 566 2800 l 1
 566 2782 l 1
 485 2782 440 2760 440 2666 c 2
EndSplineSet
Position2: "'cpsp' Capital Spacing in Latin lookup 0 subtable" dx=5 dy=0 dh=10 dv=0
EndChar

StartChar: Ugrave
Encoding: 217 217 94
Width: 1578
GlyphClass: 2
Flags: MW
HStem: -13 18<680 957.5 680 960> 2780 20G<179 566 566 566 1143 1399 1399 1399> 2975 21G<1107 1107> 3259 20G<493 493>
VStem: 305 135<502 2666> 1260 18<475 2693>
AnchorPoint: "Anchor-6" 748 2195 basechar 0
AnchorPoint: "Anchor-5" 1085 58 basechar 0
AnchorPoint: "Anchor-4" 825 0 basechar 0
LayerCount: 2
Fore
SplineSet
462 3190 m 1
 493 3279 l 1
 659 3167 1111 2988 1111 2988 c 1
 1107 2975 l 1
 1107 2975 650 3163 462 3190 c 1
440 2666 m 2
 440 502 l 2
 440 251 548 5 812 5 c 0
 1103 5 1260 193 1260 475 c 2
 1260 2693 l 2
 1260 2782 1170 2782 1143 2782 c 1
 1143 2800 l 1
 1399 2800 l 1
 1399 2782 l 1
 1367 2782 1278 2782 1278 2693 c 2
 1278 475 l 2
 1278 170 1108 -13 812 -13 c 0
 485 -13 305 224 305 502 c 2
 305 2666 l 2
 305 2760 260 2782 179 2782 c 1
 179 2800 l 1
 566 2800 l 1
 566 2782 l 1
 485 2782 440 2760 440 2666 c 2
EndSplineSet
Position2: "'cpsp' Capital Spacing in Latin lookup 0 subtable" dx=5 dy=0 dh=10 dv=0
EndChar

StartChar: Uhungarumlaut
Encoding: 368 368 95
Width: 1578
GlyphClass: 2
Flags: MW
HStem: -13 18<680 957.5 680 960> 2780 20G<179 566 566 566 1143 1399 1399 1399> 2975 21G<264 264 667 667> 3260 20G<878 878 1281 1281>
VStem: 305 135<502 2666> 1260 18<475 2693>
AnchorPoint: "Anchor-6" 945 2196 basechar 0
AnchorPoint: "Anchor-5" 1085 58 basechar 0
AnchorPoint: "Anchor-4" 825 0 basechar 0
LayerCount: 2
Fore
SplineSet
878 3280 m 1
 909 3190 l 1
 721 3163 264 2975 264 2975 c 1
 260 2989 l 1
 260 2989 712 3168 878 3280 c 1
1281 3280 m 1
 1313 3190 l 1
 1124 3163 667 2975 667 2975 c 1
 663 2989 l 1
 663 2989 1115 3168 1281 3280 c 1
440 2666 m 2
 440 502 l 2
 440 251 548 5 812 5 c 0
 1103 5 1260 193 1260 475 c 2
 1260 2693 l 2
 1260 2782 1170 2782 1143 2782 c 1
 1143 2800 l 1
 1399 2800 l 1
 1399 2782 l 1
 1367 2782 1278 2782 1278 2693 c 2
 1278 475 l 2
 1278 170 1108 -13 812 -13 c 0
 485 -13 305 224 305 502 c 2
 305 2666 l 2
 305 2760 260 2782 179 2782 c 1
 179 2800 l 1
 566 2800 l 1
 566 2782 l 1
 485 2782 440 2760 440 2666 c 2
EndSplineSet
Position2: "'cpsp' Capital Spacing in Latin lookup 0 subtable" dx=5 dy=0 dh=10 dv=0
EndChar

StartChar: Umacron
Encoding: 362 362 96
Width: 1578
GlyphClass: 2
Flags: MW
HStem: -13 18<680 957.5 680 960> 2780 20G<179 566 566 566 1143 1399 1399 1399> 3087 21G<360 360 1211 1211> 3138 20G<360 360 1211 1211>
VStem: 305 135<502 2666> 1260 18<475 2693>
AnchorPoint: "Anchor-6" 786 2195 basechar 0
AnchorPoint: "Anchor-5" 1085 58 basechar 0
AnchorPoint: "Anchor-4" 825 0 basechar 0
LayerCount: 2
Fore
SplineSet
1211 3158 m 1
 1211 3087 l 1
 786 3100 l 1
 360 3087 l 1
 360 3158 l 1
 786 3145 l 1
 1211 3158 l 1
440 2666 m 2
 440 502 l 2
 440 251 548 5 812 5 c 0
 1103 5 1260 193 1260 475 c 2
 1260 2693 l 2
 1260 2782 1170 2782 1143 2782 c 1
 1143 2800 l 1
 1399 2800 l 1
 1399 2782 l 1
 1367 2782 1278 2782 1278 2693 c 2
 1278 475 l 2
 1278 170 1108 -13 812 -13 c 0
 485 -13 305 224 305 502 c 2
 305 2666 l 2
 305 2760 260 2782 179 2782 c 1
 179 2800 l 1
 566 2800 l 1
 566 2782 l 1
 485 2782 440 2760 440 2666 c 2
EndSplineSet
Position2: "'cpsp' Capital Spacing in Latin lookup 0 subtable" dx=5 dy=0 dh=10 dv=0
EndChar

StartChar: Uogonek
Encoding: 370 370 97
Width: 1578
GlyphClass: 2
Flags: MW
HStem: -664 21G<1028.5 1205.5> -657 20G<1035 1198.5> -379 20G<1429 1452 1452 1452> -13 18<680 848> 46 20G 2780 20G<179 566 566 566 1143 1399 1399 1399>
VStem: 305 135<502 2666> 1260 18<475 2693>
AnchorPoint: "Anchor-6" 825 2195 basechar 0
AnchorPoint: "Anchor-5" 1085 58 basechar 0
AnchorPoint: "Anchor-4" 825 0 basechar 0
LayerCount: 2
Fore
SplineSet
1429 -359 m 1x7f
 1452 -359 l 1
 1452 -534 1291 -664 1120 -664 c 0xbf
 937 -664 789 -534 789 -359 c 0
 789 -212 879 -85 1005 19 c 1
 949 -2 884 -13 812 -13 c 0
 485 -13 305 224 305 502 c 2
 305 2666 l 2
 305 2760 260 2782 179 2782 c 1
 179 2800 l 1
 566 2800 l 1
 566 2782 l 1
 485 2782 440 2760 440 2666 c 2
 440 502 l 2
 440 251 548 5 812 5 c 0
 1103 5 1260 193 1260 475 c 2
 1260 2693 l 2
 1260 2782 1170 2782 1143 2782 c 1
 1143 2800 l 1
 1399 2800 l 1
 1399 2782 l 1
 1367 2782 1278 2782 1278 2693 c 2
 1278 475 l 2
 1278 275 1205 127 1070 49 c 1
 925 -71 811 -196 811 -359 c 0
 811 -521 950 -637 1120 -637 c 0
 1277 -637 1429 -521 1429 -359 c 1x7f
EndSplineSet
Position2: "'cpsp' Capital Spacing in Latin lookup 0 subtable" dx=5 dy=0 dh=10 dv=0
EndChar

StartChar: Uring
Encoding: 366 366 98
Width: 1578
GlyphClass: 2
Flags: MW
HStem: -13 18<680 957.5 680 960> 2780 20G<179 566 566 566 1143 1399 1399 1399> 3024 381<734.5 840>
VStem: 305 135<502 2666> 598 381<3162.5 3268> 1260 18<475 2693>
AnchorPoint: "Anchor-6" 791 2195 basechar 0
AnchorPoint: "Anchor-5" 1085 58 basechar 0
AnchorPoint: "Anchor-4" 825 0 basechar 0
LayerCount: 2
Fore
SplineSet
979 3216 m 0
 979 3109 894 3024 786 3024 c 0
 683 3024 598 3109 598 3216 c 0
 598 3320 683 3405 786 3405 c 0
 894 3405 979 3320 979 3216 c 0
956 3216 m 0
 956 3306 880 3382 786 3382 c 0
 697 3382 620 3306 620 3216 c 0
 620 3122 697 3046 786 3046 c 0
 880 3046 956 3122 956 3216 c 0
440 2666 m 2
 440 502 l 2
 440 251 548 5 812 5 c 0
 1103 5 1260 193 1260 475 c 2
 1260 2693 l 2
 1260 2782 1170 2782 1143 2782 c 1
 1143 2800 l 1
 1399 2800 l 1
 1399 2782 l 1
 1367 2782 1278 2782 1278 2693 c 2
 1278 475 l 2
 1278 170 1108 -13 812 -13 c 0
 485 -13 305 224 305 502 c 2
 305 2666 l 2
 305 2760 260 2782 179 2782 c 1
 179 2800 l 1
 566 2800 l 1
 566 2782 l 1
 485 2782 440 2760 440 2666 c 2
EndSplineSet
Position2: "'cpsp' Capital Spacing in Latin lookup 0 subtable" dx=5 dy=0 dh=10 dv=0
EndChar

StartChar: Utilde
Encoding: 360 360 99
Width: 1578
GlyphClass: 2
Flags: MW
HStem: -13 18<680 957.5 680 960> 2780 20G<179 566 566 566 1143 1399 1399 1399> 2979 264<345 571 345 571>
VStem: 305 135<502 2666> 1260 18<475 2693>
AnchorPoint: "Anchor-6" 757 2195 basechar 0
AnchorPoint: "Anchor-5" 1085 58 basechar 0
AnchorPoint: "Anchor-4" 825 0 basechar 0
LayerCount: 2
Fore
SplineSet
363 2979 m 1
 345 2979 l 1
 337 3002 331 3026 331 3055 c 0
 331 3172 398 3243 524 3243 c 0
 618 3243 725 3190 811 3136 c 0
 909 3078 981 3019 1079 3019 c 0
 1151 3019 1223 3078 1223 3172 c 0
 1223 3199 1217 3223 1209 3243 c 1
 1227 3243 l 1
 1232 3230 1241 3199 1241 3167 c 0
 1241 3046 1170 2979 1043 2979 c 0
 943 2979 842 3037 761 3091 c 0
 631 3172 573 3203 493 3203 c 0
 421 3203 349 3145 349 3051 c 0
 349 3023 356 2996 363 2979 c 1
440 2666 m 2
 440 502 l 2
 440 251 548 5 812 5 c 0
 1103 5 1260 193 1260 475 c 2
 1260 2693 l 2
 1260 2782 1170 2782 1143 2782 c 1
 1143 2800 l 1
 1399 2800 l 1
 1399 2782 l 1
 1367 2782 1278 2782 1278 2693 c 2
 1278 475 l 2
 1278 170 1108 -13 812 -13 c 0
 485 -13 305 224 305 502 c 2
 305 2666 l 2
 305 2760 260 2782 179 2782 c 1
 179 2800 l 1
 566 2800 l 1
 566 2782 l 1
 485 2782 440 2760 440 2666 c 2
EndSplineSet
Position2: "'cpsp' Capital Spacing in Latin lookup 0 subtable" dx=5 dy=0 dh=10 dv=0
EndChar

StartChar: V
Encoding: 86 86 100
Width: 1451
GlyphClass: 2
Flags: MW
HStem: 0 21G<565 892 565 565> 2780 20G<134 520 520 520 1066 1317 1317 1317>
AnchorPoint: "Anchor-6" 668 2800 basechar 0
AnchorPoint: "Anchor-4" 668 0 basechar 0
LayerCount: 2
Fore
SplineSet
134 2782 m 1
 134 2800 l 1
 520 2800 l 1
 520 2782 l 1
 461 2782 393 2782 408 2684 c 2
 784 211 l 1
 1169 2701 l 2
 1183 2787 1084 2782 1066 2782 c 1
 1066 2800 l 1
 1317 2800 l 1
 1317 2782 l 1
 1245 2782 1199 2760 1187 2684 c 2
 793 157 l 1
 797 130 l 2
 815 22 874 18 892 18 c 1
 892 0 l 1
 565 0 l 1
 565 18 l 1
 618 18 672 40 659 130 c 2
 273 2675 l 2
 258 2778 166 2782 134 2782 c 1
EndSplineSet
Position2: "'cpsp' Capital Spacing in Latin lookup 0 subtable" dx=5 dy=0 dh=10 dv=0
EndChar

StartChar: W
Encoding: 87 87 101
Width: 4775
GlyphClass: 2
Flags: MW
HStem: 0 21G<1259 1658 1259 1259 3226 3624 3226 3226> 2780 20G<157 542 542 542 2128 2513 2513 2513 4407 4618 4618 4618>
AnchorPoint: "Anchor-6" 2374 2195 basechar 0
AnchorPoint: "Anchor-4" 2464 0 basechar 0
LayerCount: 2
Fore
SplineSet
4511 2715 m 2
 3494 99 l 1
 3544 13 3611 18 3624 18 c 1
 3624 0 l 1
 3226 0 l 1
 3226 18 l 1
 3279 18 3365 36 3329 130 c 2
 2401 2352 l 1
 1528 99 l 1
 1577 13 1644 18 1658 18 c 1
 1658 0 l 1
 1259 0 l 1
 1259 18 l 1
 1313 18 1404 40 1366 130 c 2
 309 2661 l 2
 267 2762 233 2782 157 2782 c 1
 157 2800 l 1
 542 2800 l 1
 542 2782 l 1
 453 2782 406 2775 453 2661 c 2
 1514 121 l 1
 2392 2379 l 1
 2276 2661 l 2
 2234 2763 2204 2782 2128 2782 c 1
 2128 2800 l 1
 2513 2800 l 1
 2513 2782 l 1
 2424 2782 2377 2774 2424 2661 c 2
 3481 121 l 1
 4488 2703 l 2
 4518 2780 4425 2782 4407 2782 c 1
 4407 2800 l 1
 4618 2800 l 1
 4618 2782 l 1
 4564 2782 4527 2754 4511 2715 c 2
EndSplineSet
Position2: "'cpsp' Capital Spacing in Latin lookup 0 subtable" dx=5 dy=0 dh=10 dv=0
EndChar

StartChar: Wacute
Encoding: 7810 7810 102
Width: 4775
GlyphClass: 2
Flags: MW
HStem: 0 21G<1259 1658 1259 1259 3226 3624 3226 3226> 2780 20G<157 542 542 542 2128 2513 2513 2513 4407 4618 4618 4618> 2975 21G<2069 2069> 3259 20G<2683 2683>
AnchorPoint: "Anchor-6" 2347 2195 basechar 0
AnchorPoint: "Anchor-4" 2464 0 basechar 0
LayerCount: 2
Fore
SplineSet
2683 3279 m 1
 2714 3190 l 1
 2526 3163 2069 2975 2069 2975 c 1
 2065 2988 l 1
 2065 2988 2517 3167 2683 3279 c 1
4511 2715 m 2
 3494 99 l 1
 3544 13 3611 18 3624 18 c 1
 3624 0 l 1
 3226 0 l 1
 3226 18 l 1
 3279 18 3365 36 3329 130 c 2
 2401 2352 l 1
 1528 99 l 1
 1577 13 1644 18 1658 18 c 1
 1658 0 l 1
 1259 0 l 1
 1259 18 l 1
 1313 18 1404 40 1366 130 c 2
 309 2661 l 2
 267 2762 233 2782 157 2782 c 1
 157 2800 l 1
 542 2800 l 1
 542 2782 l 1
 453 2782 406 2775 453 2661 c 2
 1514 121 l 1
 2392 2379 l 1
 2276 2661 l 2
 2234 2763 2204 2782 2128 2782 c 1
 2128 2800 l 1
 2513 2800 l 1
 2513 2782 l 1
 2424 2782 2377 2774 2424 2661 c 2
 3481 121 l 1
 4488 2703 l 2
 4518 2780 4425 2782 4407 2782 c 1
 4407 2800 l 1
 4618 2800 l 1
 4618 2782 l 1
 4564 2782 4527 2754 4511 2715 c 2
EndSplineSet
Position2: "'cpsp' Capital Spacing in Latin lookup 0 subtable" dx=5 dy=0 dh=10 dv=0
EndChar

StartChar: Wcircumflex
Encoding: 372 372 103
Width: 4775
GlyphClass: 2
Flags: MW
HStem: 0 21G<1259 1658 1259 1259 3226 3624 3226 3226> 2780 20G<157 542 542 542 2128 2513 2513 2513 4407 4618 4618 4618> 2988 21G<1959 1959 2819 2819> 3349 20G
AnchorPoint: "Anchor-6" 2389 2195 basechar 0
AnchorPoint: "Anchor-4" 2464 0 basechar 0
LayerCount: 2
Fore
SplineSet
2389 3369 m 1
 2509 3261 2720 3087 2828 3001 c 1
 2819 2988 l 1
 2720 3064 2536 3199 2389 3266 c 1
 2242 3199 2058 3064 1959 2988 c 1
 1950 3001 l 1
 2058 3087 2269 3261 2389 3369 c 1
4511 2715 m 2
 3494 99 l 1
 3544 13 3611 18 3624 18 c 1
 3624 0 l 1
 3226 0 l 1
 3226 18 l 1
 3279 18 3365 36 3329 130 c 2
 2401 2352 l 1
 1528 99 l 1
 1577 13 1644 18 1658 18 c 1
 1658 0 l 1
 1259 0 l 1
 1259 18 l 1
 1313 18 1404 40 1366 130 c 2
 309 2661 l 2
 267 2762 233 2782 157 2782 c 1
 157 2800 l 1
 542 2800 l 1
 542 2782 l 1
 453 2782 406 2775 453 2661 c 2
 1514 121 l 1
 2392 2379 l 1
 2276 2661 l 2
 2234 2763 2204 2782 2128 2782 c 1
 2128 2800 l 1
 2513 2800 l 1
 2513 2782 l 1
 2424 2782 2377 2774 2424 2661 c 2
 3481 121 l 1
 4488 2703 l 2
 4518 2780 4425 2782 4407 2782 c 1
 4407 2800 l 1
 4618 2800 l 1
 4618 2782 l 1
 4564 2782 4527 2754 4511 2715 c 2
EndSplineSet
Position2: "'cpsp' Capital Spacing in Latin lookup 0 subtable" dx=5 dy=0 dh=10 dv=0
EndChar

StartChar: Wdieresis
Encoding: 7812 7812 104
Width: 4775
GlyphClass: 2
Flags: MW
HStem: 0 21G<1259 1658 1259 1259 3226 3624 3226 3226> 2780 20G<157 542 542 542 2128 2513 2513 2513 4407 4618 4618 4618> 3042 116<2172 2204 2441 2473>
AnchorPoint: "Anchor-6" 2323 2200 basechar 0
AnchorPoint: "Anchor-4" 2464 0 basechar 0
LayerCount: 2
Fore
SplineSet
2130 3100 m 0
 2130 3132 2156 3158 2188 3158 c 0
 2220 3158 2246 3132 2246 3100 c 0
 2246 3068 2220 3042 2188 3042 c 0
 2156 3042 2130 3068 2130 3100 c 0
2399 3100 m 0
 2399 3132 2425 3158 2457 3158 c 0
 2489 3158 2515 3132 2515 3100 c 0
 2515 3068 2489 3042 2457 3042 c 0
 2425 3042 2399 3068 2399 3100 c 0
4511 2715 m 2
 3494 99 l 1
 3544 13 3611 18 3624 18 c 1
 3624 0 l 1
 3226 0 l 1
 3226 18 l 1
 3279 18 3365 36 3329 130 c 2
 2401 2352 l 1
 1528 99 l 1
 1577 13 1644 18 1658 18 c 1
 1658 0 l 1
 1259 0 l 1
 1259 18 l 1
 1313 18 1404 40 1366 130 c 2
 309 2661 l 2
 267 2762 233 2782 157 2782 c 1
 157 2800 l 1
 542 2800 l 1
 542 2782 l 1
 453 2782 406 2775 453 2661 c 2
 1514 121 l 1
 2392 2379 l 1
 2276 2661 l 2
 2234 2763 2204 2782 2128 2782 c 1
 2128 2800 l 1
 2513 2800 l 1
 2513 2782 l 1
 2424 2782 2377 2774 2424 2661 c 2
 3481 121 l 1
 4488 2703 l 2
 4518 2780 4425 2782 4407 2782 c 1
 4407 2800 l 1
 4618 2800 l 1
 4618 2782 l 1
 4564 2782 4527 2754 4511 2715 c 2
EndSplineSet
Position2: "'cpsp' Capital Spacing in Latin lookup 0 subtable" dx=5 dy=0 dh=10 dv=0
EndChar

StartChar: Wgrave
Encoding: 7808 7808 105
Width: 4775
GlyphClass: 2
Flags: MW
HStem: 0 21G<1259 1658 1259 1259 3226 3624 3226 3226> 2780 20G<157 542 542 542 2128 2513 2513 2513 4407 4618 4618 4618> 2975 21G<2710 2710> 3259 20G<2096 2096>
AnchorPoint: "Anchor-6" 2351 2195 basechar 0
AnchorPoint: "Anchor-4" 2464 0 basechar 0
LayerCount: 2
Fore
SplineSet
2065 3190 m 1
 2096 3279 l 1
 2262 3167 2714 2988 2714 2988 c 1
 2710 2975 l 1
 2710 2975 2253 3163 2065 3190 c 1
4511 2715 m 2
 3494 99 l 1
 3544 13 3611 18 3624 18 c 1
 3624 0 l 1
 3226 0 l 1
 3226 18 l 1
 3279 18 3365 36 3329 130 c 2
 2401 2352 l 1
 1528 99 l 1
 1577 13 1644 18 1658 18 c 1
 1658 0 l 1
 1259 0 l 1
 1259 18 l 1
 1313 18 1404 40 1366 130 c 2
 309 2661 l 2
 267 2762 233 2782 157 2782 c 1
 157 2800 l 1
 542 2800 l 1
 542 2782 l 1
 453 2782 406 2775 453 2661 c 2
 1514 121 l 1
 2392 2379 l 1
 2276 2661 l 2
 2234 2763 2204 2782 2128 2782 c 1
 2128 2800 l 1
 2513 2800 l 1
 2513 2782 l 1
 2424 2782 2377 2774 2424 2661 c 2
 3481 121 l 1
 4488 2703 l 2
 4518 2780 4425 2782 4407 2782 c 1
 4407 2800 l 1
 4618 2800 l 1
 4618 2782 l 1
 4564 2782 4527 2754 4511 2715 c 2
EndSplineSet
Position2: "'cpsp' Capital Spacing in Latin lookup 0 subtable" dx=5 dy=0 dh=10 dv=0
EndChar

StartChar: X
Encoding: 88 88 106
Width: 1815
GlyphClass: 2
Flags: MW
HStem: 0 21G<161 408 161 161 1272 1658 1272 1272> 2780 20G<157 542 542 542 1272 1519 1519 1519>
AnchorPoint: "Anchor-6" 905 2800 basechar 0
AnchorPoint: "Anchor-4" 905 0 basechar 0
LayerCount: 2
Fore
SplineSet
1375 2684 m 2
 909 1541 l 1
 1496 139 l 2
 1540 36 1584 18 1658 18 c 1
 1658 0 l 1
 1272 0 l 1
 1272 18 l 1
 1359 18 1401 26 1353 139 c 2
 833 1371 l 1
 323 112 l 2
 285 19 394 18 408 18 c 1
 408 0 l 1
 161 0 l 1
 161 18 l 1
 188 18 l 2
 220 18 268 36 300 117 c 2
 820 1402 l 1
 300 2661 l 2
 258 2763 220 2782 157 2782 c 1
 157 2800 l 1
 542 2800 l 1
 542 2782 l 1
 453 2782 397 2775 444 2661 c 2
 896 1573 l 1
 1353 2688 l 2
 1393 2787 1286 2782 1272 2782 c 1
 1272 2800 l 1
 1519 2800 l 1
 1519 2782 l 1
 1492 2782 l 2
 1461 2782 1407 2764 1375 2684 c 2
EndSplineSet
Position2: "'cpsp' Capital Spacing in Latin lookup 0 subtable" dx=5 dy=0 dh=10 dv=0
EndChar

StartChar: Y
Encoding: 89 89 107
Width: 2054
GlyphClass: 2
Flags: MW
HStem: 0 21G<843 1230 843 843> 2780 20G<135 521 521 521 1673 1919 1919 1919>
VStem: 969 135<134 1492 1492 1492>
AnchorPoint: "Anchor-6" 1054 2195 basechar 0
AnchorPoint: "Anchor-4" 1027 0 basechar 0
LayerCount: 2
Fore
SplineSet
1673 2782 m 1
 1673 2800 l 1
 1919 2800 l 1
 1919 2782 l 1
 1852 2782 1825 2769 1772 2679 c 2
 1104 1540 l 1
 1104 134 l 2
 1104 40 1149 18 1230 18 c 1
 1230 0 l 1
 843 0 l 1
 843 18 l 1
 924 18 969 40 969 134 c 2
 969 1492 l 1
 274 2688 l 2
 234 2755 198 2782 135 2782 c 1
 135 2800 l 1
 521 2800 l 1
 521 2782 l 1
 418 2782 393 2751 424 2697 c 2
 1089 1550 l 1
 1758 2688 l 2
 1808 2773 1687 2782 1673 2782 c 1
EndSplineSet
Position2: "'cpsp' Capital Spacing in Latin lookup 0 subtable" dx=5 dy=0 dh=10 dv=0
EndChar

StartChar: Yacute
Encoding: 221 221 108
Width: 2054
GlyphClass: 2
Flags: MW
HStem: 0 21G<843 1230 843 843> 2780 20G<135 521 521 521 1673 1919 1919 1919> 2975 21G<705 705> 3259 20G<1319 1319>
VStem: 969 135<134 1492 1492 1492>
AnchorPoint: "Anchor-6" 983 2195 basechar 0
AnchorPoint: "Anchor-4" 1027 0 basechar 0
LayerCount: 2
Fore
SplineSet
1319 3279 m 1
 1350 3190 l 1
 1162 3163 705 2975 705 2975 c 1
 701 2988 l 1
 701 2988 1153 3167 1319 3279 c 1
1673 2782 m 1
 1673 2800 l 1
 1919 2800 l 1
 1919 2782 l 1
 1852 2782 1825 2769 1772 2679 c 2
 1104 1540 l 1
 1104 134 l 2
 1104 40 1149 18 1230 18 c 1
 1230 0 l 1
 843 0 l 1
 843 18 l 1
 924 18 969 40 969 134 c 2
 969 1492 l 1
 274 2688 l 2
 234 2755 198 2782 135 2782 c 1
 135 2800 l 1
 521 2800 l 1
 521 2782 l 1
 418 2782 393 2751 424 2697 c 2
 1089 1550 l 1
 1758 2688 l 2
 1808 2773 1687 2782 1673 2782 c 1
EndSplineSet
Position2: "'cpsp' Capital Spacing in Latin lookup 0 subtable" dx=5 dy=0 dh=10 dv=0
EndChar

StartChar: Ycircumflex
Encoding: 374 374 109
Width: 2054
GlyphClass: 2
Flags: MW
HStem: 0 21G<843 1230 843 843> 2780 20G<135 521 521 521 1673 1919 1919 1919> 2988 21G<595 595 1455 1455> 3349 20G
VStem: 969 135<134 1492 1492 1492>
AnchorPoint: "Anchor-6" 1025 2195 basechar 0
AnchorPoint: "Anchor-4" 1027 0 basechar 0
LayerCount: 2
Fore
SplineSet
1025 3369 m 1
 1145 3261 1356 3087 1464 3001 c 1
 1455 2988 l 1
 1356 3064 1172 3199 1025 3266 c 1
 878 3199 694 3064 595 2988 c 1
 586 3001 l 1
 694 3087 905 3261 1025 3369 c 1
1673 2782 m 1
 1673 2800 l 1
 1919 2800 l 1
 1919 2782 l 1
 1852 2782 1825 2769 1772 2679 c 2
 1104 1540 l 1
 1104 134 l 2
 1104 40 1149 18 1230 18 c 1
 1230 0 l 1
 843 0 l 1
 843 18 l 1
 924 18 969 40 969 134 c 2
 969 1492 l 1
 274 2688 l 2
 234 2755 198 2782 135 2782 c 1
 135 2800 l 1
 521 2800 l 1
 521 2782 l 1
 418 2782 393 2751 424 2697 c 2
 1089 1550 l 1
 1758 2688 l 2
 1808 2773 1687 2782 1673 2782 c 1
EndSplineSet
Position2: "'cpsp' Capital Spacing in Latin lookup 0 subtable" dx=5 dy=0 dh=10 dv=0
EndChar

StartChar: Ydieresis
Encoding: 376 376 110
Width: 2054
GlyphClass: 2
Flags: MW
HStem: 0 21G<843 1230 843 843> 2780 20G<135 521 521 521 1673 1919 1919 1919> 3042 116<900 932 1169 1201>
VStem: 969 135<134 1492 1492 1492>
AnchorPoint: "Anchor-6" 1051 2200 basechar 0
AnchorPoint: "Anchor-4" 1027 0 basechar 0
LayerCount: 2
Fore
SplineSet
858 3100 m 0
 858 3132 884 3158 916 3158 c 0
 948 3158 974 3132 974 3100 c 0
 974 3068 948 3042 916 3042 c 0
 884 3042 858 3068 858 3100 c 0
1127 3100 m 0
 1127 3132 1153 3158 1185 3158 c 0
 1217 3158 1243 3132 1243 3100 c 0
 1243 3068 1217 3042 1185 3042 c 0
 1153 3042 1127 3068 1127 3100 c 0
1673 2782 m 1
 1673 2800 l 1
 1919 2800 l 1
 1919 2782 l 1
 1852 2782 1825 2769 1772 2679 c 2
 1104 1540 l 1
 1104 134 l 2
 1104 40 1149 18 1230 18 c 1
 1230 0 l 1
 843 0 l 1
 843 18 l 1
 924 18 969 40 969 134 c 2
 969 1492 l 1
 274 2688 l 2
 234 2755 198 2782 135 2782 c 1
 135 2800 l 1
 521 2800 l 1
 521 2782 l 1
 418 2782 393 2751 424 2697 c 2
 1089 1550 l 1
 1758 2688 l 2
 1808 2773 1687 2782 1673 2782 c 1
EndSplineSet
Position2: "'cpsp' Capital Spacing in Latin lookup 0 subtable" dx=5 dy=0 dh=10 dv=0
EndChar

StartChar: Ygrave
Encoding: 7922 7922 111
Width: 2054
GlyphClass: 2
Flags: MW
HStem: 0 21G<843 1230 843 843> 2780 20G<135 521 521 521 1673 1919 1919 1919> 2975 21G<1346 1346> 3259 20G<732 732>
VStem: 969 135<134 1492 1492 1492>
AnchorPoint: "Anchor-6" 987 2195 basechar 0
AnchorPoint: "Anchor-4" 1027 0 basechar 0
LayerCount: 2
Fore
SplineSet
701 3190 m 1
 732 3279 l 1
 898 3167 1350 2988 1350 2988 c 1
 1346 2975 l 1
 1346 2975 889 3163 701 3190 c 1
1673 2782 m 1
 1673 2800 l 1
 1919 2800 l 1
 1919 2782 l 1
 1852 2782 1825 2769 1772 2679 c 2
 1104 1540 l 1
 1104 134 l 2
 1104 40 1149 18 1230 18 c 1
 1230 0 l 1
 843 0 l 1
 843 18 l 1
 924 18 969 40 969 134 c 2
 969 1492 l 1
 274 2688 l 2
 234 2755 198 2782 135 2782 c 1
 135 2800 l 1
 521 2800 l 1
 521 2782 l 1
 418 2782 393 2751 424 2697 c 2
 1089 1550 l 1
 1758 2688 l 2
 1808 2773 1687 2782 1673 2782 c 1
EndSplineSet
Position2: "'cpsp' Capital Spacing in Latin lookup 0 subtable" dx=5 dy=0 dh=10 dv=0
EndChar

StartChar: Z
Encoding: 90 90 112
Width: 1752
GlyphClass: 2
Flags: MW
HStem: 0 18<457 1362 1362 1437.5> 2782 18<374.5 444 444 1245>
AnchorPoint: "Anchor-6" 878 2195 basechar 0
AnchorPoint: "Anchor-4" 878 0 basechar 0
LayerCount: 2
Fore
SplineSet
1595 278 m 1
 1595 0 l 1
 157 0 l 1
 1317 2684 l 2
 1355 2769 1286 2782 1245 2782 c 2
 444 2782 l 2
 305 2782 243 2681 229 2522 c 1
 211 2522 l 1
 211 2800 l 1
 1514 2800 l 1
 358 130 l 2
 319 40 403 18 457 18 c 2
 1362 18 l 2
 1513 18 1565 139 1577 278 c 1
 1595 278 l 1
EndSplineSet
Position2: "'cpsp' Capital Spacing in Latin lookup 0 subtable" dx=5 dy=0 dh=10 dv=0
EndChar

StartChar: Zacute
Encoding: 377 377 113
Width: 1752
GlyphClass: 2
Flags: MW
HStem: 0 18<457 1362 1362 1437.5> 2782 18<374.5 444 444 1245> 2975 21G<600 600> 3259 20G<1214 1214>
AnchorPoint: "Anchor-6" 878 2195 basechar 0
AnchorPoint: "Anchor-4" 878 0 basechar 0
LayerCount: 2
Fore
SplineSet
1214 3279 m 1
 1245 3190 l 1
 1057 3163 600 2975 600 2975 c 1
 596 2988 l 1
 596 2988 1048 3167 1214 3279 c 1
1595 278 m 1
 1595 0 l 1
 157 0 l 1
 1317 2684 l 2
 1355 2769 1286 2782 1245 2782 c 2
 444 2782 l 2
 305 2782 243 2681 229 2522 c 1
 211 2522 l 1
 211 2800 l 1
 1514 2800 l 1
 358 130 l 2
 319 40 403 18 457 18 c 2
 1362 18 l 2
 1513 18 1565 139 1577 278 c 1
 1595 278 l 1
EndSplineSet
Position2: "'cpsp' Capital Spacing in Latin lookup 0 subtable" dx=5 dy=0 dh=10 dv=0
EndChar

StartChar: Zcaron
Encoding: 381 381 114
Width: 1752
GlyphClass: 2
Flags: MW
HStem: 0 18<457 1362 1362 1437.5> 2782 18<374.5 444 444 1245> 2916 21G 3277 20G<448 448 1308 1308>
AnchorPoint: "Anchor-6" 878 2195 basechar 0
AnchorPoint: "Anchor-4" 878 0 basechar 0
LayerCount: 2
Fore
SplineSet
878 2916 m 1
 758 3024 547 3198 439 3284 c 1
 448 3297 l 1
 547 3221 731 3086 878 3019 c 1
 1025 3086 1209 3221 1308 3297 c 1
 1317 3284 l 1
 1209 3198 998 3024 878 2916 c 1
1595 278 m 1
 1595 0 l 1
 157 0 l 1
 1317 2684 l 2
 1355 2769 1286 2782 1245 2782 c 2
 444 2782 l 2
 305 2782 243 2681 229 2522 c 1
 211 2522 l 1
 211 2800 l 1
 1514 2800 l 1
 358 130 l 2
 319 40 403 18 457 18 c 2
 1362 18 l 2
 1513 18 1565 139 1577 278 c 1
 1595 278 l 1
EndSplineSet
Position2: "'cpsp' Capital Spacing in Latin lookup 0 subtable" dx=5 dy=0 dh=10 dv=0
EndChar

StartChar: Zdotaccent
Encoding: 379 379 115
Width: 1752
GlyphClass: 2
Flags: MW
HStem: 0 18<457 1362 1362 1437.5> 2782 18<374.5 444 444 1245> 3051 21G<851 905> 3219 20G<851 905>
VStem: 784 188<3118 3172>
AnchorPoint: "Anchor-6" 878 2195 basechar 0
AnchorPoint: "Anchor-4" 878 0 basechar 0
LayerCount: 2
Fore
SplineSet
878 3051 m 0
 824 3051 784 3091 784 3145 c 0
 784 3199 824 3239 878 3239 c 0
 932 3239 972 3199 972 3145 c 0
 972 3091 932 3051 878 3051 c 0
1595 278 m 1
 1595 0 l 1
 157 0 l 1
 1317 2684 l 2
 1355 2769 1286 2782 1245 2782 c 2
 444 2782 l 2
 305 2782 243 2681 229 2522 c 1
 211 2522 l 1
 211 2800 l 1
 1514 2800 l 1
 358 130 l 2
 319 40 403 18 457 18 c 2
 1362 18 l 2
 1513 18 1565 139 1577 278 c 1
 1595 278 l 1
EndSplineSet
Position2: "'cpsp' Capital Spacing in Latin lookup 0 subtable" dx=5 dy=0 dh=10 dv=0
EndChar

StartChar: uni0122
Encoding: 290 290 116
Width: 3598
GlyphClass: 2
Flags: MW
HStem: -632 21G<1605 1605> -293 20G<1580 1636> -13 80<1303.5 1890.5> 1281 18<2236 2908 2236 3485 2979 2979 2979 3485> 2733 80<1180.5 1729.5>
VStem: 157 80<1126.5 1789.5>
AnchorPoint: "Anchor-6" 1568 2195 basechar 0
AnchorPoint: "Anchor-4" 1608 -497 basechar 0
LayerCount: 2
Fore
SplineSet
1577 -13 m 0
 780 -13 157 632 157 1402 c 0
 157 2177 793 2813 1568 2813 c 0
 2177 2813 2684 2437 2890 1917 c 1
 2751 1917 l 1
 2504 2392 2007 2733 1452 2733 c 0
 762 2733 237 2208 237 1514 c 0
 237 739 914 67 1693 67 c 0
 2377 67 2901 595 2908 1281 c 1
 2236 1281 l 1
 2236 1299 l 1
 3485 1299 l 1
 3485 1281 l 1
 2979 1281 l 1
 2979 67 l 1
 2961 67 l 1
 2921 977 l 1
 2782 421 2204 -13 1577 -13 c 0
1605 -632 m 1
 1582 -618 l 1
 1600 -574 1618 -520 1623 -475 c 1
 1554 -477 1506 -439 1506 -381 c 0
 1506 -318 1551 -273 1609 -273 c 0
 1663 -273 1712 -318 1712 -381 c 0
 1712 -421 1703 -457 1605 -632 c 1
EndSplineSet
Position2: "'cpsp' Capital Spacing in Latin lookup 0 subtable" dx=5 dy=0 dh=10 dv=0
EndChar

StartChar: uni0136
Encoding: 310 310 117
Width: 2232
GlyphClass: 2
Flags: MW
HStem: -632 21G<1105 1105> -293 20G<1080 1136> 0 21G<179 564 179 179 1694 1694 1694 2098> 2780 20G<179 564 564 564 1645 1887 1887 1887>
VStem: 304 135<134 1307 1334 2666>
AnchorPoint: "Anchor-6" 1108 2195 basechar 0
AnchorPoint: "Anchor-4" 1108 -497 basechar 0
LayerCount: 2
Fore
SplineSet
564 18 m 1
 564 0 l 1
 179 0 l 1
 179 18 l 1
 259 18 304 40 304 134 c 2
 304 2666 l 2
 304 2760 259 2782 179 2782 c 1
 179 2800 l 1
 564 2800 l 1
 564 2782 l 1
 484 2782 439 2760 439 2666 c 2
 439 1334 l 1
 1730 2715 l 2
 1756 2743 1757 2782 1645 2782 c 1
 1645 2800 l 1
 1887 2800 l 1
 1887 2782 l 1
 1865 2782 l 2
 1820 2782 1793 2755 1744 2701 c 2
 691 1577 l 1
 1941 117 l 2
 1990 58 2022 18 2098 18 c 1
 2098 0 l 1
 1694 0 l 1
 1694 18 l 1
 1708 18 1824 40 1762 121 c 2
 664 1550 l 1
 439 1307 l 1
 439 134 l 2
 439 40 484 18 564 18 c 1
1105 -632 m 1
 1082 -618 l 1
 1100 -574 1118 -520 1123 -475 c 1
 1054 -477 1006 -439 1006 -381 c 0
 1006 -318 1051 -273 1109 -273 c 0
 1163 -273 1212 -318 1212 -381 c 0
 1212 -421 1203 -457 1105 -632 c 1
EndSplineSet
Position2: "'cpsp' Capital Spacing in Latin lookup 0 subtable" dx=5 dy=0 dh=10 dv=0
EndChar

StartChar: uni013B
Encoding: 315 315 118
Width: 1582
GlyphClass: 2
Flags: MW
HStem: -632 21G<777 777> -293 20G<752 808> 0 18<184 224 570 1193 1193 1302.5 184 224> 2780 20G<179 566 566 566>
VStem: 305 135<134 2666>
AnchorPoint: "Anchor-7" 780 1402 basechar 0
AnchorPoint: "Anchor-6" 376 2195 basechar 0
AnchorPoint: "Anchor-4" 780 -497 basechar 0
LayerCount: 2
Fore
SplineSet
570 18 m 2
 1193 18 l 2
 1412 18 1408 278 1408 278 c 1
 1426 278 l 1
 1426 0 l 1
 184 0 l 1
 184 18 l 1
 264 18 305 40 305 134 c 2
 305 2666 l 2
 305 2760 260 2782 179 2782 c 1
 179 2800 l 1
 566 2800 l 1
 566 2782 l 1
 485 2782 440 2760 440 2666 c 2
 440 134 l 2
 440 40 489 18 570 18 c 2
777 -632 m 1
 754 -618 l 1
 772 -574 790 -520 795 -475 c 1
 726 -477 678 -439 678 -381 c 0
 678 -318 723 -273 781 -273 c 0
 835 -273 884 -318 884 -381 c 0
 884 -421 875 -457 777 -632 c 1
EndSplineSet
Position2: "'cpsp' Capital Spacing in Latin lookup 0 subtable" dx=5 dy=0 dh=10 dv=0
EndChar

StartChar: uni0145
Encoding: 325 325 119
Width: 1457
GlyphClass: 2
Flags: MW
HStem: -587 21G<727 727> -248 20G<702 758> 0 21G<215 385 215 215 893 893 893 1278> 2780 20G<179 564 564 564 1061 1233 1233 1233>
VStem: 291 18<112 2701> 1138 18<142 2688 121 2735>
AnchorPoint: "Anchor-6" 730 2195 basechar 0
AnchorPoint: "Anchor-4" 730 -452 basechar 0
LayerCount: 2
Fore
SplineSet
385 18 m 1
 385 0 l 1
 215 0 l 1
 215 18 l 1
 255 18 291 18 291 112 c 2
 291 2728 l 1
 265 2787 195 2782 179 2782 c 1
 179 2800 l 1
 564 2800 l 1
 564 2782 l 1
 502 2782 433 2759 457 2670 c 2
 1138 142 l 1
 1138 2688 l 2
 1138 2782 1102 2782 1061 2782 c 1
 1061 2800 l 1
 1233 2800 l 1
 1233 2782 l 1
 1192 2782 1156 2782 1156 2688 c 2
 1156 121 l 1
 1197 27 1273 18 1278 18 c 1
 1278 0 l 1
 893 0 l 1
 893 18 l 1
 955 18 1029 13 1002 117 c 2
 309 2701 l 1
 309 112 l 2
 309 18 345 18 385 18 c 1
727 -587 m 1
 704 -573 l 1
 722 -529 740 -475 745 -430 c 1
 676 -432 628 -394 628 -336 c 0
 628 -273 673 -228 731 -228 c 0
 785 -228 834 -273 834 -336 c 0
 834 -376 825 -412 727 -587 c 1
EndSplineSet
Position2: "'cpsp' Capital Spacing in Latin lookup 0 subtable" dx=5 dy=0 dh=10 dv=0
EndChar

StartChar: uni0156
Encoding: 342 342 120
Width: 2357
GlyphClass: 2
Flags: MW
HStem: -677 21G<1229 1229> -338 20G<1204 1260> 0 21G<179 566 179 179 1801 1801 1801 2178> 2782 18<179 219.5 501 504 504 1318>
VStem: 305 135<134 2666 2666 2713> 1990 144<1803.5 2215.5>
AnchorPoint: "Anchor-6" 933 2195 basechar 0
AnchorPoint: "Anchor-4" 1232 -542 basechar 0
LayerCount: 2
Fore
SplineSet
566 18 m 1
 566 0 l 1
 179 0 l 1
 179 18 l 1
 260 18 305 40 305 134 c 2
 305 2666 l 2
 305 2760 260 2782 179 2782 c 1
 179 2800 l 1
 1318 2800 l 2
 1771 2800 2134 2442 2134 2003 c 0
 2134 1590 1815 1254 1408 1210 c 1
 2039 117 l 2
 2098 18 2144 18 2178 18 c 1
 2178 0 l 1
 1801 0 l 1
 1801 18 l 1
 1814 18 1931 31 1886 117 c 2
 482 2733 l 2
 477 2743 467 2746 460 2746 c 0
 449 2746 440 2737 440 2726 c 2
 440 134 l 2
 440 40 485 18 566 18 c 1
495 2764 m 2
 1394 1237 l 1
 1730 1277 1990 1604 1990 2003 c 0
 1990 2428 1690 2782 1318 2782 c 2
 504 2782 l 2
 498 2782 489 2776 495 2764 c 2
1229 -677 m 1
 1206 -663 l 1
 1224 -619 1242 -565 1247 -520 c 1
 1178 -522 1130 -484 1130 -426 c 0
 1130 -363 1175 -318 1233 -318 c 0
 1287 -318 1336 -363 1336 -426 c 0
 1336 -466 1327 -502 1229 -677 c 1
EndSplineSet
Position2: "'cpsp' Capital Spacing in Latin lookup 0 subtable" dx=5 dy=0 dh=10 dv=0
EndChar

StartChar: uni0162
Encoding: 354 354 121
Width: 1425
GlyphClass: 2
Flags: MW
HStem: -767 21G<604.5 801.5> -764 20G<613.5 797> -464 20G<369 392 392 392> -168 20G<674 723 674 674> 0 21G<520 705 520 520 728 905 728 728> 2780 20G<157 1268 1268 1268>
VStem: 645 135<134 2666>
AnchorPoint: "Anchor-7" 712 1434 basechar 0
AnchorPoint: "Anchor-6" 712 2195 basechar 0
AnchorPoint: "Anchor-4" 708 0 basechar 0
LayerCount: 2
Fore
SplineSet
157 2522 m 1xbe
 157 2800 l 1
 1268 2800 l 1
 1268 2522 l 1
 1250 2522 l 1
 1245 2660 1181 2782 1035 2782 c 2
 901 2782 l 2
 874 2782 780 2773 780 2666 c 2
 780 134 l 2
 780 40 825 18 905 18 c 1
 905 0 l 1
 728 0 l 1
 701 -126 l 1
 723 -126 l 2
 894 -126 1032 -265 1032 -440 c 0
 1032 -610 907 -767 696 -767 c 0xbe
 513 -767 374 -610 369 -444 c 1
 392 -444 l 1
 396 -592 531 -744 696 -744 c 0x7e
 898 -744 1010 -583 1010 -440 c 0
 1010 -278 880 -148 723 -148 c 2
 674 -148 l 1
 705 0 l 1
 520 0 l 1
 520 18 l 1
 600 18 645 40 645 134 c 2
 645 2666 l 2
 645 2773 551 2782 524 2782 c 2
 390 2782 l 2
 244 2782 180 2660 175 2522 c 1
 157 2522 l 1xbe
EndSplineSet
Substitution2: "'locl' Localized Forms in Latin lookup 5 subtable" uni021A
Substitution2: "'locl' Localized Forms in Latin lookup 4 subtable" uni021A
Substitution2: "'aalt' Access All Alternates in Latin lookup 0 subtable" uni021A
Position2: "'cpsp' Capital Spacing in Latin lookup 0 subtable" dx=5 dy=0 dh=10 dv=0
EndChar

StartChar: uni0218
Encoding: 536 536 122
Width: 2226
GlyphClass: 2
Flags: MW
HStem: -632 21G<1110 1110> -293 20G<1085 1141> -13 22<1021.5 1370.5 963 1400> 2778 35<777.5 939 721.5 1028>
VStem: 332 129<2199 2468> 1904 121<500 842.5>
AnchorPoint: "Anchor-6" 1116 2195 basechar 0
AnchorPoint: "Anchor-4" 1113 -497 basechar 0
LayerCount: 2
Fore
SplineSet
1169 -13 m 0
 874 -13 680 60 399 233 c 0
 360 257 342 260 321 260 c 0
 245 260 234 173 220 94 c 1
 202 94 l 1
 202 533 l 1
 220 533 l 1
 435 229 775 9 1151 9 c 0
 1590 9 1904 274 1904 650 c 0
 1904 1035 1513 1331 1098 1550 c 0
 663 1780 332 1971 332 2325 c 0
 332 2611 551 2813 892 2813 c 0
 986 2813 1086 2807 1281 2742 c 0
 1313 2731 1638 2625 1698 2612 c 1
 1698 2348 l 1
 1680 2348 l 1
 1685 2468 1629 2550 1528 2603 c 0
 1331 2706 1133 2778 923 2778 c 0
 632 2778 461 2620 461 2369 c 0
 461 2029 848 1869 1214 1658 c 0
 1649 1407 2025 1161 2025 708 c 0
 2025 292 1631 -13 1169 -13 c 0
1110 -632 m 1
 1087 -618 l 1
 1105 -574 1123 -520 1128 -475 c 1
 1059 -477 1011 -439 1011 -381 c 0
 1011 -318 1056 -273 1114 -273 c 0
 1168 -273 1217 -318 1217 -381 c 0
 1217 -421 1208 -457 1110 -632 c 1
EndSplineSet
Position2: "'cpsp' Capital Spacing in Latin lookup 0 subtable" dx=5 dy=0 dh=10 dv=0
EndChar

StartChar: uni021A
Encoding: 538 538 123
Width: 1425
GlyphClass: 2
Flags: MW
HStem: -632 21G<705 705> -293 20G<680 736> 0 21G<520 905 520 520> 2780 20G<157 1268 1268 1268>
VStem: 645 135<134 2666>
AnchorPoint: "Anchor-7" 712 1434 basechar 0
AnchorPoint: "Anchor-6" 712 2195 basechar 0
AnchorPoint: "Anchor-4" 708 -497 basechar 0
LayerCount: 2
Fore
SplineSet
905 18 m 1
 905 0 l 1
 520 0 l 1
 520 18 l 1
 600 18 645 40 645 134 c 2
 645 2666 l 2
 645 2773 551 2782 524 2782 c 2
 390 2782 l 2
 244 2782 180 2660 175 2522 c 1
 157 2522 l 1
 157 2800 l 1
 1268 2800 l 1
 1268 2522 l 1
 1250 2522 l 1
 1245 2660 1181 2782 1035 2782 c 2
 901 2782 l 2
 874 2782 780 2773 780 2666 c 2
 780 134 l 2
 780 40 825 18 905 18 c 1
705 -632 m 1
 682 -618 l 1
 700 -574 718 -520 723 -475 c 1
 654 -477 606 -439 606 -381 c 0
 606 -318 651 -273 709 -273 c 0
 763 -273 812 -318 812 -381 c 0
 812 -421 803 -457 705 -632 c 1
EndSplineSet
Position2: "'cpsp' Capital Spacing in Latin lookup 0 subtable" dx=5 dy=0 dh=10 dv=0
EndChar

StartChar: A.ss01
Encoding: 65538 -1 124
Width: 2773
GlyphClass: 2
Flags: MW
HStem: 0 21G<157 394 157 157 2236 2616 2236 2236> 874 18<614 2010 614 2018 609 2010> 2780 20G<1125 1517 1517 1517>
AnchorPoint: "Anchor-6" 1308 2150 basechar 0
AnchorPoint: "Anchor-5" 2540 45 basechar 0
AnchorPoint: "Anchor-4" 1384 0 basechar 0
LayerCount: 2
Fore
SplineSet
1411 2670 m 2
 2477 117 l 2
 2505 51 2547 14 2616 18 c 1
 2616 0 l 1
 2236 0 l 1
 2236 18 l 1
 2326 18 2350 76 2316 158 c 2
 2018 874 l 1
 609 874 l 1
 314 112 l 2
 276 14 376 18 394 18 c 1
 394 0 l 1
 157 0 l 1
 157 18 l 1
 233 18 266 39 296 117 c 2
 1277 2648 l 1
 1235 2773 1177 2782 1125 2782 c 1
 1125 2800 l 1
 1517 2800 l 1
 1517 2782 l 1
 1464 2782 1372 2764 1411 2670 c 2
2010 892 m 1
 1286 2625 l 1
 614 892 l 1
 2010 892 l 1
EndSplineSet
Position2: "'cpsp' Capital Spacing in Latin lookup 0 subtable" dx=5 dy=0 dh=10 dv=0
EndChar

StartChar: M.ss01
Encoding: 65539 -1 125
Width: 4769
Flags: MW
HStem: 0 21G<157 367 157 157 2261 2646 2261 2261 4223 4612 4223 4223> 2780 20G<1150 1549 1549 1549 3117 3507 3507 3507>
LayerCount: 2
Fore
SplineSet
3404 2670 m 2
 4468 117 l 2
 4510 18 4594 18 4612 18 c 1
 4612 0 l 1
 4223 0 l 1
 4223 18 l 1
 4237 18 4363 18 4322 117 c 2
 3256 2679 l 1
 2378 421 l 1
 2508 117 l 2
 2551 16 2633 18 2646 18 c 1
 2646 0 l 1
 2261 0 l 1
 2261 18 l 1
 2279 18 2400 20 2358 121 c 2
 1292 2683 l 1
 287 97 l 2
 257 20 349 18 367 18 c 1
 367 0 l 1
 157 0 l 1
 157 18 l 1
 211 18 248 46 263 85 c 2
 1280 2701 l 1
 1235 2782 1164 2782 1150 2782 c 1
 1150 2800 l 1
 1549 2800 l 1
 1549 2782 l 1
 1495 2782 1402 2764 1441 2670 c 2
 2369 453 l 1
 3247 2701 l 1
 3202 2782 3130 2782 3117 2782 c 1
 3117 2800 l 1
 3507 2800 l 1
 3507 2782 l 1
 3457 2782 3366 2760 3404 2670 c 2
EndSplineSet
Position2: "'cpsp' Capital Spacing in Latin lookup 0 subtable" dx=5 dy=0 dh=10 dv=0
EndChar

StartChar: N.ss01
Encoding: 65540 -1 126
Width: 2535
GlyphClass: 2
Flags: MW
HStem: -67 21G<886.5 1153> 0 21G<1981 2356 1981 1981> 2780 20G<179 546 546 546 2043 2302 2302 2302>
AnchorPoint: "Anchor-6" 990 2150 basechar 0
AnchorPoint: "Anchor-4" 990 2240 basechar 0
LayerCount: 2
Fore
SplineSet
1079 -67 m 0
 694 -67 363 233 363 645 c 2
 363 2630 l 1
 275 2766 226 2785 179 2782 c 1
 179 2800 l 1
 546 2800 l 1
 546 2782 l 1
 492 2782 422 2760 479 2675 c 2
 2163 157 l 1
 2163 2688 l 2
 2163 2782 2083 2782 2043 2782 c 1
 2043 2800 l 1
 2302 2800 l 1
 2302 2782 l 1
 2262 2782 2181 2782 2181 2688 c 2
 2181 130 l 1
 2240 45 2293 18 2356 18 c 1
 2356 0 l 1
 1981 0 l 1
 1981 18 l 1
 1995 18 2099 28 2048 103 c 2
 380 2598 l 1
 380 645 l 2
 380 255 699 -49 1079 -49 c 0
 1200 -49 1316 -22 1420 40 c 0
 1465 67 1544 138 1554 330 c 1
 1572 330 l 1
 1572 90 l 1
 1321 -40 1227 -67 1079 -67 c 0
EndSplineSet
Position2: "'cpsp' Capital Spacing in Latin lookup 0 subtable" dx=5 dy=0 dh=10 dv=0
EndChar

StartChar: R.ss01
Encoding: 65541 -1 127
Width: 2604
Flags: MW
HStem: -13 21G<1510 1848> 0 21G<179 565 179 179> 2782 18<179 219.5 524.5 565 565 1452>
VStem: 305 134<134 2666> 865 18<941 2253> 2137 143<1788 2215.5>
LayerCount: 2
Fore
SplineSet
1465 1205 m 1xbc
 1465 1228 l 1
 1832 1228 2137 1573 2137 2003 c 0
 2137 2428 1832 2782 1452 2782 c 2
 565 2782 l 2
 484 2782 439 2760 439 2666 c 2
 439 134 l 2
 439 40 484 18 565 18 c 1
 565 0 l 1
 179 0 l 1x7c
 179 18 l 1
 264 18 305 40 305 134 c 2
 305 2666 l 2
 305 2760 260 2782 179 2782 c 1
 179 2800 l 1
 1461 2800 l 2
 1913 2800 2280 2442 2280 2003 c 0
 2280 1559 1913 1205 1465 1205 c 1xbc
1761 -13 m 0xbc
 1259 -13 865 408 865 941 c 2
 865 2253 l 1
 883 2253 l 1
 883 941 l 2
 883 415 1277 5 1765 5 c 0
 1891 5 1998 36 2101 76 c 0
 2267 143 2316 202 2343 385 c 1
 2358 385 l 1
 2358 148 l 1
 2013 22 1935 -13 1761 -13 c 0xbc
EndSplineSet
Position2: "'cpsp' Capital Spacing in Latin lookup 0 subtable" dx=5 dy=0 dh=10 dv=0
EndChar

StartChar: U.ss01
Encoding: 65542 -1 128
Width: 2061
Flags: MW
HStem: -13 21G<894 1344> 2780 20G<179 565 565 565 775 1007 1007 1249.5>
VStem: 305 134<766 2666>
LayerCount: 2
Fore
SplineSet
439 2666 m 2
 439 739 l 2
 439 282 717 5 1129 5 c 0
 1555 5 1864 314 1864 694 c 2
 1864 1921 l 2
 1864 2409 1486 2782 1007 2782 c 0
 984 2782 793 2782 685 2581 c 1
 677 2581 l 1
 775 2800 l 1
 1007 2800 l 2
 1492 2800 1882 2424 1882 1931 c 2
 1882 694 l 2
 1882 291 1559 -13 1129 -13 c 0
 659 -13 305 296 305 766 c 2
 305 2666 l 2
 305 2760 260 2782 179 2782 c 1
 179 2800 l 1
 565 2800 l 1
 565 2782 l 1
 484 2782 439 2760 439 2666 c 2
EndSplineSet
Position2: "'cpsp' Capital Spacing in Latin lookup 0 subtable" dx=5 dy=0 dh=10 dv=0
EndChar

StartChar: A.ss02
Encoding: 65543 -1 129
Width: 1656
Flags: MW
HStem: 0 21G<134 336 134 134 1092 1092 1092 1477> 874 18<566 1217 566 1217 560 1217> 2780 20G<1092 1477 1477 1477>
VStem: 1217 135<134 874 874 874 892 2563 2563 2563 2612 2666>
LayerCount: 2
Fore
SplineSet
1217 134 m 2
 1217 874 l 1
 560 874 l 1
 263 112 l 2
 226 18 318 18 336 18 c 1
 336 0 l 1
 134 0 l 1
 134 18 l 1
 166 18 215 42 245 117 c 2
 1217 2612 l 1
 1217 2666 l 2
 1217 2760 1172 2782 1092 2782 c 1
 1092 2800 l 1
 1477 2800 l 1
 1477 2782 l 1
 1396 2782 1352 2760 1352 2666 c 2
 1352 134 l 2
 1352 40 1396 18 1477 18 c 1
 1477 0 l 1
 1092 0 l 1
 1092 18 l 1
 1172 18 1217 40 1217 134 c 2
1217 892 m 1
 1217 2563 l 1
 566 892 l 1
 1217 892 l 1
EndSplineSet
Position2: "'cpsp' Capital Spacing in Latin lookup 0 subtable" dx=5 dy=0 dh=10 dv=0
EndChar

StartChar: M.ss02
Encoding: 65544 -1 130
Width: 4121
Flags: MW
HStem: 0 21G<219 479 219 219 2119 2281 2119 2119 3557 3942 3557 3557> 2780 20G<179 591 591 591 3557 3942 3942 3942>
VStem: 3682 135<134 2652 2652 2652>
LayerCount: 2
Fore
SplineSet
340 112 m 2
 340 2652 l 1
 273 2760 228 2782 179 2782 c 1
 179 2800 l 1
 591 2800 l 1
 591 2782 l 1
 533 2782 427 2763 488 2670 c 2
 2120 237 l 1
 3682 2684 l 1
 3682 2761 3637 2782 3557 2782 c 1
 3557 2800 l 1
 3942 2800 l 1
 3942 2782 l 1
 3861 2782 3817 2760 3817 2666 c 2
 3817 134 l 2
 3817 40 3861 18 3942 18 c 1
 3942 0 l 1
 3557 0 l 1
 3557 18 l 1
 3637 18 3682 40 3682 134 c 2
 3682 2652 l 1
 2131 220 l 1
 2281 0 l 1
 2119 0 l 1
 358 2625 l 1
 358 112 l 2
 358 18 439 18 479 18 c 1
 479 0 l 1
 219 0 l 1
 219 18 l 1
 259 18 342 18 340 112 c 2
EndSplineSet
Position2: "'cpsp' Capital Spacing in Latin lookup 0 subtable" dx=5 dy=0 dh=10 dv=0
EndChar

StartChar: R.ss02
Encoding: 65545 -1 131
Width: 2791
Flags: MW
HStem: 0 21G<179 564 179 179 2288 2288 2288 2656> 2825 20G<1036.5 1526>
VStem: 304 135<134 2526 2526 2526>
LayerCount: 2
Fore
SplineSet
564 18 m 1
 564 0 l 1
 179 0 l 1
 179 18 l 1
 259 18 304 40 304 134 c 2
 304 2526 l 1
 680 2767 889 2845 1184 2845 c 0
 1868 2845 2428 2288 2428 1604 c 0
 2428 1237 2270 918 2027 694 c 1
 2487 134 l 2
 2557 49 2601 18 2648 18 c 2
 2656 18 l 1
 2656 0 l 1
 2288 0 l 1
 2288 18 l 1
 2300 18 2396 47 2349 109 c 2
 466 2568 l 2
 454 2583 439 2575 439 2563 c 2
 439 134 l 2
 439 40 483 18 564 18 c 1
466 2598 m 1
 2015 709 l 1
 2259 936 2410 1256 2410 1604 c 0
 2410 2271 1855 2827 1175 2827 c 0
 924 2827 673 2743 466 2598 c 1
EndSplineSet
Position2: "'cpsp' Capital Spacing in Latin lookup 0 subtable" dx=5 dy=0 dh=10 dv=0
EndChar

StartChar: U.ss02
Encoding: 65546 -1 132
Width: 2243
GlyphClass: 2
Flags: MW
HStem: -13 18<919 1323.5 919 1352.5> 2780 20G<179 565 565 565 1678 2064 2064 2064>
VStem: 305 134<757 2666> 1804 134<738 757 757 2666>
AnchorPoint: "Anchor-6" 1121 2240 basechar 0
AnchorPoint: "Anchor-5" 2053 45 basechar 0
AnchorPoint: "Anchor-4" 1121 0 basechar 0
LayerCount: 2
Fore
SplineSet
1121 5 m 0
 1526 5 1804 282 1804 738 c 2
 1804 2666 l 2
 1804 2760 1759 2782 1678 2782 c 1
 1678 2800 l 1
 2064 2800 l 1
 2064 2782 l 1
 1983 2782 1938 2760 1938 2666 c 2
 1938 757 l 2
 1938 296 1584 -13 1121 -13 c 0
 659 -13 305 296 305 757 c 2
 305 2666 l 2
 305 2760 260 2782 179 2782 c 1
 179 2800 l 1
 565 2800 l 1
 565 2782 l 1
 484 2782 439 2760 439 2666 c 2
 439 738 l 2
 439 282 717 5 1121 5 c 0
EndSplineSet
Position2: "'cpsp' Capital Spacing in Latin lookup 0 subtable" dx=5 dy=0 dh=10 dv=0
EndChar

StartChar: R.ss03
Encoding: 65547 -1 133
Width: 3085
Flags: MW
HStem: 358 18<1309.5 1588 1309.5 1591.5> 2825 20G<1113.5 1789.5>
VStem: 202 18<1433 1772.5 1433 1950> 576 135<134 602 624 718 718 718 742 2461 2461 2461> 2670 18<1437.5 1937.5>
LayerCount: 2
Fore
SplineSet
202 1602 m 0
 202 2298 780 2845 1447 2845 c 0
 2132 2845 2688 2288 2688 1604 c 0
 2688 1262 2545 935 2296 701 c 1
 2295 700 l 1
 2759 134 l 2
 2836 40 2873 18 2920 18 c 2
 2928 18 l 1
 2928 0 l 1
 2559 0 l 1
 2559 18 l 1
 2572 18 2675 39 2621 109 c 2
 2219 633 l 1
 2006 462 1738 358 1445 358 c 0
 1174 358 919 449 711 602 c 1
 711 134 l 2
 711 40 755 18 836 18 c 1
 836 0 l 1
 451 0 l 1
 451 18 l 1
 531 18 576 40 576 134 c 2
 576 718 l 1
 347 943 202 1255 202 1602 c 0
738 2598 m 1
 2283 714 l 1
 2285 716 l 1
 2526 944 2670 1271 2670 1604 c 0
 2670 2271 2127 2827 1447 2827 c 0
 1196 2827 944 2743 738 2598 c 1
711 2563 m 2
 711 624 l 1
 918 468 1174 376 1445 376 c 0
 1731 376 1997 479 2208 648 c 1
 738 2568 l 2
 726 2583 711 2575 711 2563 c 2
220 1602 m 0
 220 1264 358 962 576 742 c 1
 576 2461 l 1
 360 2240 220 1943 220 1602 c 0
EndSplineSet
Position2: "'cpsp' Capital Spacing in Latin lookup 0 subtable" dx=5 dy=0 dh=10 dv=0
EndChar

StartChar: a
Encoding: 97 97 134
Width: 2306
GlyphClass: 2
Flags: MW
HStem: 1 21G<1247.5 1333> 2780 20G<674 1059 1059 1059>
AnchorPoint: "Anchor-6" 880 2195 basechar 0
AnchorPoint: "Anchor-5" 2156 0 basechar 0
AnchorPoint: "Anchor-4" 827 0 basechar 0
LayerCount: 2
Fore
SplineSet
952 2670 m 2
 2018 117 l 2
 2062 15 2144 18 2157 18 c 1
 2157 0 l 1
 1772 0 l 1
 1772 18 l 1
 1790 18 1912 16 1870 117 c 2
 1374 1308 l 1
 276 1308 l 1
 240 1213 l 2
 197 1102 168 976 168 860 c 0
 168 542 346 257 632 119 c 0
 688 92 836 27 1107 23 c 0
 1156 22 1311 29 1413 221 c 1
 1431 221 l 1
 1333 1 l 1
 1162 1 1110 1 1074 3 c 0
 786 13 629 97 622 100 c 0
 330 243 148 534 148 860 c 0
 148 988 178 1107 226 1233 c 2
 791 2701 l 1
 761 2755 716 2779 674 2782 c 1
 674 2800 l 1
 1059 2800 l 1
 1059 2782 l 1
 1001 2782 913 2764 952 2670 c 2
804 2679 m 1
 283 1326 l 1
 1367 1326 l 1
 804 2679 l 1
EndSplineSet
EndChar

StartChar: aacute
Encoding: 225 225 135
Width: 2306
GlyphClass: 2
Flags: MW
HStem: 1 21G<1247.5 1333> 2780 20G<674 1059 1059 1059> 2975 21G<569 569> 3259 20G<1183 1183>
AnchorPoint: "Anchor-6" 847 2195 basechar 0
AnchorPoint: "Anchor-5" 2156 0 basechar 0
AnchorPoint: "Anchor-4" 827 0 basechar 0
LayerCount: 2
Fore
SplineSet
1183 3279 m 1
 1214 3190 l 1
 1026 3163 569 2975 569 2975 c 1
 565 2988 l 1
 565 2988 1017 3167 1183 3279 c 1
952 2670 m 2
 2018 117 l 2
 2062 15 2144 18 2157 18 c 1
 2157 0 l 1
 1772 0 l 1
 1772 18 l 1
 1790 18 1912 16 1870 117 c 2
 1374 1308 l 1
 276 1308 l 1
 240 1213 l 2
 197 1102 168 976 168 860 c 0
 168 542 346 257 632 119 c 0
 688 92 836 27 1107 23 c 0
 1156 22 1311 29 1413 221 c 1
 1431 221 l 1
 1333 1 l 1
 1162 1 1110 1 1074 3 c 0
 786 13 629 97 622 100 c 0
 330 243 148 534 148 860 c 0
 148 988 178 1107 226 1233 c 2
 791 2701 l 1
 761 2755 716 2779 674 2782 c 1
 674 2800 l 1
 1059 2800 l 1
 1059 2782 l 1
 1001 2782 913 2764 952 2670 c 2
804 2679 m 1
 283 1326 l 1
 1367 1326 l 1
 804 2679 l 1
EndSplineSet
EndChar

StartChar: abreve
Encoding: 259 259 136
Width: 2306
GlyphClass: 2
Flags: MW
HStem: 1 21G<1247.5 1333> 2780 20G<674 1059 1059 1059> 3087 21G<766 963.5> 3376 20G<385 466 466 466 1281 1299 1299 1299>
AnchorPoint: "Anchor-6" 847 2195 basechar 0
AnchorPoint: "Anchor-5" 2156 0 basechar 0
AnchorPoint: "Anchor-4" 827 0 basechar 0
LayerCount: 2
Fore
SplineSet
865 3087 m 0
 667 3087 457 3208 385 3396 c 1
 466 3396 l 1
 551 3234 730 3131 887 3131 c 0
 1066 3131 1227 3234 1281 3396 c 1
 1299 3396 l 1
 1227 3194 1062 3087 865 3087 c 0
952 2670 m 2
 2018 117 l 2
 2062 15 2144 18 2157 18 c 1
 2157 0 l 1
 1772 0 l 1
 1772 18 l 1
 1790 18 1912 16 1870 117 c 2
 1374 1308 l 1
 276 1308 l 1
 240 1213 l 2
 197 1102 168 976 168 860 c 0
 168 542 346 257 632 119 c 0
 688 92 836 27 1107 23 c 0
 1156 22 1311 29 1413 221 c 1
 1431 221 l 1
 1333 1 l 1
 1162 1 1110 1 1074 3 c 0
 786 13 629 97 622 100 c 0
 330 243 148 534 148 860 c 0
 148 988 178 1107 226 1233 c 2
 791 2701 l 1
 761 2755 716 2779 674 2782 c 1
 674 2800 l 1
 1059 2800 l 1
 1059 2782 l 1
 1001 2782 913 2764 952 2670 c 2
804 2679 m 1
 283 1326 l 1
 1367 1326 l 1
 804 2679 l 1
EndSplineSet
EndChar

StartChar: acircumflex
Encoding: 226 226 137
Width: 2306
GlyphClass: 2
Flags: MW
HStem: 1 21G<1247.5 1333> 2780 20G<674 1059 1059 1059> 2988 21G<416 416 1276 1276> 3349 20G
AnchorPoint: "Anchor-6" 846 2195 basechar 0
AnchorPoint: "Anchor-5" 2156 0 basechar 0
AnchorPoint: "Anchor-4" 827 0 basechar 0
LayerCount: 2
Fore
SplineSet
846 3369 m 1
 966 3261 1177 3087 1285 3001 c 1
 1276 2988 l 1
 1177 3064 993 3199 846 3266 c 1
 699 3199 515 3064 416 2988 c 1
 407 3001 l 1
 515 3087 726 3261 846 3369 c 1
952 2670 m 2
 2018 117 l 2
 2062 15 2144 18 2157 18 c 1
 2157 0 l 1
 1772 0 l 1
 1772 18 l 1
 1790 18 1912 16 1870 117 c 2
 1374 1308 l 1
 276 1308 l 1
 240 1213 l 2
 197 1102 168 976 168 860 c 0
 168 542 346 257 632 119 c 0
 688 92 836 27 1107 23 c 0
 1156 22 1311 29 1413 221 c 1
 1431 221 l 1
 1333 1 l 1
 1162 1 1110 1 1074 3 c 0
 786 13 629 97 622 100 c 0
 330 243 148 534 148 860 c 0
 148 988 178 1107 226 1233 c 2
 791 2701 l 1
 761 2755 716 2779 674 2782 c 1
 674 2800 l 1
 1059 2800 l 1
 1059 2782 l 1
 1001 2782 913 2764 952 2670 c 2
804 2679 m 1
 283 1326 l 1
 1367 1326 l 1
 804 2679 l 1
EndSplineSet
EndChar

StartChar: adieresis
Encoding: 228 228 138
Width: 2306
GlyphClass: 2
Flags: MW
HStem: 1 21G<1247.5 1333> 2780 20G<674 1059 1059 1059> 3042 116<709 741 978 1010>
AnchorPoint: "Anchor-6" 860 2200 basechar 0
AnchorPoint: "Anchor-5" 2156 0 basechar 0
AnchorPoint: "Anchor-4" 827 0 basechar 0
LayerCount: 2
Fore
SplineSet
667 3100 m 0
 667 3132 693 3158 725 3158 c 0
 757 3158 783 3132 783 3100 c 0
 783 3068 757 3042 725 3042 c 0
 693 3042 667 3068 667 3100 c 0
936 3100 m 0
 936 3132 962 3158 994 3158 c 0
 1026 3158 1052 3132 1052 3100 c 0
 1052 3068 1026 3042 994 3042 c 0
 962 3042 936 3068 936 3100 c 0
952 2670 m 2
 2018 117 l 2
 2062 15 2144 18 2157 18 c 1
 2157 0 l 1
 1772 0 l 1
 1772 18 l 1
 1790 18 1912 16 1870 117 c 2
 1374 1308 l 1
 276 1308 l 1
 240 1213 l 2
 197 1102 168 976 168 860 c 0
 168 542 346 257 632 119 c 0
 688 92 836 27 1107 23 c 0
 1156 22 1311 29 1413 221 c 1
 1431 221 l 1
 1333 1 l 1
 1162 1 1110 1 1074 3 c 0
 786 13 629 97 622 100 c 0
 330 243 148 534 148 860 c 0
 148 988 178 1107 226 1233 c 2
 791 2701 l 1
 761 2755 716 2779 674 2782 c 1
 674 2800 l 1
 1059 2800 l 1
 1059 2782 l 1
 1001 2782 913 2764 952 2670 c 2
804 2679 m 1
 283 1326 l 1
 1367 1326 l 1
 804 2679 l 1
EndSplineSet
EndChar

StartChar: agrave
Encoding: 224 224 139
Width: 2306
GlyphClass: 2
Flags: MW
HStem: 1 21G<1247.5 1333> 2780 20G<674 1059 1059 1059> 2975 21G<1205 1205> 3259 20G<591 591>
AnchorPoint: "Anchor-6" 846 2195 basechar 0
AnchorPoint: "Anchor-5" 2156 0 basechar 0
AnchorPoint: "Anchor-4" 827 0 basechar 0
LayerCount: 2
Fore
SplineSet
560 3190 m 1
 591 3279 l 1
 757 3167 1209 2988 1209 2988 c 1
 1205 2975 l 1
 1205 2975 748 3163 560 3190 c 1
952 2670 m 2
 2018 117 l 2
 2062 15 2144 18 2157 18 c 1
 2157 0 l 1
 1772 0 l 1
 1772 18 l 1
 1790 18 1912 16 1870 117 c 2
 1374 1308 l 1
 276 1308 l 1
 240 1213 l 2
 197 1102 168 976 168 860 c 0
 168 542 346 257 632 119 c 0
 688 92 836 27 1107 23 c 0
 1156 22 1311 29 1413 221 c 1
 1431 221 l 1
 1333 1 l 1
 1162 1 1110 1 1074 3 c 0
 786 13 629 97 622 100 c 0
 330 243 148 534 148 860 c 0
 148 988 178 1107 226 1233 c 2
 791 2701 l 1
 761 2755 716 2779 674 2782 c 1
 674 2800 l 1
 1059 2800 l 1
 1059 2782 l 1
 1001 2782 913 2764 952 2670 c 2
804 2679 m 1
 283 1326 l 1
 1367 1326 l 1
 804 2679 l 1
EndSplineSet
EndChar

StartChar: amacron
Encoding: 257 257 140
Width: 2306
GlyphClass: 2
Flags: MW
HStem: 1 21G<1247.5 1333> 2780 20G<674 1059 1059 1059> 3087 21G<454 454 1305 1305> 3138 20G<454 454 1305 1305>
AnchorPoint: "Anchor-6" 880 2195 basechar 0
AnchorPoint: "Anchor-5" 2156 0 basechar 0
AnchorPoint: "Anchor-4" 827 0 basechar 0
LayerCount: 2
Fore
SplineSet
1305 3158 m 1
 1305 3087 l 1
 880 3100 l 1
 454 3087 l 1
 454 3158 l 1
 880 3145 l 1
 1305 3158 l 1
952 2670 m 2
 2018 117 l 2
 2062 15 2144 18 2157 18 c 1
 2157 0 l 1
 1772 0 l 1
 1772 18 l 1
 1790 18 1912 16 1870 117 c 2
 1374 1308 l 1
 276 1308 l 1
 240 1213 l 2
 197 1102 168 976 168 860 c 0
 168 542 346 257 632 119 c 0
 688 92 836 27 1107 23 c 0
 1156 22 1311 29 1413 221 c 1
 1431 221 l 1
 1333 1 l 1
 1162 1 1110 1 1074 3 c 0
 786 13 629 97 622 100 c 0
 330 243 148 534 148 860 c 0
 148 988 178 1107 226 1233 c 2
 791 2701 l 1
 761 2755 716 2779 674 2782 c 1
 674 2800 l 1
 1059 2800 l 1
 1059 2782 l 1
 1001 2782 913 2764 952 2670 c 2
804 2679 m 1
 283 1326 l 1
 1367 1326 l 1
 804 2679 l 1
EndSplineSet
EndChar

StartChar: aogonek
Encoding: 261 261 141
Width: 2306
GlyphClass: 2
Flags: MW
HStem: -717 21G<2109.5 2286.5> -710 20G<2116 2279.5> -432 20G<2510 2533 2533 2533> -7 20G 1 21G<1247.5 1333> 2780 20G<674 1059 1059 1059>
AnchorPoint: "Anchor-6" 880 2195 basechar 0
AnchorPoint: "Anchor-5" 2156 0 basechar 0
AnchorPoint: "Anchor-4" 827 0 basechar 0
LayerCount: 2
Fore
SplineSet
2510 -412 m 1xb4
 2533 -412 l 1
 2533 -587 2372 -717 2201 -717 c 0
 2018 -717 1870 -587 1870 -412 c 0
 1870 -249 1982 -110 2130 0 c 1
 1772 0 l 1
 1772 18 l 1
 1790 18 1912 16 1870 117 c 2
 1374 1308 l 1
 276 1308 l 1
 240 1213 l 2
 197 1102 168 976 168 860 c 0
 168 542 346 257 632 119 c 0
 688 92 836 27 1107 23 c 0
 1156 22 1311 29 1413 221 c 1
 1431 221 l 1
 1333 1 l 1
 1162 1 1110 1 1074 3 c 0
 786 13 629 97 622 100 c 0
 330 243 148 534 148 860 c 0
 148 988 178 1107 226 1233 c 2
 791 2701 l 1
 761 2755 716 2779 674 2782 c 1
 674 2800 l 1
 1059 2800 l 1
 1059 2782 l 1
 1001 2782 913 2764 952 2670 c 2
 2018 117 l 2
 2062 15 2144 18 2157 18 c 1
 2157 0 l 1
 2156 0 l 1xac
 2009 -121 1892 -247 1892 -412 c 0
 1892 -574 2031 -690 2201 -690 c 0x74
 2358 -690 2510 -574 2510 -412 c 1xb4
804 2679 m 1
 283 1326 l 1
 1367 1326 l 1
 804 2679 l 1
EndSplineSet
EndChar

StartChar: aring
Encoding: 229 229 142
Width: 2306
GlyphClass: 2
Flags: MW
HStem: 1 21G<1247.5 1333> 2780 20G<674 1059 1059 1059> 3024 381<823.5 929>
VStem: 687 381<3162.5 3268>
AnchorPoint: "Anchor-6" 880 2195 basechar 0
AnchorPoint: "Anchor-5" 2156 0 basechar 0
AnchorPoint: "Anchor-4" 827 0 basechar 0
LayerCount: 2
Fore
SplineSet
1068 3216 m 0
 1068 3109 983 3024 875 3024 c 0
 772 3024 687 3109 687 3216 c 0
 687 3320 772 3405 875 3405 c 0
 983 3405 1068 3320 1068 3216 c 0
1045 3216 m 0
 1045 3306 969 3382 875 3382 c 0
 786 3382 709 3306 709 3216 c 0
 709 3122 786 3046 875 3046 c 0
 969 3046 1045 3122 1045 3216 c 0
952 2670 m 2
 2018 117 l 2
 2062 15 2144 18 2157 18 c 1
 2157 0 l 1
 1772 0 l 1
 1772 18 l 1
 1790 18 1912 16 1870 117 c 2
 1374 1308 l 1
 276 1308 l 1
 240 1213 l 2
 197 1102 168 976 168 860 c 0
 168 542 346 257 632 119 c 0
 688 92 836 27 1107 23 c 0
 1156 22 1311 29 1413 221 c 1
 1431 221 l 1
 1333 1 l 1
 1162 1 1110 1 1074 3 c 0
 786 13 629 97 622 100 c 0
 330 243 148 534 148 860 c 0
 148 988 178 1107 226 1233 c 2
 791 2701 l 1
 761 2755 716 2779 674 2782 c 1
 674 2800 l 1
 1059 2800 l 1
 1059 2782 l 1
 1001 2782 913 2764 952 2670 c 2
804 2679 m 1
 283 1326 l 1
 1367 1326 l 1
 804 2679 l 1
EndSplineSet
EndChar

StartChar: atilde
Encoding: 227 227 143
Width: 2306
GlyphClass: 2
Flags: MW
HStem: 1 21G<1247.5 1333> 2780 20G<674 1059 1059 1059> 2979 264<468 694 468 694>
AnchorPoint: "Anchor-6" 880 2195 basechar 0
AnchorPoint: "Anchor-5" 2156 0 basechar 0
AnchorPoint: "Anchor-4" 827 0 basechar 0
LayerCount: 2
Fore
SplineSet
486 2979 m 1
 468 2979 l 1
 460 3002 454 3026 454 3055 c 0
 454 3172 521 3243 647 3243 c 0
 741 3243 848 3190 934 3136 c 0
 1032 3078 1104 3019 1202 3019 c 0
 1274 3019 1346 3078 1346 3172 c 0
 1346 3199 1340 3223 1332 3243 c 1
 1350 3243 l 1
 1355 3230 1364 3199 1364 3167 c 0
 1364 3046 1293 2979 1166 2979 c 0
 1066 2979 965 3037 884 3091 c 0
 754 3172 696 3203 616 3203 c 0
 544 3203 472 3145 472 3051 c 0
 472 3023 479 2996 486 2979 c 1
952 2670 m 2
 2018 117 l 2
 2062 15 2144 18 2157 18 c 1
 2157 0 l 1
 1772 0 l 1
 1772 18 l 1
 1790 18 1912 16 1870 117 c 2
 1374 1308 l 1
 276 1308 l 1
 240 1213 l 2
 197 1102 168 976 168 860 c 0
 168 542 346 257 632 119 c 0
 688 92 836 27 1107 23 c 0
 1156 22 1311 29 1413 221 c 1
 1431 221 l 1
 1333 1 l 1
 1162 1 1110 1 1074 3 c 0
 786 13 629 97 622 100 c 0
 330 243 148 534 148 860 c 0
 148 988 178 1107 226 1233 c 2
 791 2701 l 1
 761 2755 716 2779 674 2782 c 1
 674 2800 l 1
 1059 2800 l 1
 1059 2782 l 1
 1001 2782 913 2764 952 2670 c 2
804 2679 m 1
 283 1326 l 1
 1367 1326 l 1
 804 2679 l 1
EndSplineSet
EndChar

StartChar: ae
Encoding: 230 230 144
Width: 2288
GlyphClass: 2
Flags: MW
HStem: 0 18<134 174 376 385 134 174 1124 1166.5 1500 1921 1921 1996.5> 874 18<600 1249 600 1249 591 1249> 1389 18<1384 1505 1384 1505> 2782 18<1124 1166.5 1484.5 1500 1500 1921>
VStem: 1249 135<134 874 874 874 892 1389 1407 2563 2563 2563 2612 2666>
AnchorPoint: "Anchor-6" 1317 2800 basechar 0
AnchorPoint: "Anchor-4" 1138 0 basechar 0
LayerCount: 2
Fore
SplineSet
1921 2782 m 2
 1500 2782 l 2
 1469 2782 1384 2769 1384 2666 c 2
 1384 1407 l 1
 1505 1407 l 2
 1644 1407 1720 1514 1720 1667 c 1
 1738 1667 l 1
 1738 1133 l 1
 1720 1133 l 1
 1720 1286 1644 1389 1505 1389 c 2
 1384 1389 l 1
 1384 130 l 2
 1384 36 1469 18 1500 18 c 2
 1921 18 l 2
 2072 18 2124 139 2136 278 c 1
 2154 278 l 1
 2154 0 l 1
 1124 0 l 1
 1124 18 l 1
 1209 18 1249 40 1249 134 c 2
 1249 874 l 1
 591 874 l 1
 295 112 l 2
 259 18 367 18 385 18 c 1
 385 0 l 1
 134 0 l 1
 134 18 l 1
 214 18 246 40 277 117 c 2
 1249 2612 l 1
 1249 2666 l 2
 1249 2760 1209 2782 1124 2782 c 1
 1124 2800 l 1
 2154 2800 l 1
 2154 2522 l 1
 2136 2522 l 1
 2136 2678 2062 2782 1921 2782 c 2
1249 892 m 1
 1249 2563 l 1
 600 892 l 1
 1249 892 l 1
EndSplineSet
EndChar

StartChar: aeacute
Encoding: 509 509 145
Width: 2288
GlyphClass: 2
Flags: MW
HStem: 0 18<134 174 376 385 134 174 1124 1166.5 1500 1921 1921 1996.5> 874 18<600 1249 600 1249 591 1249> 1389 18<1384 1505 1384 1505> 2782 18<1124 1166.5 1484.5 1500 1500 1921> 3020 21G<1399 1399> 3304 20G<2013 2013>
VStem: 1249 135<134 874 874 874 892 1389 1407 2563 2563 2563 2612 2666>
AnchorPoint: "Anchor-6" 1677 2240 basechar 0
AnchorPoint: "Anchor-4" 1137 0 basechar 0
LayerCount: 2
Fore
SplineSet
2013 3324 m 1
 2044 3235 l 1
 1856 3208 1399 3020 1399 3020 c 1
 1395 3033 l 1
 1395 3033 1847 3212 2013 3324 c 1
1921 2782 m 2
 1500 2782 l 2
 1469 2782 1384 2769 1384 2666 c 2
 1384 1407 l 1
 1505 1407 l 2
 1644 1407 1720 1514 1720 1667 c 1
 1738 1667 l 1
 1738 1133 l 1
 1720 1133 l 1
 1720 1286 1644 1389 1505 1389 c 2
 1384 1389 l 1
 1384 130 l 2
 1384 36 1469 18 1500 18 c 2
 1921 18 l 2
 2072 18 2124 139 2136 278 c 1
 2154 278 l 1
 2154 0 l 1
 1124 0 l 1
 1124 18 l 1
 1209 18 1249 40 1249 134 c 2
 1249 874 l 1
 591 874 l 1
 295 112 l 2
 259 18 367 18 385 18 c 1
 385 0 l 1
 134 0 l 1
 134 18 l 1
 214 18 246 40 277 117 c 2
 1249 2612 l 1
 1249 2666 l 2
 1249 2760 1209 2782 1124 2782 c 1
 1124 2800 l 1
 2154 2800 l 1
 2154 2522 l 1
 2136 2522 l 1
 2136 2678 2062 2782 1921 2782 c 2
1249 892 m 1
 1249 2563 l 1
 600 892 l 1
 1249 892 l 1
EndSplineSet
EndChar

StartChar: b
Encoding: 98 98 146
Width: 2478
GlyphClass: 2
Flags: MW
HStem: 0 18<179 219.5 560 1429 1429 1438 179 219.5> 1622 18<439 1263 1263 1400 439 1263> 2782 18<179 219.5 542.5 556 556 1263>
VStem: 305 134<134 1622 1640 2666> 1756 112<2074 2370> 2124 152<600.5 1041.5>
AnchorPoint: "Anchor-6" 1241 2240 basechar 0
AnchorPoint: "Anchor-4" 1241 0 basechar 0
LayerCount: 2
Fore
SplineSet
1438 0 m 2
 179 0 l 1
 179 18 l 1
 260 18 305 40 305 134 c 2
 305 2666 l 2
 305 2760 260 2782 179 2782 c 1
 179 2800 l 1
 1268 2800 l 2
 1599 2800 1868 2536 1868 2213 c 0
 1868 1935 1671 1702 1411 1640 c 1
 1907 1648 2276 1277 2276 820 c 0
 2276 367 1900 0 1438 0 c 2
439 2666 m 2
 439 1640 l 1
 1263 1640 l 2
 1537 1640 1756 1900 1756 2213 c 0
 1756 2527 1537 2782 1263 2782 c 2
 556 2782 l 2
 529 2782 439 2769 439 2666 c 2
560 18 m 2
 1429 18 l 2
 1814 18 2124 381 2124 820 c 0
 2124 1263 1814 1622 1429 1622 c 2
 439 1622 l 1
 439 130 l 2
 439 27 538 18 560 18 c 2
EndSplineSet
EndChar

StartChar: c
Encoding: 99 99 147
Width: 3038
GlyphClass: 2
Flags: MW
HStem: -13 80<1303.5 1881.5> 2733 80<1180.5 1729.5>
VStem: 157 80<1130.5 1789.5>
AnchorPoint: "Anchor-6" 1532 2195 basechar 0
AnchorPoint: "Anchor-4" 1568 0 basechar 0
LayerCount: 2
Fore
SplineSet
2890 1917 m 1
 2751 1917 l 1
 2504 2392 2007 2733 1452 2733 c 0
 762 2733 237 2212 237 1518 c 0
 237 743 914 67 1693 67 c 0
 2253 67 2706 417 2854 918 c 1
 2903 918 l 1
 2706 376 2186 -13 1577 -13 c 0
 780 -13 157 632 157 1402 c 0
 157 2177 793 2813 1568 2813 c 0
 2177 2813 2684 2437 2890 1917 c 1
EndSplineSet
EndChar

StartChar: cacute
Encoding: 263 263 148
Width: 3038
GlyphClass: 2
Flags: MW
HStem: -13 80<1303.5 1881.5> 2733 80<1180.5 1729.5> 2975 21G<1254 1254> 3259 20G<1868 1868>
VStem: 157 80<1130.5 1789.5>
AnchorPoint: "Anchor-6" 1532 2195 basechar 0
AnchorPoint: "Anchor-4" 1568 0 basechar 0
LayerCount: 2
Fore
SplineSet
1868 3279 m 1
 1899 3190 l 1
 1711 3163 1254 2975 1254 2975 c 1
 1250 2988 l 1
 1250 2988 1702 3167 1868 3279 c 1
2890 1917 m 1
 2751 1917 l 1
 2504 2392 2007 2733 1452 2733 c 0
 762 2733 237 2212 237 1518 c 0
 237 743 914 67 1693 67 c 0
 2253 67 2706 417 2854 918 c 1
 2903 918 l 1
 2706 376 2186 -13 1577 -13 c 0
 780 -13 157 632 157 1402 c 0
 157 2177 793 2813 1568 2813 c 0
 2177 2813 2684 2437 2890 1917 c 1
EndSplineSet
EndChar

StartChar: ccaron
Encoding: 269 269 149
Width: 3038
GlyphClass: 2
Flags: MW
HStem: -13 80<1303.5 1881.5> 2733 80<1180.5 1729.5> 2916 21G 3277 20G<1102 1102 1962 1962>
VStem: 157 80<1130.5 1789.5>
AnchorPoint: "Anchor-6" 1532 2195 basechar 0
AnchorPoint: "Anchor-4" 1568 0 basechar 0
LayerCount: 2
Fore
SplineSet
1532 2916 m 1
 1412 3024 1201 3198 1093 3284 c 1
 1102 3297 l 1
 1201 3221 1385 3086 1532 3019 c 1
 1679 3086 1863 3221 1962 3297 c 1
 1971 3284 l 1
 1863 3198 1652 3024 1532 2916 c 1
2890 1917 m 1
 2751 1917 l 1
 2504 2392 2007 2733 1452 2733 c 0
 762 2733 237 2212 237 1518 c 0
 237 743 914 67 1693 67 c 0
 2253 67 2706 417 2854 918 c 1
 2903 918 l 1
 2706 376 2186 -13 1577 -13 c 0
 780 -13 157 632 157 1402 c 0
 157 2177 793 2813 1568 2813 c 0
 2177 2813 2684 2437 2890 1917 c 1
EndSplineSet
EndChar

StartChar: ccedilla
Encoding: 231 231 150
Width: 3038
GlyphClass: 2
Flags: MW
HStem: -767 21G<1457.5 1654.5> -764 20G<1466.5 1650> -464 20G<1222 1245 1245 1245> -168 20G<1527 1576 1527 1527> -20 20G -13 80<1555 1555 1578 1578> 2733 80<1180.5 1729.5>
VStem: 157 80<1130.5 1789.5>
AnchorPoint: "Anchor-6" 1532 2195 basechar 0
AnchorPoint: "Anchor-4" 1464 -896 basechar 0
LayerCount: 2
Fore
SplineSet
2854 918 m 1xbb
 2903 918 l 1
 2706 376 2187 -12 1578 -13 c 1xb7
 1554 -126 l 1
 1576 -126 l 2
 1747 -126 1885 -265 1885 -440 c 0
 1885 -610 1760 -767 1549 -767 c 0xbb
 1366 -767 1227 -610 1222 -444 c 1
 1245 -444 l 1
 1249 -592 1384 -744 1549 -744 c 0x7b
 1751 -744 1863 -583 1863 -440 c 0
 1863 -278 1733 -148 1576 -148 c 2
 1527 -148 l 1
 1555 -13 l 1
 769 -1 157 639 157 1402 c 0
 157 2177 793 2813 1568 2813 c 0
 2177 2813 2684 2437 2890 1917 c 1
 2751 1917 l 1
 2504 2392 2007 2733 1452 2733 c 0
 762 2733 237 2212 237 1518 c 0
 237 743 914 67 1693 67 c 0xb7
 2253 67 2706 417 2854 918 c 1xbb
EndSplineSet
EndChar

StartChar: cdotaccent
Encoding: 267 267 151
Width: 3038
GlyphClass: 2
Flags: MW
HStem: -13 80<1303.5 1881.5> 2733 80<1180.5 1729.5> 3051 21G<1505 1559> 3219 20G<1505 1559>
VStem: 157 80<1130.5 1789.5> 1438 188<3118 3172>
AnchorPoint: "Anchor-6" 1532 2195 basechar 0
AnchorPoint: "Anchor-4" 1568 0 basechar 0
LayerCount: 2
Fore
SplineSet
1532 3051 m 0
 1478 3051 1438 3091 1438 3145 c 0
 1438 3199 1478 3239 1532 3239 c 0
 1586 3239 1626 3199 1626 3145 c 0
 1626 3091 1586 3051 1532 3051 c 0
2890 1917 m 1
 2751 1917 l 1
 2504 2392 2007 2733 1452 2733 c 0
 762 2733 237 2212 237 1518 c 0
 237 743 914 67 1693 67 c 0
 2253 67 2706 417 2854 918 c 1
 2903 918 l 1
 2706 376 2186 -13 1577 -13 c 0
 780 -13 157 632 157 1402 c 0
 157 2177 793 2813 1568 2813 c 0
 2177 2813 2684 2437 2890 1917 c 1
EndSplineSet
EndChar

StartChar: d
Encoding: 100 100 152
Width: 2872
GlyphClass: 2
Flags: MW
HStem: 0 18<179 202 538 1299 179 202> 2782 18<179 186 547 556 556 1299 1299 1317>
VStem: 300 135<121 2670> 2549 144<1026 1767.5>
AnchorPoint: "Anchor-7" 627 1434 basechar 0
AnchorPoint: "Anchor-6" 1210 2195 basechar 0
AnchorPoint: "Anchor-4" 1434 0 basechar 0
LayerCount: 2
Fore
SplineSet
1299 0 m 2
 179 0 l 1
 179 18 l 1
 225 18 300 36 300 121 c 2
 300 2670 l 2
 300 2778 193 2782 179 2782 c 1
 179 2800 l 1
 1299 2800 l 2
 2097 2800 2693 2168 2693 1398 c 0
 2693 600 2061 0 1299 0 c 2
538 18 m 2
 1322 18 l 2
 1985 18 2549 654 2549 1398 c 0
 2549 2137 2003 2782 1317 2782 c 2
 556 2782 l 2
 538 2782 435 2769 435 2670 c 2
 435 121 l 2
 435 36 502 18 538 18 c 2
EndSplineSet
EndChar

StartChar: eth
Encoding: 240 240 153
Width: 2961
Flags: MW
HStem: 0 18<269 306.5 627 1389 269 306.5> 1389 18<179 390 179 390 524 1080> 2782 18<269 304.5 617.5 645 645 1389 1389 1407>
VStem: 390 134<121 1389 1407 2670> 2639 143<1026 1767.5>
LayerCount: 2
Fore
SplineSet
269 2782 m 1
 269 2800 l 1
 1389 2800 l 2
 2186 2800 2782 2168 2782 1398 c 0
 2782 600 2150 0 1389 0 c 2
 269 0 l 1
 269 18 l 1
 344 18 390 56 390 121 c 2
 390 1389 l 1
 179 1389 l 1
 179 1407 l 1
 390 1407 l 1
 390 2670 l 2
 390 2739 340 2782 269 2782 c 1
627 18 m 2
 1411 18 l 2
 2074 18 2639 654 2639 1398 c 0
 2639 2137 2092 2782 1407 2782 c 2
 645 2782 l 2
 590 2782 524 2749 524 2670 c 2
 524 1407 l 1
 1080 1407 l 1
 1080 1389 l 1
 524 1389 l 1
 524 121 l 2
 524 51 574 18 627 18 c 2
EndSplineSet
EndChar

StartChar: dcaron
Encoding: 271 271 154
Width: 2872
GlyphClass: 2
Flags: MW
HStem: 0 18<179 202 538 1299 179 202> 2782 18<179 186 547 556 556 1299 1299 1317> 2916 21G 3277 20G<779 779 1639 1639>
VStem: 300 135<121 2670> 2549 144<1026 1767.5>
AnchorPoint: "Anchor-7" 627 1434 basechar 0
AnchorPoint: "Anchor-6" 1209 2195 basechar 0
AnchorPoint: "Anchor-4" 1434 0 basechar 0
LayerCount: 2
Fore
SplineSet
1209 2916 m 1
 1089 3024 878 3198 770 3284 c 1
 779 3297 l 1
 878 3221 1062 3086 1209 3019 c 1
 1356 3086 1540 3221 1639 3297 c 1
 1648 3284 l 1
 1540 3198 1329 3024 1209 2916 c 1
1299 0 m 2
 179 0 l 1
 179 18 l 1
 225 18 300 36 300 121 c 2
 300 2670 l 2
 300 2778 193 2782 179 2782 c 1
 179 2800 l 1
 1299 2800 l 2
 2097 2800 2693 2168 2693 1398 c 0
 2693 600 2061 0 1299 0 c 2
538 18 m 2
 1322 18 l 2
 1985 18 2549 654 2549 1398 c 0
 2549 2137 2003 2782 1317 2782 c 2
 556 2782 l 2
 538 2782 435 2769 435 2670 c 2
 435 121 l 2
 435 36 502 18 538 18 c 2
EndSplineSet
EndChar

StartChar: dcroat
Encoding: 273 273 155
Width: 2872
GlyphClass: 2
Flags: MW
HStem: 0 18<179 202 538 1299 179 202> 1559 18<-31 300 -31 300 435 1286> 2782 18<179 186 547 556 556 1299 1299 1317>
VStem: 300 135<121 1559 1577 2670> 2549 144<1026 1767.5>
AnchorPoint: "Anchor-7" 627 1434 basechar 0
AnchorPoint: "Anchor-6" 1210 2195 basechar 0
AnchorPoint: "Anchor-4" 1434 0 basechar 0
LayerCount: 2
Fore
SplineSet
179 2800 m 1
 1299 2800 l 2
 2097 2800 2693 2168 2693 1398 c 0
 2693 600 2061 0 1299 0 c 2
 179 0 l 1
 179 18 l 1
 225 18 300 36 300 121 c 2
 300 1559 l 1
 -31 1559 l 1
 -31 1577 l 1
 300 1577 l 1
 300 2670 l 2
 300 2778 193 2782 179 2782 c 1
 179 2800 l 1
538 18 m 2
 1322 18 l 2
 1985 18 2549 654 2549 1398 c 0
 2549 2137 2003 2782 1317 2782 c 2
 556 2782 l 2
 538 2782 435 2769 435 2670 c 2
 435 1577 l 1
 1286 1577 l 1
 1286 1559 l 1
 435 1559 l 1
 435 121 l 2
 435 36 502 18 538 18 c 2
EndSplineSet
EndChar

StartChar: e
Encoding: 101 101 156
Width: 1345
GlyphClass: 2
Flags: MW
HStem: 0 18<179 221.5 557 978 978 1053.5 179 221.5> 1389 18<440 561 440 561> 2782 18<179 221.5 541 557 557 978>
VStem: 305 135<134 1389 1407 2666>
AnchorPoint: "Anchor-6" 695 2195 basechar 0
AnchorPoint: "Anchor-5" 1211 0 basechar 0
AnchorPoint: "Anchor-4" 695 -5 basechar 0
LayerCount: 2
Fore
SplineSet
1211 278 m 1
 1211 0 l 1
 179 0 l 1
 179 18 l 1
 264 18 305 40 305 134 c 2
 305 2666 l 2
 305 2760 264 2782 179 2782 c 1
 179 2800 l 1
 1211 2800 l 1
 1211 2522 l 1
 1193 2522 l 1
 1193 2678 1118 2782 978 2782 c 2
 557 2782 l 2
 525 2782 440 2769 440 2666 c 2
 440 1407 l 1
 561 1407 l 2
 700 1407 776 1514 776 1667 c 1
 794 1667 l 1
 794 1133 l 1
 776 1133 l 1
 776 1286 700 1389 561 1389 c 2
 440 1389 l 1
 440 130 l 2
 440 36 525 18 557 18 c 2
 978 18 l 2
 1129 18 1181 139 1193 278 c 1
 1211 278 l 1
EndSplineSet
EndChar

StartChar: eacute
Encoding: 233 233 157
Width: 1345
GlyphClass: 2
Flags: MW
HStem: 0 18<179 221.5 557 978 978 1053.5 179 221.5> 1389 18<440 561 440 561> 2782 18<179 221.5 541 557 557 978> 2975 21G<374 374> 3259 20G<988 988>
VStem: 305 135<134 1389 1407 2666>
AnchorPoint: "Anchor-6" 652 2195 basechar 0
AnchorPoint: "Anchor-5" 1211 0 basechar 0
AnchorPoint: "Anchor-4" 695 -5 basechar 0
LayerCount: 2
Fore
SplineSet
988 3279 m 1
 1019 3190 l 1
 831 3163 374 2975 374 2975 c 1
 370 2988 l 1
 370 2988 822 3167 988 3279 c 1
1211 278 m 1
 1211 0 l 1
 179 0 l 1
 179 18 l 1
 264 18 305 40 305 134 c 2
 305 2666 l 2
 305 2760 264 2782 179 2782 c 1
 179 2800 l 1
 1211 2800 l 1
 1211 2522 l 1
 1193 2522 l 1
 1193 2678 1118 2782 978 2782 c 2
 557 2782 l 2
 525 2782 440 2769 440 2666 c 2
 440 1407 l 1
 561 1407 l 2
 700 1407 776 1514 776 1667 c 1
 794 1667 l 1
 794 1133 l 1
 776 1133 l 1
 776 1286 700 1389 561 1389 c 2
 440 1389 l 1
 440 130 l 2
 440 36 525 18 557 18 c 2
 978 18 l 2
 1129 18 1181 139 1193 278 c 1
 1211 278 l 1
EndSplineSet
EndChar

StartChar: ebreve
Encoding: 277 277 158
Width: 1345
GlyphClass: 2
Flags: MW
HStem: 0 18<179 221.5 557 978 978 1053.5 179 221.5> 1389 18<440 561 440 561> 2782 18<179 221.5 541 557 557 978> 3087 21G<618 815.5> 3376 20G<237 318 318 318 1133 1151 1151 1151>
VStem: 305 135<134 1389 1407 2666>
AnchorPoint: "Anchor-6" 699 2195 basechar 0
AnchorPoint: "Anchor-5" 1211 0 basechar 0
AnchorPoint: "Anchor-4" 695 -5 basechar 0
LayerCount: 2
Fore
SplineSet
717 3087 m 0
 519 3087 309 3208 237 3396 c 1
 318 3396 l 1
 403 3234 582 3131 739 3131 c 0
 918 3131 1079 3234 1133 3396 c 1
 1151 3396 l 1
 1079 3194 914 3087 717 3087 c 0
1211 278 m 1
 1211 0 l 1
 179 0 l 1
 179 18 l 1
 264 18 305 40 305 134 c 2
 305 2666 l 2
 305 2760 264 2782 179 2782 c 1
 179 2800 l 1
 1211 2800 l 1
 1211 2522 l 1
 1193 2522 l 1
 1193 2678 1118 2782 978 2782 c 2
 557 2782 l 2
 525 2782 440 2769 440 2666 c 2
 440 1407 l 1
 561 1407 l 2
 700 1407 776 1514 776 1667 c 1
 794 1667 l 1
 794 1133 l 1
 776 1133 l 1
 776 1286 700 1389 561 1389 c 2
 440 1389 l 1
 440 130 l 2
 440 36 525 18 557 18 c 2
 978 18 l 2
 1129 18 1181 139 1193 278 c 1
 1211 278 l 1
EndSplineSet
EndChar

StartChar: ecaron
Encoding: 283 283 159
Width: 1345
GlyphClass: 2
Flags: MW
HStem: 0 18<179 221.5 557 978 978 1053.5 179 221.5> 1389 18<440 561 440 561> 2782 18<179 221.5 541 557 557 978> 2916 21G 3277 20G<264 264 1124 1124>
VStem: 305 135<134 1389 1407 2666>
AnchorPoint: "Anchor-6" 694 2195 basechar 0
AnchorPoint: "Anchor-5" 1211 0 basechar 0
AnchorPoint: "Anchor-4" 695 -5 basechar 0
LayerCount: 2
Fore
SplineSet
694 2916 m 1
 574 3024 363 3198 255 3284 c 1
 264 3297 l 1
 363 3221 547 3086 694 3019 c 1
 841 3086 1025 3221 1124 3297 c 1
 1133 3284 l 1
 1025 3198 814 3024 694 2916 c 1
1211 278 m 1
 1211 0 l 1
 179 0 l 1
 179 18 l 1
 264 18 305 40 305 134 c 2
 305 2666 l 2
 305 2760 264 2782 179 2782 c 1
 179 2800 l 1
 1211 2800 l 1
 1211 2522 l 1
 1193 2522 l 1
 1193 2678 1118 2782 978 2782 c 2
 557 2782 l 2
 525 2782 440 2769 440 2666 c 2
 440 1407 l 1
 561 1407 l 2
 700 1407 776 1514 776 1667 c 1
 794 1667 l 1
 794 1133 l 1
 776 1133 l 1
 776 1286 700 1389 561 1389 c 2
 440 1389 l 1
 440 130 l 2
 440 36 525 18 557 18 c 2
 978 18 l 2
 1129 18 1181 139 1193 278 c 1
 1211 278 l 1
EndSplineSet
EndChar

StartChar: ecircumflex
Encoding: 234 234 160
Width: 1345
GlyphClass: 2
Flags: MW
HStem: 0 18<179 221.5 557 978 978 1053.5 179 221.5> 1389 18<440 561 440 561> 2782 18<179 221.5 541 557 557 978> 2988 21G<264 264 1124 1124> 3349 20G
VStem: 305 135<134 1389 1407 2666>
AnchorPoint: "Anchor-6" 694 2195 basechar 0
AnchorPoint: "Anchor-5" 1211 0 basechar 0
AnchorPoint: "Anchor-4" 695 -5 basechar 0
LayerCount: 2
Fore
SplineSet
694 3369 m 1
 814 3261 1025 3087 1133 3001 c 1
 1124 2988 l 1
 1025 3064 841 3199 694 3266 c 1
 547 3199 363 3064 264 2988 c 1
 255 3001 l 1
 363 3087 574 3261 694 3369 c 1
1211 278 m 1
 1211 0 l 1
 179 0 l 1
 179 18 l 1
 264 18 305 40 305 134 c 2
 305 2666 l 2
 305 2760 264 2782 179 2782 c 1
 179 2800 l 1
 1211 2800 l 1
 1211 2522 l 1
 1193 2522 l 1
 1193 2678 1118 2782 978 2782 c 2
 557 2782 l 2
 525 2782 440 2769 440 2666 c 2
 440 1407 l 1
 561 1407 l 2
 700 1407 776 1514 776 1667 c 1
 794 1667 l 1
 794 1133 l 1
 776 1133 l 1
 776 1286 700 1389 561 1389 c 2
 440 1389 l 1
 440 130 l 2
 440 36 525 18 557 18 c 2
 978 18 l 2
 1129 18 1181 139 1193 278 c 1
 1211 278 l 1
EndSplineSet
EndChar

StartChar: edieresis
Encoding: 235 235 161
Width: 1345
GlyphClass: 2
Flags: MW
HStem: 0 18<179 221.5 557 978 978 1053.5 179 221.5> 1389 18<440 561 440 561> 2782 18<179 221.5 541 557 557 978> 3042 116<544 576 813 845>
VStem: 305 135<134 1389 1407 2666>
AnchorPoint: "Anchor-6" 695 2200 basechar 0
AnchorPoint: "Anchor-5" 1211 0 basechar 0
AnchorPoint: "Anchor-4" 695 -5 basechar 0
LayerCount: 2
Fore
SplineSet
502 3100 m 0
 502 3132 528 3158 560 3158 c 0
 592 3158 618 3132 618 3100 c 0
 618 3068 592 3042 560 3042 c 0
 528 3042 502 3068 502 3100 c 0
771 3100 m 0
 771 3132 797 3158 829 3158 c 0
 861 3158 887 3132 887 3100 c 0
 887 3068 861 3042 829 3042 c 0
 797 3042 771 3068 771 3100 c 0
1211 278 m 1
 1211 0 l 1
 179 0 l 1
 179 18 l 1
 264 18 305 40 305 134 c 2
 305 2666 l 2
 305 2760 264 2782 179 2782 c 1
 179 2800 l 1
 1211 2800 l 1
 1211 2522 l 1
 1193 2522 l 1
 1193 2678 1118 2782 978 2782 c 2
 557 2782 l 2
 525 2782 440 2769 440 2666 c 2
 440 1407 l 1
 561 1407 l 2
 700 1407 776 1514 776 1667 c 1
 794 1667 l 1
 794 1133 l 1
 776 1133 l 1
 776 1286 700 1389 561 1389 c 2
 440 1389 l 1
 440 130 l 2
 440 36 525 18 557 18 c 2
 978 18 l 2
 1129 18 1181 139 1193 278 c 1
 1211 278 l 1
EndSplineSet
EndChar

StartChar: edotaccent
Encoding: 279 279 162
Width: 1345
GlyphClass: 2
Flags: MW
HStem: 0 18<179 221.5 557 978 978 1053.5 179 221.5> 1389 18<440 561 440 561> 2782 18<179 221.5 541 557 557 978> 3051 21G<667 721> 3219 20G<667 721>
VStem: 305 135<134 1389 1407 2666> 600 188<3118 3172>
AnchorPoint: "Anchor-6" 694 2195 basechar 0
AnchorPoint: "Anchor-5" 1211 0 basechar 0
AnchorPoint: "Anchor-4" 695 -5 basechar 0
LayerCount: 2
Fore
SplineSet
694 3051 m 0
 640 3051 600 3091 600 3145 c 0
 600 3199 640 3239 694 3239 c 0
 748 3239 788 3199 788 3145 c 0
 788 3091 748 3051 694 3051 c 0
1211 278 m 1
 1211 0 l 1
 179 0 l 1
 179 18 l 1
 264 18 305 40 305 134 c 2
 305 2666 l 2
 305 2760 264 2782 179 2782 c 1
 179 2800 l 1
 1211 2800 l 1
 1211 2522 l 1
 1193 2522 l 1
 1193 2678 1118 2782 978 2782 c 2
 557 2782 l 2
 525 2782 440 2769 440 2666 c 2
 440 1407 l 1
 561 1407 l 2
 700 1407 776 1514 776 1667 c 1
 794 1667 l 1
 794 1133 l 1
 776 1133 l 1
 776 1286 700 1389 561 1389 c 2
 440 1389 l 1
 440 130 l 2
 440 36 525 18 557 18 c 2
 978 18 l 2
 1129 18 1181 139 1193 278 c 1
 1211 278 l 1
EndSplineSet
EndChar

StartChar: egrave
Encoding: 232 232 163
Width: 1345
GlyphClass: 2
Flags: MW
HStem: 0 18<179 221.5 557 978 978 1053.5 179 221.5> 1389 18<440 561 440 561> 2782 18<179 221.5 541 557 557 978> 2975 21G<1015 1015> 3259 20G<401 401>
VStem: 305 135<134 1389 1407 2666>
AnchorPoint: "Anchor-6" 656 2195 basechar 0
AnchorPoint: "Anchor-5" 1211 0 basechar 0
AnchorPoint: "Anchor-4" 695 -5 basechar 0
LayerCount: 2
Fore
SplineSet
370 3190 m 1
 401 3279 l 1
 567 3167 1019 2988 1019 2988 c 1
 1015 2975 l 1
 1015 2975 558 3163 370 3190 c 1
1211 278 m 1
 1211 0 l 1
 179 0 l 1
 179 18 l 1
 264 18 305 40 305 134 c 2
 305 2666 l 2
 305 2760 264 2782 179 2782 c 1
 179 2800 l 1
 1211 2800 l 1
 1211 2522 l 1
 1193 2522 l 1
 1193 2678 1118 2782 978 2782 c 2
 557 2782 l 2
 525 2782 440 2769 440 2666 c 2
 440 1407 l 1
 561 1407 l 2
 700 1407 776 1514 776 1667 c 1
 794 1667 l 1
 794 1133 l 1
 776 1133 l 1
 776 1286 700 1389 561 1389 c 2
 440 1389 l 1
 440 130 l 2
 440 36 525 18 557 18 c 2
 978 18 l 2
 1129 18 1181 139 1193 278 c 1
 1211 278 l 1
EndSplineSet
EndChar

StartChar: emacron
Encoding: 275 275 164
Width: 1345
GlyphClass: 2
Flags: MW
HStem: 0 18<179 221.5 557 978 978 1053.5 179 221.5> 1389 18<440 561 440 561> 2782 18<179 221.5 541 557 557 978> 3087 21G<269 269 1120 1120> 3138 20G<269 269 1120 1120>
VStem: 305 135<134 1389 1407 2666>
AnchorPoint: "Anchor-6" 695 2195 basechar 0
AnchorPoint: "Anchor-5" 1211 0 basechar 0
AnchorPoint: "Anchor-4" 695 -5 basechar 0
LayerCount: 2
Fore
SplineSet
1120 3158 m 1
 1120 3087 l 1
 695 3100 l 1
 269 3087 l 1
 269 3158 l 1
 695 3145 l 1
 1120 3158 l 1
1211 278 m 1
 1211 0 l 1
 179 0 l 1
 179 18 l 1
 264 18 305 40 305 134 c 2
 305 2666 l 2
 305 2760 264 2782 179 2782 c 1
 179 2800 l 1
 1211 2800 l 1
 1211 2522 l 1
 1193 2522 l 1
 1193 2678 1118 2782 978 2782 c 2
 557 2782 l 2
 525 2782 440 2769 440 2666 c 2
 440 1407 l 1
 561 1407 l 2
 700 1407 776 1514 776 1667 c 1
 794 1667 l 1
 794 1133 l 1
 776 1133 l 1
 776 1286 700 1389 561 1389 c 2
 440 1389 l 1
 440 130 l 2
 440 36 525 18 557 18 c 2
 978 18 l 2
 1129 18 1181 139 1193 278 c 1
 1211 278 l 1
EndSplineSet
EndChar

StartChar: eogonek
Encoding: 281 281 165
Width: 1345
GlyphClass: 2
Flags: MW
HStem: -717 21G<1164.5 1341.5> -710 20G<1171 1334.5> -432 20G<1565 1588 1588 1588> -7 20G 0 18<179 221.5 557 978 978 1053.5 179 221.5> 1389 18<440 561 440 561> 2782 18<179 221.5 541 557 557 978>
VStem: 305 135<134 1389 1407 2666>
AnchorPoint: "Anchor-6" 695 2195 basechar 0
AnchorPoint: "Anchor-5" 1211 0 basechar 0
AnchorPoint: "Anchor-4" 695 -5 basechar 0
LayerCount: 2
Fore
SplineSet
1565 -412 m 1xb7
 1588 -412 l 1
 1588 -587 1427 -717 1256 -717 c 0
 1073 -717 925 -587 925 -412 c 0
 925 -249 1037 -110 1185 0 c 1
 179 0 l 1
 179 18 l 1
 264 18 305 40 305 134 c 2
 305 2666 l 2
 305 2760 264 2782 179 2782 c 1
 179 2800 l 1
 1211 2800 l 1
 1211 2522 l 1
 1193 2522 l 1
 1193 2678 1118 2782 978 2782 c 2
 557 2782 l 2
 525 2782 440 2769 440 2666 c 2
 440 1407 l 1
 561 1407 l 2
 700 1407 776 1514 776 1667 c 1
 794 1667 l 1
 794 1133 l 1
 776 1133 l 1
 776 1286 700 1389 561 1389 c 2
 440 1389 l 1
 440 130 l 2
 440 36 525 18 557 18 c 2
 978 18 l 2
 1129 18 1181 139 1193 278 c 1
 1211 278 l 1
 1211 0 l 1xaf
 1064 -121 947 -247 947 -412 c 0
 947 -574 1086 -690 1256 -690 c 0x77
 1413 -690 1565 -574 1565 -412 c 1xb7
EndSplineSet
EndChar

StartChar: f
Encoding: 102 102 166
Width: 1860
GlyphClass: 2
Flags: MW
HStem: 0 18<179 219.5 525.5 566 179 219.5> 1389 18<440 767 440 767> 2782 18<179 219.5 539 557 557 1470>
VStem: 305 135<134 1389 1407 2666>
AnchorPoint: "Anchor-6" 919 2195 basechar 0
AnchorPoint: "Anchor-4" 919 0 basechar 0
LayerCount: 2
Fore
SplineSet
1470 2782 m 2
 557 2782 l 2
 521 2782 440 2769 440 2666 c 2
 440 1407 l 1
 767 1407 l 2
 922 1407 982 1551 982 1667 c 1
 1000 1667 l 1
 1000 1133 l 1
 982 1133 l 1
 982 1249 922 1389 767 1389 c 2
 440 1389 l 1
 440 134 l 2
 440 40 485 18 566 18 c 1
 566 0 l 1
 179 0 l 1
 179 18 l 1
 260 18 305 40 305 134 c 2
 305 2666 l 2
 305 2760 260 2782 179 2782 c 1
 179 2800 l 1
 1703 2800 l 1
 1703 2522 l 1
 1685 2522 l 1
 1685 2636 1630 2782 1470 2782 c 2
EndSplineSet
EndChar

StartChar: g
Encoding: 103 103 167
Width: 2984
GlyphClass: 2
Flags: MW
HStem: -13 18<1216.5 1789.5 1216.5 1810.5> 1259 18<1416 2029 1416 2827 2164 2164 2164 2827> 2795 18<1216.5 1756 1178.5 1763>
VStem: 157 139<1018.5 1787 1018.5 1793.5>
AnchorPoint: "Anchor-6" 1492 2195 basechar 0
AnchorPoint: "Anchor-4" 1492 0 basechar 0
LayerCount: 2
Fore
SplineSet
1568 -13 m 0
 789 -13 157 620 157 1404 c 0
 157 2183 789 2813 1568 2813 c 0
 1944 2813 2289 2665 2545 2423 c 1
 2545 2293 l 1
 2312 2598 1958 2795 1568 2795 c 0
 865 2795 296 2170 296 1404 c 0
 296 633 865 5 1568 5 c 0
 2011 5 2567 187 2567 699 c 0
 2567 1008 2304 1259 2029 1259 c 2
 1416 1259 l 1
 1416 1277 l 1
 2827 1277 l 1
 2827 1259 l 1
 2164 1259 l 1
 2406 1187 2585 963 2585 699 c 0
 2585 192 2053 -13 1568 -13 c 0
EndSplineSet
EndChar

StartChar: gbreve
Encoding: 287 287 168
Width: 2984
GlyphClass: 2
Flags: MW
HStem: -13 18<1216.5 1789.5 1216.5 1810.5> 1259 18<1416 2029 1416 2827 2164 2164 2164 2827> 2795 18<1216.5 1756 1178.5 1763> 3087 21G<1411 1608.5> 3376 20G<1030 1111 1111 1111 1926 1944 1944 1944>
VStem: 157 139<1018.5 1787 1018.5 1793.5>
AnchorPoint: "Anchor-6" 1492 2195 basechar 0
AnchorPoint: "Anchor-4" 1492 0 basechar 0
LayerCount: 2
Fore
SplineSet
1510 3087 m 0
 1312 3087 1102 3208 1030 3396 c 1
 1111 3396 l 1
 1196 3234 1375 3131 1532 3131 c 0
 1711 3131 1872 3234 1926 3396 c 1
 1944 3396 l 1
 1872 3194 1707 3087 1510 3087 c 0
1568 -13 m 0
 789 -13 157 620 157 1404 c 0
 157 2183 789 2813 1568 2813 c 0
 1944 2813 2289 2665 2545 2423 c 1
 2545 2293 l 1
 2312 2598 1958 2795 1568 2795 c 0
 865 2795 296 2170 296 1404 c 0
 296 633 865 5 1568 5 c 0
 2011 5 2567 187 2567 699 c 0
 2567 1008 2304 1259 2029 1259 c 2
 1416 1259 l 1
 1416 1277 l 1
 2827 1277 l 1
 2827 1259 l 1
 2164 1259 l 1
 2406 1187 2585 963 2585 699 c 0
 2585 192 2053 -13 1568 -13 c 0
EndSplineSet
EndChar

StartChar: gcircumflex
Encoding: 285 285 169
Width: 2984
GlyphClass: 2
Flags: MW
HStem: -13 18<1216.5 1789.5 1216.5 1810.5> 1259 18<1416 2029 1416 2827 2164 2164 2164 2827> 2795 18<1216.5 1756 1178.5 1763> 2988 21G<1091 1091 1951 1951> 3349 20G
VStem: 157 139<1018.5 1787 1018.5 1793.5>
AnchorPoint: "Anchor-6" 1521 2195 basechar 0
AnchorPoint: "Anchor-4" 1492 0 basechar 0
LayerCount: 2
Fore
SplineSet
1521 3369 m 1
 1641 3261 1852 3087 1960 3001 c 1
 1951 2988 l 1
 1852 3064 1668 3199 1521 3266 c 1
 1374 3199 1190 3064 1091 2988 c 1
 1082 3001 l 1
 1190 3087 1401 3261 1521 3369 c 1
1568 -13 m 0
 789 -13 157 620 157 1404 c 0
 157 2183 789 2813 1568 2813 c 0
 1944 2813 2289 2665 2545 2423 c 1
 2545 2293 l 1
 2312 2598 1958 2795 1568 2795 c 0
 865 2795 296 2170 296 1404 c 0
 296 633 865 5 1568 5 c 0
 2011 5 2567 187 2567 699 c 0
 2567 1008 2304 1259 2029 1259 c 2
 1416 1259 l 1
 1416 1277 l 1
 2827 1277 l 1
 2827 1259 l 1
 2164 1259 l 1
 2406 1187 2585 963 2585 699 c 0
 2585 192 2053 -13 1568 -13 c 0
EndSplineSet
EndChar

StartChar: gdotaccent
Encoding: 289 289 170
Width: 2984
GlyphClass: 2
Flags: MW
HStem: -13 18<1216.5 1789.5 1216.5 1810.5> 1259 18<1416 2029 1416 2827 2164 2164 2164 2827> 2795 18<1216.5 1756 1178.5 1763> 3051 21G<1495 1549> 3219 20G<1495 1549>
VStem: 157 139<1018.5 1787 1018.5 1793.5> 1428 188<3118 3172>
AnchorPoint: "Anchor-6" 1522 2195 basechar 0
AnchorPoint: "Anchor-4" 1492 0 basechar 0
LayerCount: 2
Fore
SplineSet
1522 3051 m 0
 1468 3051 1428 3091 1428 3145 c 0
 1428 3199 1468 3239 1522 3239 c 0
 1576 3239 1616 3199 1616 3145 c 0
 1616 3091 1576 3051 1522 3051 c 0
1568 -13 m 0
 789 -13 157 620 157 1404 c 0
 157 2183 789 2813 1568 2813 c 0
 1944 2813 2289 2665 2545 2423 c 1
 2545 2293 l 1
 2312 2598 1958 2795 1568 2795 c 0
 865 2795 296 2170 296 1404 c 0
 296 633 865 5 1568 5 c 0
 2011 5 2567 187 2567 699 c 0
 2567 1008 2304 1259 2029 1259 c 2
 1416 1259 l 1
 1416 1277 l 1
 2827 1277 l 1
 2827 1259 l 1
 2164 1259 l 1
 2406 1187 2585 963 2585 699 c 0
 2585 192 2053 -13 1568 -13 c 0
EndSplineSet
EndChar

StartChar: h
Encoding: 104 104 171
Width: 2667
GlyphClass: 2
Flags: MW
HStem: 0 21G<179 564 179 179 2102 2487 2102 2102> 1389 18<439 2227 439 2227> 2780 20G<179 564 564 564 2102 2487 2487 2487>
VStem: 305 135 2228 135
AnchorPoint: "Anchor-7" 1314 1120 basechar 0
AnchorPoint: "Anchor-6" 1314 2195 basechar 0
AnchorPoint: "Anchor-4" 1314 0 basechar 0
LayerCount: 2
Fore
SplineSet
2487 18 m 1
 2487 0 l 1
 2102 0 l 1
 2102 18 l 1
 2182 18 2227 40 2227 134 c 2
 2227 1389 l 1
 439 1389 l 1
 439 134 l 2
 439 40 484 18 564 18 c 1
 564 0 l 1
 179 0 l 1
 179 18 l 1
 259 18 304 40 304 134 c 2
 304 2666 l 2
 304 2760 259 2782 179 2782 c 1
 179 2800 l 1
 564 2800 l 1
 564 2782 l 1
 484 2782 439 2760 439 2666 c 2
 439 1407 l 1
 2227 1407 l 1
 2227 2666 l 2
 2227 2760 2182 2782 2102 2782 c 1
 2102 2800 l 1
 2487 2800 l 1
 2487 2782 l 1
 2407 2782 2362 2760 2362 2666 c 2
 2362 134 l 2
 2362 40 2407 18 2487 18 c 1
EndSplineSet
Substitution2: "'ss01' Style Set 1 in Latin lookup 11 subtable" h.ss01
Substitution2: "'salt' Stylistic Alternatives in Latin lookup 10 subtable" h.ss01
Substitution2: "'aalt' Access All Alternates in Latin lookup 0 subtable" h.ss01
EndChar

StartChar: hbar
Encoding: 295 295 172
Width: 2665
Flags: MW
HStem: 0 21G<179 564 179 179 2102 2487 2102 2102> 2780 20G<179 564 564 564 2102 2487 2487 2487>
VStem: 304 135<134 1389 1407 1962 1980 2666> 2227 135<134 1389 1389 1389 1407 1962 1980 2666>
LayerCount: 2
Fore
SplineSet
2487 18 m 1
 2487 0 l 1
 2102 0 l 1
 2102 18 l 1
 2182 18 2227 40 2227 134 c 2
 2227 1389 l 1
 439 1389 l 1
 439 134 l 2
 439 40 484 18 564 18 c 1
 564 0 l 1
 179 0 l 1
 179 18 l 1
 259 18 304 40 304 134 c 2
 304 1962 l 1
 179 1962 l 1
 179 1980 l 1
 304 1980 l 1
 304 2666 l 2
 304 2760 259 2782 179 2782 c 1
 179 2800 l 1
 564 2800 l 1
 564 2782 l 1
 484 2782 439 2760 439 2666 c 2
 439 1980 l 1
 2227 1980 l 1
 2227 2666 l 2
 2227 2760 2182 2782 2102 2782 c 1
 2102 2800 l 1
 2487 2800 l 1
 2487 2782 l 1
 2407 2782 2362 2760 2362 2666 c 2
 2362 1980 l 1
 2486 1980 l 1
 2486 1962 l 1
 2362 1962 l 1
 2362 134 l 2
 2362 40 2407 18 2487 18 c 1
439 1962 m 1
 439 1407 l 1
 2227 1407 l 1
 2227 1962 l 1
 439 1962 l 1
EndSplineSet
EndChar

StartChar: hcircumflex
Encoding: 293 293 173
Width: 2667
GlyphClass: 2
Flags: MW
HStem: 0 21G<179 564 179 179 2102 2487 2102 2102> 1389 18<439 2227 439 2227> 2780 20G<179 564 564 564 2102 2487 2487 2487> 3038 21G<909 909 1769 1769> 3399 20G
VStem: 305 135 2228 135
AnchorPoint: "Anchor-7" 1314 1120 basechar 0
AnchorPoint: "Anchor-6" 1339 2245 basechar 0
AnchorPoint: "Anchor-4" 1314 0 basechar 0
LayerCount: 2
Fore
SplineSet
1339 3419 m 1
 1459 3311 1670 3137 1778 3051 c 1
 1769 3038 l 1
 1670 3114 1486 3249 1339 3316 c 1
 1192 3249 1008 3114 909 3038 c 1
 900 3051 l 1
 1008 3137 1219 3311 1339 3419 c 1
2487 18 m 1
 2487 0 l 1
 2102 0 l 1
 2102 18 l 1
 2182 18 2227 40 2227 134 c 2
 2227 1389 l 1
 439 1389 l 1
 439 134 l 2
 439 40 484 18 564 18 c 1
 564 0 l 1
 179 0 l 1
 179 18 l 1
 259 18 304 40 304 134 c 2
 304 2666 l 2
 304 2760 259 2782 179 2782 c 1
 179 2800 l 1
 564 2800 l 1
 564 2782 l 1
 484 2782 439 2760 439 2666 c 2
 439 1407 l 1
 2227 1407 l 1
 2227 2666 l 2
 2227 2760 2182 2782 2102 2782 c 1
 2102 2800 l 1
 2487 2800 l 1
 2487 2782 l 1
 2407 2782 2362 2760 2362 2666 c 2
 2362 134 l 2
 2362 40 2407 18 2487 18 c 1
EndSplineSet
EndChar

StartChar: i
Encoding: 105 105 174
Width: 743
GlyphClass: 2
Flags: MW
HStem: 0 21G<179 564 179 179> 2780 20G<179 564 564 564>
VStem: 303 135
AnchorPoint: "Anchor-6" 371 2195 basechar 0
AnchorPoint: "Anchor-5" 703 45 basechar 0
AnchorPoint: "Anchor-4" 371 0 basechar 0
LayerCount: 2
Fore
SplineSet
564 18 m 1
 564 0 l 1
 179 0 l 1
 179 18 l 1
 259 18 304 40 304 134 c 2
 304 2666 l 2
 304 2760 259 2782 179 2782 c 1
 179 2800 l 1
 564 2800 l 1
 564 2782 l 1
 484 2782 439 2760 439 2666 c 2
 439 134 l 2
 439 40 484 18 564 18 c 1
EndSplineSet
Substitution2: "'locl' Localized Forms in Latin lookup 6 subtable" i.latn_TRK
Substitution2: "'locl' Localized Forms in Latin lookup 3 subtable" i.latn_TRK
Substitution2: "'locl' Localized Forms in Latin lookup 2 subtable" i.latn_TRK
Substitution2: "'aalt' Access All Alternates in Latin lookup 0 subtable" i.latn_TRK
EndChar

StartChar: dotlessi
Encoding: 305 305 175
Width: 743
GlyphClass: 2
Flags: MW
HStem: 0 21G<179 564 179 179> 2780 20G<179 564 564 564>
VStem: 304 134
AnchorPoint: "Anchor-6" 371 2195 basechar 0
AnchorPoint: "Anchor-5" 564 0 basechar 0
AnchorPoint: "Anchor-4" 371 0 basechar 0
LayerCount: 2
Fore
SplineSet
564 18 m 1
 564 0 l 1
 179 0 l 1
 179 18 l 1
 259 18 304 40 304 134 c 2
 304 2666 l 2
 304 2760 259 2782 179 2782 c 1
 179 2800 l 1
 564 2800 l 1
 564 2782 l 1
 484 2782 439 2760 439 2666 c 2
 439 134 l 2
 439 40 484 18 564 18 c 1
EndSplineSet
EndChar

StartChar: iacute
Encoding: 237 237 176
Width: 743
GlyphClass: 2
Flags: MW
HStem: 0 21G<179 564 179 179> 2780 20G<179 564 564 564> 2975 21G<51 51> 3259 20G<665 665>
VStem: 304 134
AnchorPoint: "Anchor-6" 329 2195 basechar 0
AnchorPoint: "Anchor-5" 564 0 basechar 0
AnchorPoint: "Anchor-4" 371 0 basechar 0
LayerCount: 2
Fore
SplineSet
665 3279 m 1
 696 3190 l 1
 508 3163 51 2975 51 2975 c 1
 47 2988 l 1
 47 2988 499 3167 665 3279 c 1
564 18 m 1
 564 0 l 1
 179 0 l 1
 179 18 l 1
 259 18 304 40 304 134 c 2
 304 2666 l 2
 304 2760 259 2782 179 2782 c 1
 179 2800 l 1
 564 2800 l 1
 564 2782 l 1
 484 2782 439 2760 439 2666 c 2
 439 134 l 2
 439 40 484 18 564 18 c 1
EndSplineSet
EndChar

StartChar: icircumflex
Encoding: 238 238 177
Width: 743
GlyphClass: 2
Flags: MW
HStem: 0 21G<180 565 180 180> 2780 20G<180 565 565 565> 2988 21G<-58 -58 802 802> 3349 20G
VStem: 305 134
AnchorPoint: "Anchor-6" 372 2195 basechar 0
AnchorPoint: "Anchor-5" 565 0 basechar 0
AnchorPoint: "Anchor-4" 372 0 basechar 0
LayerCount: 2
Fore
SplineSet
372 3369 m 1
 492 3261 703 3087 811 3001 c 1
 802 2988 l 1
 703 3064 519 3199 372 3266 c 1
 225 3199 41 3064 -58 2988 c 1
 -67 3001 l 1
 41 3087 252 3261 372 3369 c 1
565 18 m 1
 565 0 l 1
 180 0 l 1
 180 18 l 1
 260 18 305 40 305 134 c 2
 305 2666 l 2
 305 2760 260 2782 180 2782 c 1
 180 2800 l 1
 565 2800 l 1
 565 2782 l 1
 485 2782 440 2760 440 2666 c 2
 440 134 l 2
 440 40 485 18 565 18 c 1
EndSplineSet
EndChar

StartChar: idieresis
Encoding: 239 239 178
Width: 743
GlyphClass: 2
Flags: MW
HStem: 0 21G<179 564 179 179> 2780 20G<179 564 564 564> 3042 116<221 253 490 522>
VStem: 304 134
AnchorPoint: "Anchor-6" 372 2200 basechar 0
AnchorPoint: "Anchor-5" 564 0 basechar 0
AnchorPoint: "Anchor-4" 371 0 basechar 0
LayerCount: 2
Fore
SplineSet
179 3100 m 0
 179 3132 205 3158 237 3158 c 0
 269 3158 295 3132 295 3100 c 0
 295 3068 269 3042 237 3042 c 0
 205 3042 179 3068 179 3100 c 0
448 3100 m 0
 448 3132 474 3158 506 3158 c 0
 538 3158 564 3132 564 3100 c 0
 564 3068 538 3042 506 3042 c 0
 474 3042 448 3068 448 3100 c 0
564 18 m 1
 564 0 l 1
 179 0 l 1
 179 18 l 1
 259 18 304 40 304 134 c 2
 304 2666 l 2
 304 2760 259 2782 179 2782 c 1
 179 2800 l 1
 564 2800 l 1
 564 2782 l 1
 484 2782 439 2760 439 2666 c 2
 439 134 l 2
 439 40 484 18 564 18 c 1
EndSplineSet
EndChar

StartChar: igrave
Encoding: 236 236 179
Width: 743
GlyphClass: 2
Flags: MW
HStem: 0 21G<156 541 156 156> 2780 20G<156 541 541 541> 2975 21G<692 692> 3259 20G<78 78>
VStem: 281 134
AnchorPoint: "Anchor-6" 333 2195 basechar 0
AnchorPoint: "Anchor-5" 541 0 basechar 0
AnchorPoint: "Anchor-4" 348 0 basechar 0
LayerCount: 2
Fore
SplineSet
47 3190 m 1
 78 3279 l 1
 244 3167 696 2988 696 2988 c 1
 692 2975 l 1
 692 2975 235 3163 47 3190 c 1
541 18 m 1
 541 0 l 1
 156 0 l 1
 156 18 l 1
 236 18 281 40 281 134 c 2
 281 2666 l 2
 281 2760 236 2782 156 2782 c 1
 156 2800 l 1
 541 2800 l 1
 541 2782 l 1
 461 2782 416 2760 416 2666 c 2
 416 134 l 2
 416 40 461 18 541 18 c 1
EndSplineSet
EndChar

StartChar: imacron
Encoding: 299 299 180
Width: 743
GlyphClass: 2
Flags: MW
HStem: 0 21G<178 563 178 178> 2780 20G<178 563 563 563> 3087 21G<-54 -54 797 797> 3138 20G<-54 -54 797 797>
VStem: 303 134
AnchorPoint: "Anchor-6" 372 2195 basechar 0
AnchorPoint: "Anchor-5" 563 0 basechar 0
AnchorPoint: "Anchor-4" 370 0 basechar 0
LayerCount: 2
Fore
SplineSet
797 3158 m 1
 797 3087 l 1
 372 3100 l 1
 -54 3087 l 1
 -54 3158 l 1
 372 3145 l 1
 797 3158 l 1
563 18 m 1
 563 0 l 1
 178 0 l 1
 178 18 l 1
 258 18 303 40 303 134 c 2
 303 2666 l 2
 303 2760 258 2782 178 2782 c 1
 178 2800 l 1
 563 2800 l 1
 563 2782 l 1
 483 2782 438 2760 438 2666 c 2
 438 134 l 2
 438 40 483 18 563 18 c 1
EndSplineSet
EndChar

StartChar: iogonek
Encoding: 303 303 181
Width: 743
GlyphClass: 2
Flags: MW
HStem: -717 21G<517.5 694.5> -710 20G<524 687.5> -432 20G<918 941 941 941> -7 20G 0 21G<179 538 179 179 564 564> 2780 20G<179 564 564 564>
VStem: 304 134
AnchorPoint: "Anchor-6" 371 2195 basechar 0
AnchorPoint: "Anchor-5" 564 0 basechar 0
AnchorPoint: "Anchor-4" 371 0 basechar 0
LayerCount: 2
Fore
SplineSet
918 -412 m 1xb6
 941 -412 l 1
 941 -587 780 -717 609 -717 c 0
 426 -717 278 -587 278 -412 c 0
 278 -249 390 -110 538 0 c 1
 179 0 l 1
 179 18 l 1
 259 18 304 40 304 134 c 2
 304 2666 l 2
 304 2760 259 2782 179 2782 c 1
 179 2800 l 1
 564 2800 l 1
 564 2782 l 1
 484 2782 439 2760 439 2666 c 2
 439 134 l 2
 439 40 484 18 564 18 c 1
 564 0 l 1xae
 417 -121 300 -247 300 -412 c 0
 300 -574 439 -690 609 -690 c 0x76
 766 -690 918 -574 918 -412 c 1xb6
EndSplineSet
EndChar

StartChar: itilde
Encoding: 297 297 182
Width: 743
GlyphClass: 2
Flags: MW
HStem: 0 21G<181 566 181 181> 2780 20G<181 566 566 566> 2979 264<-69 157 -69 157>
VStem: 306 134
AnchorPoint: "Anchor-6" 343 2195 basechar 0
AnchorPoint: "Anchor-5" 566 0 basechar 0
AnchorPoint: "Anchor-4" 373 0 basechar 0
LayerCount: 2
Fore
SplineSet
-51 2979 m 1
 -69 2979 l 1
 -77 3002 -83 3026 -83 3055 c 0
 -83 3172 -16 3243 110 3243 c 0
 204 3243 311 3190 397 3136 c 0
 495 3078 567 3019 665 3019 c 0
 737 3019 809 3078 809 3172 c 0
 809 3199 803 3223 795 3243 c 1
 813 3243 l 1
 818 3230 827 3199 827 3167 c 0
 827 3046 756 2979 629 2979 c 0
 529 2979 428 3037 347 3091 c 0
 217 3172 159 3203 79 3203 c 0
 7 3203 -65 3145 -65 3051 c 0
 -65 3023 -58 2996 -51 2979 c 1
566 18 m 1
 566 0 l 1
 181 0 l 1
 181 18 l 1
 261 18 306 40 306 134 c 2
 306 2666 l 2
 306 2760 261 2782 181 2782 c 1
 181 2800 l 1
 566 2800 l 1
 566 2782 l 1
 486 2782 441 2760 441 2666 c 2
 441 134 l 2
 441 40 486 18 566 18 c 1
EndSplineSet
EndChar

StartChar: j
Encoding: 106 106 183
Width: 1770
Flags: MW
HStem: -13 18<566.5 768 566.5 858> 2780 20G<1183 1568 1568 1568>
VStem: 1308 135<806 2666>
LayerCount: 2
Fore
SplineSet
627 5 m 0
 909 5 1147 184 1245 408 c 0
 1304 547 1308 668 1308 806 c 2
 1308 2666 l 2
 1308 2760 1263 2782 1183 2782 c 1
 1183 2800 l 1
 1568 2800 l 1
 1568 2782 l 1
 1487 2782 1443 2760 1443 2666 c 2
 1443 757 l 2
 1443 246 1089 -13 627 -13 c 0
 479 -13 385 13 134 143 c 1
 134 384 l 1
 152 384 l 1
 163 191 242 121 287 94 c 0
 390 31 506 5 627 5 c 0
EndSplineSet
EndChar

StartChar: jcircumflex
Encoding: 309 309 184
Width: 1770
GlyphClass: 2
Flags: MW
HStem: -13 18<566.5 768 566.5 858> 2780 20G<1183 1568 1568 1568> 3033 21G<945 945 1805 1805> 3394 20G
VStem: 1308 135<806 2666>
AnchorPoint: "Anchor-6" 1375 2240 basechar 0
LayerCount: 2
Fore
SplineSet
1375 3414 m 1
 1495 3306 1706 3132 1814 3046 c 1
 1805 3033 l 1
 1706 3109 1522 3244 1375 3311 c 1
 1228 3244 1044 3109 945 3033 c 1
 936 3046 l 1
 1044 3132 1255 3306 1375 3414 c 1
627 5 m 0
 909 5 1147 184 1245 408 c 0
 1304 547 1308 668 1308 806 c 2
 1308 2666 l 2
 1308 2760 1263 2782 1183 2782 c 1
 1183 2800 l 1
 1568 2800 l 1
 1568 2782 l 1
 1487 2782 1443 2760 1443 2666 c 2
 1443 757 l 2
 1443 246 1089 -13 627 -13 c 0
 479 -13 385 13 134 143 c 1
 134 384 l 1
 152 384 l 1
 163 191 242 121 287 94 c 0
 390 31 506 5 627 5 c 0
EndSplineSet
EndChar

StartChar: k
Encoding: 107 107 185
Width: 2232
GlyphClass: 2
Flags: MW
HStem: 0 21G<179 564 179 179 1694 1694 1694 2098> 2780 20G<179 564 564 564 1645 1887 1887 1887>
VStem: 305 135
AnchorPoint: "Anchor-6" 1094 2195 basechar 0
AnchorPoint: "Anchor-4" 1094 0 basechar 0
LayerCount: 2
Fore
SplineSet
564 18 m 1
 564 0 l 1
 179 0 l 1
 179 18 l 1
 259 18 304 40 304 134 c 2
 304 2666 l 2
 304 2760 259 2782 179 2782 c 1
 179 2800 l 1
 564 2800 l 1
 564 2782 l 1
 484 2782 439 2760 439 2666 c 2
 439 1334 l 1
 1730 2715 l 2
 1756 2743 1757 2782 1645 2782 c 1
 1645 2800 l 1
 1887 2800 l 1
 1887 2782 l 1
 1865 2782 l 2
 1820 2782 1793 2755 1744 2701 c 2
 691 1577 l 1
 1941 117 l 2
 1990 58 2022 18 2098 18 c 1
 2098 0 l 1
 1694 0 l 1
 1694 18 l 1
 1708 18 1824 40 1762 121 c 2
 664 1550 l 1
 439 1307 l 1
 439 134 l 2
 439 40 484 18 564 18 c 1
EndSplineSet
EndChar

StartChar: l
Encoding: 108 108 186
Width: 2568
GlyphClass: 2
Flags: MW
HStem: 0 18<184 224 570 2201 2201 2310.5 184 224> 2780 20G<179 566 566 566>
VStem: 305 135<134 2666>
AnchorPoint: "Anchor-7" 1287 1120 basechar 0
AnchorPoint: "Anchor-6" 1367 2195 basechar 0
AnchorPoint: "Anchor-4" 1287 0 basechar 0
LayerCount: 2
Fore
SplineSet
2434 278 m 1
 2434 0 l 1
 184 0 l 1
 184 18 l 1
 264 18 305 40 305 134 c 2
 305 2666 l 2
 305 2760 260 2782 179 2782 c 1
 179 2800 l 1
 566 2800 l 1
 566 2782 l 1
 485 2782 440 2760 440 2666 c 2
 440 134 l 2
 440 45 489 18 570 18 c 2
 2201 18 l 2
 2420 18 2416 278 2416 278 c 1
 2434 278 l 1
EndSplineSet
EndChar

StartChar: lacute
Encoding: 314 314 187
Width: 2568
GlyphClass: 2
Flags: MW
HStem: 0 18<184 224 570 2201 2201 2310.5 184 224> 2780 20G<179 566 566 566> 2975 21G<183 183> 3259 20G<797 797>
VStem: 305 135<134 2666>
AnchorPoint: "Anchor-7" 1287 1120 basechar 0
AnchorPoint: "Anchor-6" 461 2195 basechar 0
AnchorPoint: "Anchor-4" 1287 0 basechar 0
LayerCount: 2
Fore
SplineSet
797 3279 m 1
 828 3190 l 1
 640 3163 183 2975 183 2975 c 1
 179 2988 l 1
 179 2988 631 3167 797 3279 c 1
2434 278 m 1
 2434 0 l 1
 184 0 l 1
 184 18 l 1
 264 18 305 40 305 134 c 2
 305 2666 l 2
 305 2760 260 2782 179 2782 c 1
 179 2800 l 1
 566 2800 l 1
 566 2782 l 1
 485 2782 440 2760 440 2666 c 2
 440 134 l 2
 440 45 489 18 570 18 c 2
 2201 18 l 2
 2420 18 2416 278 2416 278 c 1
 2434 278 l 1
EndSplineSet
EndChar

StartChar: lcaron
Encoding: 318 318 188
Width: 2568
GlyphClass: 2
Flags: MW
HStem: 0 18<184 224 570 2201 2201 2310.5 184 224> 2450 21G<1302 1302> 2607 21G 2780 20G<179 566 566 566> 2789 20G<1277 1333>
VStem: 305 135<134 2666>
AnchorPoint: "Anchor-7" 1287 1120 basechar 0
AnchorPoint: "Anchor-6" 1306 2195 basechar 0
LayerCount: 2
Fore
SplineSet
1302 2450 m 1xec
 1279 2464 l 1
 1297 2508 1315 2562 1320 2607 c 1
 1251 2605 1203 2643 1203 2701 c 0
 1203 2764 1248 2809 1306 2809 c 0
 1360 2809 1409 2764 1409 2701 c 0
 1409 2661 1400 2625 1302 2450 c 1xec
2434 278 m 1
 2434 0 l 1
 184 0 l 1
 184 18 l 1
 264 18 305 40 305 134 c 2
 305 2666 l 2
 305 2760 260 2782 179 2782 c 1
 179 2800 l 1
 566 2800 l 1xf4
 566 2782 l 1
 485 2782 440 2760 440 2666 c 2
 440 134 l 2
 440 45 489 18 570 18 c 2
 2201 18 l 2
 2420 18 2416 278 2416 278 c 1
 2434 278 l 1
EndSplineSet
EndChar

StartChar: lslash
Encoding: 322 322 189
Width: 2656
Flags: MW
HStem: 0 21G<274 2522 274 274> 2780 20G<269 654 654 654>
VStem: 397 135
LayerCount: 2
Fore
SplineSet
2505 278 m 1
 2522 278 l 1
 2522 0 l 1
 274 0 l 1
 274 18 l 1
 354 18 399 40 399 134 c 2
 396 1562 l 1
 14 1156 l 1
 0 1169 l 1
 396 1590 l 1
 394 2666 l 2
 394 2760 350 2782 269 2782 c 1
 269 2800 l 1
 654 2800 l 1
 654 2782 l 1
 574 2782 529 2760 529 2666 c 2
 531 1732 l 1
 1017 2249 l 1
 1031 2236 l 1
 531 1705 l 1
 533 134 l 2
 533 40 578 18 659 18 c 2
 2290 18 l 2
 2509 18 2505 278 2505 278 c 1
EndSplineSet
EndChar

StartChar: m
Encoding: 109 109 190
Width: 3740
GlyphClass: 2
Flags: MW
HStem: 0 21G<828 1083 1083 1284 1746 2114 1746 1746 3302 3670 3302 3302> 2780 20G<622 1016 1016 1016 2178 2572 2572 2572>
AnchorPoint: "Anchor-6" 1787 2195 basechar 0
AnchorPoint: "Anchor-4" 1819 0 basechar 0
LayerCount: 2
Fore
SplineSet
2469 2670 m 2
 3531 116 l 2
 3577 5 3656 18 3670 18 c 1
 3670 0 l 1
 3302 0 l 1
 3302 18 l 1
 3316 18 3426 22 3387 116 c 2
 2339 2630 l 1
 1667 859 l 1
 1975 116 l 2
 2021 4 2100 18 2114 18 c 1
 2114 0 l 1
 1746 0 l 1
 1746 18 l 1
 1760 18 1870 22 1831 116 c 2
 783 2630 l 1
 298 1353 l 2
 199 1093 183 927 183 833 c 0
 183 318 658 22 1033 22 c 0
 1082 22 1257 18 1364 219 c 1
 1382 219 l 1
 1284 0 l 1
 1083 0 l 2
 573 0 165 358 165 829 c 0
 165 927 181 1098 280 1357 c 2
 774 2657 l 1
 729 2755 685 2782 622 2782 c 1
 622 2800 l 1
 1016 2800 l 1
 1016 2782 l 1
 967 2782 874 2764 913 2670 c 2
 1657 883 l 1
 2330 2657 l 1
 2285 2755 2241 2782 2178 2782 c 1
 2178 2800 l 1
 2572 2800 l 1
 2572 2782 l 1
 2523 2782 2430 2764 2469 2670 c 2
EndSplineSet
EndChar

StartChar: n
Encoding: 110 110 191
Width: 1853
GlyphClass: 2
Flags: MW
HStem: 0 21G<179 435 179 179 1289 1289 1289 1674> 2780 20G<191 577 577 577 1402 1658 1658 1658>
VStem: 296 18<112 2701> 1519 18<166 2693 121 2737.5>
AnchorPoint: "Anchor-6" 932 2240 basechar 0
AnchorPoint: "Anchor-4" 932 0 basechar 0
LayerCount: 2
Fore
SplineSet
1389 130 m 2
 314 2701 l 1
 314 112 l 2
 314 18 403 18 435 18 c 1
 435 0 l 1
 179 0 l 1
 179 18 l 1
 206 18 296 18 296 112 c 2
 296 2728 l 1
 264 2787 205 2782 191 2782 c 1
 191 2800 l 1
 577 2800 l 1
 577 2782 l 1
 523 2782 434 2761 472 2670 c 2
 1519 166 l 1
 1519 2693 l 2
 1519 2782 1429 2782 1402 2782 c 1
 1402 2800 l 1
 1658 2800 l 1
 1658 2782 l 1
 1626 2782 1537 2782 1537 2693 c 2
 1537 121 l 1
 1596 13 1661 18 1674 18 c 1
 1674 0 l 1
 1289 0 l 1
 1289 18 l 1
 1343 18 1427 39 1389 130 c 2
EndSplineSet
Substitution2: "'ss01' Style Set 1 in Latin lookup 11 subtable" n.ss01
Substitution2: "'salt' Stylistic Alternatives in Latin lookup 10 subtable" n.ss01
Substitution2: "'aalt' Access All Alternates in Latin lookup 0 subtable" n.ss01
EndChar

StartChar: nacute
Encoding: 324 324 192
Width: 1853
GlyphClass: 2
Flags: MW
HStem: 0 21G<179 435 179 179 1289 1289 1289 1674> 2780 20G<191 577 577 577 1402 1658 1658 1658> 2975 21G<583 583> 3259 20G<1197 1197>
VStem: 296 18<112 2701> 1519 18<166 2693 121 2737.5>
AnchorPoint: "Anchor-6" 861 2195 basechar 0
AnchorPoint: "Anchor-4" 932 0 basechar 0
LayerCount: 2
Fore
SplineSet
1197 3279 m 1
 1228 3190 l 1
 1040 3163 583 2975 583 2975 c 1
 579 2988 l 1
 579 2988 1031 3167 1197 3279 c 1
1389 130 m 2
 314 2701 l 1
 314 112 l 2
 314 18 403 18 435 18 c 1
 435 0 l 1
 179 0 l 1
 179 18 l 1
 206 18 296 18 296 112 c 2
 296 2728 l 1
 264 2787 205 2782 191 2782 c 1
 191 2800 l 1
 577 2800 l 1
 577 2782 l 1
 523 2782 434 2761 472 2670 c 2
 1519 166 l 1
 1519 2693 l 2
 1519 2782 1429 2782 1402 2782 c 1
 1402 2800 l 1
 1658 2800 l 1
 1658 2782 l 1
 1626 2782 1537 2782 1537 2693 c 2
 1537 121 l 1
 1596 13 1661 18 1674 18 c 1
 1674 0 l 1
 1289 0 l 1
 1289 18 l 1
 1343 18 1427 39 1389 130 c 2
EndSplineSet
EndChar

StartChar: ncaron
Encoding: 328 328 193
Width: 1853
GlyphClass: 2
Flags: MW
HStem: 0 21G<179 435 179 179 1289 1289 1289 1674> 2780 20G<191 577 577 577 1402 1658 1658 1658> 2916 21G 3277 20G<473 473 1333 1333>
VStem: 296 18<112 2701> 1519 18<166 2693 121 2737.5>
AnchorPoint: "Anchor-6" 903 2195 basechar 0
AnchorPoint: "Anchor-4" 932 0 basechar 0
LayerCount: 2
Fore
SplineSet
903 2916 m 1
 783 3024 572 3198 464 3284 c 1
 473 3297 l 1
 572 3221 756 3086 903 3019 c 1
 1050 3086 1234 3221 1333 3297 c 1
 1342 3284 l 1
 1234 3198 1023 3024 903 2916 c 1
1389 130 m 2
 314 2701 l 1
 314 112 l 2
 314 18 403 18 435 18 c 1
 435 0 l 1
 179 0 l 1
 179 18 l 1
 206 18 296 18 296 112 c 2
 296 2728 l 1
 264 2787 205 2782 191 2782 c 1
 191 2800 l 1
 577 2800 l 1
 577 2782 l 1
 523 2782 434 2761 472 2670 c 2
 1519 166 l 1
 1519 2693 l 2
 1519 2782 1429 2782 1402 2782 c 1
 1402 2800 l 1
 1658 2800 l 1
 1658 2782 l 1
 1626 2782 1537 2782 1537 2693 c 2
 1537 121 l 1
 1596 13 1661 18 1674 18 c 1
 1674 0 l 1
 1289 0 l 1
 1289 18 l 1
 1343 18 1427 39 1389 130 c 2
EndSplineSet
EndChar

StartChar: eng
Encoding: 331 331 194
Width: 1832
GlyphClass: 2
Flags: MW
HStem: -506 18<1187.5 1330.5 1187.5 1344> 0 21G<179 439 179 179 1284 1514 1284 1284> 2780 20G<188 577 577 577 1393 1653 1653 1653>
VStem: 300 18<112 2701> 1514 18<-229 0 0 0 166 2688>
AnchorPoint: "Anchor-6" 623 2195 basechar 0
AnchorPoint: "Anchor-4" 623 0 basechar 0
LayerCount: 2
Fore
SplineSet
1514 -229 m 2
 1514 0 l 1
 1284 0 l 1
 1284 18 l 1
 1338 18 1431 39 1393 130 c 2
 318 2701 l 1
 318 112 l 2
 318 18 399 18 439 18 c 1
 439 0 l 1
 179 0 l 1
 179 18 l 1
 220 18 300 18 300 112 c 2
 300 2728 l 1
 269 2787 202 2782 188 2782 c 1
 188 2800 l 1
 577 2800 l 1
 577 2782 l 1
 523 2782 429 2761 467 2670 c 2
 1514 166 l 1
 1514 2688 l 2
 1514 2782 1434 2782 1393 2782 c 1
 1393 2800 l 1
 1653 2800 l 1
 1653 2782 l 1
 1613 2782 1532 2782 1532 2688 c 2
 1532 -246 l 2
 1532 -372 1429 -506 1259 -506 c 0
 1093 -506 986 -376 986 -220 c 1
 1004 -220 l 1
 1004 -381 1116 -488 1259 -488 c 0
 1402 -488 1514 -385 1514 -229 c 2
EndSplineSet
EndChar

StartChar: ntilde
Encoding: 241 241 195
Width: 1853
GlyphClass: 2
Flags: MW
HStem: 0 21G<179 435 179 179 1289 1289 1289 1674> 2780 20G<191 577 577 577 1402 1658 1658 1658> 3024 264<520 746 520 746>
VStem: 296 18<112 2701> 1519 18<166 2693 121 2737.5>
AnchorPoint: "Anchor-6" 932 2240 basechar 0
AnchorPoint: "Anchor-4" 932 0 basechar 0
LayerCount: 2
Fore
SplineSet
538 3024 m 1
 520 3024 l 1
 512 3047 506 3071 506 3100 c 0
 506 3217 573 3288 699 3288 c 0
 793 3288 900 3235 986 3181 c 0
 1084 3123 1156 3064 1254 3064 c 0
 1326 3064 1398 3123 1398 3217 c 0
 1398 3244 1392 3268 1384 3288 c 1
 1402 3288 l 1
 1407 3275 1416 3244 1416 3212 c 0
 1416 3091 1345 3024 1218 3024 c 0
 1118 3024 1017 3082 936 3136 c 0
 806 3217 748 3248 668 3248 c 0
 596 3248 524 3190 524 3096 c 0
 524 3068 531 3041 538 3024 c 1
1389 130 m 2
 314 2701 l 1
 314 112 l 2
 314 18 403 18 435 18 c 1
 435 0 l 1
 179 0 l 1
 179 18 l 1
 206 18 296 18 296 112 c 2
 296 2728 l 1
 264 2787 205 2782 191 2782 c 1
 191 2800 l 1
 577 2800 l 1
 577 2782 l 1
 523 2782 434 2761 472 2670 c 2
 1519 166 l 1
 1519 2693 l 2
 1519 2782 1429 2782 1402 2782 c 1
 1402 2800 l 1
 1658 2800 l 1
 1658 2782 l 1
 1626 2782 1537 2782 1537 2693 c 2
 1537 121 l 1
 1596 13 1661 18 1674 18 c 1
 1674 0 l 1
 1289 0 l 1
 1289 18 l 1
 1343 18 1427 39 1389 130 c 2
EndSplineSet
EndChar

StartChar: o
Encoding: 111 111 196
Width: 3100
GlyphClass: 2
Flags: MW
HStem: -13 80<1281.5 1944.5> 2733 80<1158.5 1819>
VStem: 134 81<1130.5 1789.5> 2885 81<1012.5 1671>
AnchorPoint: "Anchor-7" 1550 1402 basechar 0
AnchorPoint: "Anchor-6" 1550 2195 basechar 0
AnchorPoint: "Anchor-5" 2863 45 basechar 0
AnchorPoint: "Anchor-4" 1550 0 basechar 0
LayerCount: 2
Fore
SplineSet
1555 -13 m 0
 757 -13 134 632 134 1402 c 0
 134 2177 771 2813 1546 2813 c 0
 2343 2813 2966 2168 2966 1402 c 0
 2966 623 2334 -13 1555 -13 c 0
1671 67 m 0
 2357 67 2885 596 2885 1281 c 0
 2885 2061 2209 2733 1429 2733 c 0
 739 2733 215 2212 215 1518 c 0
 215 743 892 67 1671 67 c 0
EndSplineSet
EndChar

StartChar: oacute
Encoding: 243 243 197
Width: 3100
GlyphClass: 2
Flags: HMW
HStem: -13 80<1281.5 1944.5> 2733 80<1158.5 1819> 2975 21G<1297 1297> 3259 20G<1911 1911>
VStem: 134 81<1130.5 1789.5> 2885 81<1012.5 1671>
AnchorPoint: "Anchor-7" 1550 1402 basechar 0
AnchorPoint: "Anchor-6" 1575 2195 basechar 0
AnchorPoint: "Anchor-5" 2863 45 basechar 0
AnchorPoint: "Anchor-4" 1550 0 basechar 0
LayerCount: 2
Fore
SplineSet
1911 3279 m 1
 1942 3190 l 1
 1754 3163 1297 2975 1297 2975 c 1
 1293 2988 l 1
 1293 2988 1745 3167 1911 3279 c 1
1555 -13 m 0
 757 -13 134 632 134 1402 c 0
 134 2177 778.756744806 2922.37452793 1546 2813 c 4
 2248.21328323 2712.89583377 2972.34518908 2174.70114847 2966 1402 c 4
 2959.60330232 623.026263435 2334 -13 1555 -13 c 0
1671 67 m 0
 2357 67 2885 596 2885 1281 c 0
 2885 2061 2209 2733 1429 2733 c 0
 739 2733 215 2212 215 1518 c 0
 215 743 892 67 1671 67 c 0
1911 3279 m 1
 1942 3190 l 1
 1754 3163 1297 2975 1297 2975 c 1
 1293 2988 l 1
 1293 2988 1745 3167 1911 3279 c 1
1555 -13 m 0
 757 -13 134 632 134 1402 c 0
 134 2177 771 2813 1546 2813 c 0
 2343 2813 2966 2168 2966 1402 c 0
 2966 623 2334 -13 1555 -13 c 0
1671 67 m 0
 2357 67 2885 596 2885 1281 c 0
 2885 2061 2209 2733 1429 2733 c 0
 739 2733 215 2212 215 1518 c 0
 215 743 892 67 1671 67 c 0
EndSplineSet
EndChar

StartChar: ocircumflex
Encoding: 244 244 198
Width: 3100
GlyphClass: 2
Flags: MW
HStem: -13 80<1281.5 1944.5> 2733 80<1158.5 1819> 2988 21G<1120 1120 1980 1980> 3349 20G
VStem: 134 81<1130.5 1789.5> 2885 81<1012.5 1671>
AnchorPoint: "Anchor-7" 1550 1402 basechar 0
AnchorPoint: "Anchor-6" 1550 2195 basechar 0
AnchorPoint: "Anchor-5" 2863 45 basechar 0
AnchorPoint: "Anchor-4" 1550 0 basechar 0
LayerCount: 2
Fore
SplineSet
1550 3369 m 1
 1670 3261 1881 3087 1989 3001 c 1
 1980 2988 l 1
 1881 3064 1697 3199 1550 3266 c 1
 1403 3199 1219 3064 1120 2988 c 1
 1111 3001 l 1
 1219 3087 1430 3261 1550 3369 c 1
1555 -13 m 0
 757 -13 134 632 134 1402 c 0
 134 2177 771 2813 1546 2813 c 0
 2343 2813 2966 2168 2966 1402 c 0
 2966 623 2334 -13 1555 -13 c 0
1671 67 m 0
 2357 67 2885 596 2885 1281 c 0
 2885 2061 2209 2733 1429 2733 c 0
 739 2733 215 2212 215 1518 c 0
 215 743 892 67 1671 67 c 0
EndSplineSet
EndChar

